<svg width="1197" height="537" viewBox="0 0 1197 537" fill="none" xmlns="http://www.w3.org/2000/svg">
<path d="M665 405.994V429.213C665 445.781 651.569 459.213 635 459.213H169C152.431 459.213 139 472.644 139 489.213V531.994" stroke="#DF4402"/>
<path d="M695 352.994V429.213C695 445.781 708.431 459.213 725 459.213H1032C1048.57 459.213 1062 472.644 1062 489.213V531.994" stroke="#DF4402"/>
<path d="M675 380.994V451.494C675 468.063 661.569 481.494 645 481.494H476C459.431 481.494 446 494.926 446 511.494L446 531.994" stroke="#DF4402"/>
<path d="M685.5 363.494V451.494C685.5 468.063 698.931 481.494 715.5 481.494H724C740.569 481.494 754 494.926 754 511.494L754 531.994" stroke="#DF4402"/>
<circle cx="138.5" cy="531.994" r="5" fill="#DF4402"/>
<circle cx="446" cy="531.994" r="5" fill="#DF4402"/>
<circle cx="754" cy="531.994" r="5" fill="#DF4402"/>
<circle cx="1061" cy="531.994" r="5" fill="#DF4402"/>
</svg>
