<svg width="1197" height="537" viewBox="0 0 1197 537" fill="none" xmlns="http://www.w3.org/2000/svg">
<path d="M329 404H312C295.431 404 282 417.431 282 434V478C282 494.569 295.431 508 312 508H423C435.979 508 446.5 518.521 446.5 531.5V531.5" stroke="#DF4402"/>
<path d="M415 335.5H433.5C450.069 335.5 463.5 348.931 463.5 365.5V456C463.5 472.569 476.931 486 493.5 486H724.5C741.069 486 754.5 499.431 754.5 516V531" stroke="#DF4402"/>
<path d="M309 340.5H168C151.431 340.5 138 353.931 138 370.5V530" stroke="#DF4402"/>
<path d="M312 272.5V254.5C312 237.931 325.431 224.5 342 224.5H465C481.569 224.5 495 237.931 495 254.5V420C495 436.569 508.431 450 525 450H1031.5C1048.07 450 1061.5 463.431 1061.5 480V531.5" stroke="#DF4402"/>
<circle cx="138.5" cy="531.016" r="5" fill="#DF4402"/>
<circle cx="446" cy="531.016" r="5" fill="#DF4402"/>
<circle cx="754" cy="531.016" r="5" fill="#DF4402"/>
<circle cx="1061" cy="531.016" r="5" fill="#DF4402"/>
</svg>
