<svg width="1197" height="537" viewBox="0 0 1197 537" fill="none" xmlns="http://www.w3.org/2000/svg">
<path d="M690 55V158C690 174.569 676.568 188 660 188H476.5C459.931 188 446.5 201.431 446.5 218V531.5" stroke="#DF4402"/>
<path d="M710 130V428.234C710 444.803 723.431 458.234 740 458.234H1032C1048.57 458.234 1062 471.665 1062 488.234V531.016" stroke="#DF4402"/>
<path d="M644.5 102.5H466C449.431 102.5 436 115.931 436 132.5V471C436 487.569 422.569 501 406 501H167C150.984 501 138 513.984 138 530V530" stroke="#DF4402"/>
<path d="M654.5 152V450.516C654.5 467.084 667.931 480.516 684.5 480.516H724C740.569 480.516 754 493.947 754 510.516L754 531.016" stroke="#DF4402"/>
<circle cx="138.5" cy="531.016" r="5" fill="#DF4402"/>
<circle cx="446" cy="531.016" r="5" fill="#DF4402"/>
<circle cx="754" cy="531.016" r="5" fill="#DF4402"/>
<circle cx="1061" cy="531.016" r="5" fill="#DF4402"/>
</svg>
