<svg width="1197" height="537" viewBox="0 0 1197 537" fill="none" xmlns="http://www.w3.org/2000/svg">
<path d="M222.5 219.5H416.5C433.069 219.5 446.5 232.931 446.5 249.5V531.5" stroke="#DF4402"/>
<path d="M313 123.5H460C476.569 123.5 490 136.931 490 153.5V428.234C490 444.803 503.431 458.234 520 458.234H1032C1048.57 458.234 1062 471.666 1062 488.234V531.016" stroke="#DF4402"/>
<path d="M150.5 167H130C113.431 167 100 180.431 100 197V388C100 398.493 108.507 407 119 407V407C129.493 407 138 415.507 138 426V530" stroke="#DF4402"/>
<path d="M288 204H438.5C455.069 204 468.5 217.44 468.5 234.009C468.5 314.489 468.5 370.027 468.5 450.507C468.5 467.076 481.931 480.516 498.5 480.516H724C740.569 480.516 754 493.947 754 510.516L754 531.016" stroke="#DF4402"/>
<circle cx="138.5" cy="531.016" r="5" fill="#DF4402"/>
<circle cx="446" cy="531.016" r="5" fill="#DF4402"/>
<circle cx="754" cy="531.016" r="5" fill="#DF4402"/>
<circle cx="1061" cy="531.016" r="5" fill="#DF4402"/>
</svg>
