<svg width="1197" height="537" viewBox="0 0 1197 537" fill="none" xmlns="http://www.w3.org/2000/svg">
<path d="M781.5 140V431C781.5 447.569 768.069 461 751.5 461H476.5C459.931 461 446.5 474.431 446.5 491V531.5" stroke="#DF4402"/>
<path d="M822.5 123.5V428.234C822.5 444.803 835.931 458.234 852.5 458.234H1032C1048.57 458.234 1062 471.665 1062 488.234V531.016" stroke="#DF4402"/>
<path d="M710.5 140.5V410C710.5 426.569 697.069 440 680.5 440H168C151.431 440 138 453.431 138 470V530" stroke="#DF4402"/>
<path d="M802 129.5C802 249.662 802 340.117 802 456.513C802 469.768 791.255 480.516 778 480.516V480.516C764.745 480.516 754 491.261 754 504.516V531.016" stroke="#DF4402"/>
<circle cx="138.5" cy="531.016" r="5" fill="#DF4402"/>
<circle cx="446" cy="531.016" r="5" fill="#DF4402"/>
<circle cx="754" cy="531.016" r="5" fill="#DF4402"/>
<circle cx="1061" cy="531.016" r="5" fill="#DF4402"/>
</svg>
