<svg width="1197" height="537" viewBox="0 0 1197 537" fill="none" xmlns="http://www.w3.org/2000/svg">
<path d="M1122 383V360C1122 343.431 1108.57 330 1092 330H969.5C952.931 330 939.5 343.431 939.5 360V431.5C939.5 448.069 926.069 461.5 909.5 461.5H476.5C459.931 461.5 446.5 474.931 446.5 491.5V531.5" stroke="#DF4402"/>
<path d="M1153 447V460.5C1153 477.069 1139.57 490.5 1123 490.5H1092C1075.43 490.5 1062 503.931 1062 520.5V531.016" stroke="#DF4402"/>
<path d="M909 298.5L907.008 414.017C906.726 430.382 893.38 443.5 877.013 443.5H168C151.431 443.5 138 456.931 138 473.5V530" stroke="#DF4402"/>
<path d="M1082 393.5L1082 450.516C1082 467.084 1068.57 480.516 1052 480.516H784C767.431 480.516 754 493.947 754 510.516V531.016" stroke="#DF4402"/>
<circle cx="138.5" cy="531.016" r="5" fill="#DF4402"/>
<circle cx="446" cy="531.016" r="5" fill="#DF4402"/>
<circle cx="754" cy="531.016" r="5" fill="#DF4402"/>
<circle cx="1061" cy="531.016" r="5" fill="#DF4402"/>
</svg>
