<svg width="179" height="179" viewBox="0 0 179 179" fill="none" xmlns="http://www.w3.org/2000/svg">
<path d="M153.771 89.3509L107.55 79.8275L124.253 54.5481L124.453 54.3486L124.353 54.4484L124.453 54.2489L124.154 54.5481L98.9241 71.1517L89.4008 24.4322V24.0333L89.3508 24.2328L89.301 23.9336V24.4821L79.6779 71.1018L54.199 54.2489L78.2319 78.2818L78.1821 78.4314L78.0823 78.3316L73.6447 79.2291L62.077 62.1269L54.199 54.2489L71.0021 79.7776L23.9336 89.3509L71.052 99.0737L54.3985 124.204L54.0993 124.503L54.2988 124.403L54.199 124.503L54.3985 124.303L79.7278 107.65L89.2013 154.27V154.818L89.2511 154.519L89.301 154.718V154.369L98.9241 107.65L123.805 124.104L124.303 124.602L124.104 124.303L124.403 124.503L123.904 124.004L107.4 98.974L153.671 89.5503H154.619L154.17 89.4506L154.619 89.3509H153.771ZM62.2765 116.425L78.1821 100.52H78.2818L79.1793 104.957L62.2765 116.425ZM89.301 89.3509L100.52 100.37L104.808 99.4726L116.026 116.076L100.37 100.42L99.6222 99.672L99.1734 99.2233L97.3785 97.4283L89.2511 139.61V101.268V99.2233V89.3509L81.1238 97.5779L38.4431 89.3509H77.1849L77.2846 89.5005L80.4757 89.4506L80.4258 89.3509H89.301L81.1737 81.3233L89.301 39.1411V77.4342L89.2013 77.484L89.2511 80.6751L89.301 80.6252V89.3509L100.32 78.1322L99.4227 73.7943L116.276 62.4261L100.37 78.3316H100.32L97.3785 81.3233L139.062 89.4007H89.301V89.3509Z" fill="#DF4402"/>
<path d="M52.7033 129.489C51.4568 128.392 50.31 127.196 49.2131 125.949C41.8835 117.922 36.8975 107.65 35.4515 96.2821L31.6621 95.4844C33.0083 108.398 38.6426 120.116 47.1189 129.091C47.9167 129.938 48.7145 130.736 49.5621 131.534C58.5869 140.01 70.2543 145.694 83.268 147.04L82.4702 143.251C71.0521 141.855 60.7807 136.869 52.7033 129.489Z" fill="#DF4402"/>
<path d="M49.213 52.8519C49.7615 52.2037 50.3598 51.6054 50.9581 51.007C51.5565 50.4087 52.1548 49.8104 52.803 49.2619C60.8805 41.8825 71.1518 36.9463 82.52 35.5004L83.3178 31.7109C70.354 33.0572 58.6367 38.6914 49.6618 47.1678C49.213 47.5666 48.8141 47.9655 48.4153 48.4143C48.0164 48.8132 47.5676 49.2619 47.1687 49.7107C38.6924 58.6856 33.108 70.353 31.7119 83.2669L35.5013 82.4692C36.8974 71.1508 41.8835 60.8795 49.213 52.8519Z" fill="#DF4402"/>
<path d="M125.949 49.3616C127.146 50.4586 128.343 51.6552 129.44 52.8519C136.819 60.9293 141.805 71.2505 143.201 82.6187L146.991 83.4165C145.644 70.4527 140.01 58.6856 131.534 49.6608C130.736 48.8132 129.938 48.0154 129.091 47.2176C120.116 38.7413 108.398 33.0572 95.4346 31.7109L96.2323 35.5004C107.551 36.9962 117.872 41.9822 125.949 49.3616Z" fill="#DF4402"/>
<path d="M129.339 126.049C128.242 127.246 127.095 128.393 125.899 129.489C117.821 136.869 107.55 141.855 96.1815 143.251L95.3838 147.04C108.348 145.694 120.065 140.06 129.04 131.534C129.838 130.786 130.635 129.988 131.383 129.19C139.909 120.166 145.593 108.398 146.94 95.3848L143.15 96.1825C141.754 107.65 136.768 117.972 129.339 126.049Z" fill="#DF4402"/>
<path d="M171.321 85.4127V82.2715H161.599V96.5317H171.321V93.4403H165.089V90.8974H170.374V87.806H165.089V85.4127H171.321Z" fill="#DF4402"/>
<path d="M15.607 89.8005L13.3133 82.2715H10.8203L8.52672 89.8005L6.68189 82.2715H2.99219L6.9312 96.5317H9.77323L12.0668 89.5013L14.3605 96.5317H17.2523L21.1415 82.2715H17.5016L15.607 89.8005Z" fill="#DF4402"/>
<path d="M87.207 11.5685L91.7942 18.7484H94.8357V4.48828H91.3455V11.6682L86.7583 4.48828H83.7168V18.7484H87.207V11.5685Z" fill="#DF4402"/>
<path d="M89.0357 173.516C87.8441 173.516 86.6799 173.391 85.5431 173.141C84.42 172.878 83.4954 172.529 82.7695 172.094L84.3309 168.696C85.0158 169.078 85.7828 169.388 86.632 169.625C87.4811 169.849 88.2961 169.961 89.0768 169.961C89.7479 169.961 90.2273 169.901 90.5149 169.783C90.8026 169.651 90.9464 169.46 90.9464 169.21C90.9464 168.92 90.7546 168.703 90.3711 168.558C90.0013 168.413 89.385 168.255 88.5221 168.084C87.4127 167.86 86.4881 167.623 85.7485 167.373C85.0089 167.11 84.3652 166.688 83.8173 166.109C83.2695 165.516 82.9955 164.719 82.9955 163.718C82.9955 162.849 83.2489 162.059 83.7557 161.348C84.2625 160.637 85.0158 160.077 86.0156 159.669C87.0292 159.261 88.255 159.057 89.6931 159.057C90.6793 159.057 91.6449 159.162 92.59 159.373C93.5487 159.57 94.3911 159.867 95.117 160.262L93.6583 163.639C92.2475 162.955 90.9121 162.612 89.652 162.612C88.4057 162.612 87.7825 162.902 87.7825 163.481C87.7825 163.758 87.9674 163.969 88.3372 164.114C88.707 164.245 89.3165 164.39 90.1657 164.548C91.2614 164.746 92.1859 164.976 92.9392 165.24C93.6925 165.49 94.3431 165.905 94.891 166.484C95.4525 167.063 95.7333 167.854 95.7333 168.854C95.7333 169.724 95.4799 170.514 94.9732 171.225C94.4664 171.923 93.7062 172.482 92.6927 172.904C91.6928 173.312 90.4738 173.516 89.0357 173.516Z" fill="#DF4402"/>
</svg>
