<svg width="179" height="179" viewBox="0 0 179 179" fill="none" xmlns="http://www.w3.org/2000/svg">
<path d="M153.771 89.3509L107.55 79.8275L124.253 54.5481L124.453 54.3486L124.353 54.4484L124.453 54.2489L124.154 54.5481L98.9241 71.1517L89.4008 24.4322V24.0333L89.3508 24.2328L89.301 23.9336V24.4821L79.6779 71.1018L54.199 54.2489L78.2319 78.2818L78.1821 78.4314L78.0823 78.3316L73.6447 79.2291L62.077 62.1269L54.199 54.2489L71.0021 79.7776L23.9336 89.3509L71.052 99.0737L54.3985 124.204L54.0993 124.503L54.2988 124.403L54.199 124.503L54.3985 124.303L79.7278 107.65L89.2013 154.27V154.818L89.2511 154.519L89.301 154.718V154.369L98.9241 107.65L123.805 124.104L124.303 124.602L124.104 124.303L124.403 124.503L123.904 124.004L107.4 98.974L153.671 89.5503H154.619L154.17 89.4506L154.619 89.3509H153.771ZM62.2765 116.425L78.1821 100.52H78.2818L79.1793 104.957L62.2765 116.425ZM89.301 89.3509L100.52 100.37L104.808 99.4726L116.026 116.076L100.37 100.42L99.6222 99.672L99.1734 99.2233L97.3785 97.4283L89.2511 139.61V101.268V99.2233V89.3509L81.1238 97.5779L38.4431 89.3509H77.1849L77.2846 89.5005L80.4757 89.4506L80.4258 89.3509H89.301L81.1737 81.3233L89.301 39.1411V77.4342L89.2013 77.484L89.2511 80.6751L89.301 80.6252V89.3509L100.32 78.1322L99.4227 73.7943L116.276 62.4261L100.37 78.3316H100.32L97.3785 81.3233L139.062 89.4007H89.301V89.3509Z" fill="#DF4402"/>
<path d="M52.7033 129.489C51.4568 128.392 50.31 127.196 49.2131 125.949C41.8835 117.922 36.8975 107.65 35.4515 96.2821L31.6621 95.4844C33.0083 108.398 38.6426 120.116 47.1189 129.091C47.9167 129.938 48.7145 130.736 49.5621 131.534C58.5869 140.01 70.2543 145.694 83.268 147.04L82.4702 143.251C71.0521 141.855 60.7807 136.869 52.7033 129.489Z" fill="#DF4402"/>
<path d="M49.213 52.8519C49.7615 52.2037 50.3598 51.6054 50.9581 51.007C51.5565 50.4087 52.1548 49.8104 52.803 49.2619C60.8805 41.8825 71.1518 36.9463 82.52 35.5004L83.3178 31.7109C70.354 33.0572 58.6367 38.6914 49.6618 47.1678C49.213 47.5666 48.8141 47.9655 48.4153 48.4143C48.0164 48.8132 47.5676 49.2619 47.1687 49.7107C38.6924 58.6856 33.108 70.353 31.7119 83.2669L35.5013 82.4692C36.8974 71.1508 41.8835 60.8795 49.213 52.8519Z" fill="#DF4402"/>
<path d="M125.949 49.3616C127.146 50.4586 128.343 51.6552 129.44 52.8519C136.819 60.9293 141.805 71.2505 143.201 82.6187L146.991 83.4165C145.644 70.4527 140.01 58.6856 131.534 49.6608C130.736 48.8132 129.938 48.0154 129.091 47.2176C120.116 38.7413 108.398 33.0572 95.4346 31.7109L96.2323 35.5004C107.551 36.9962 117.872 41.9822 125.949 49.3616Z" fill="#DF4402"/>
<path d="M129.339 126.049C128.242 127.246 127.095 128.393 125.899 129.489C117.821 136.869 107.55 141.855 96.1815 143.251L95.3838 147.04C108.348 145.694 120.065 140.06 129.04 131.534C129.838 130.786 130.635 129.988 131.383 129.19C139.909 120.166 145.593 108.398 146.94 95.3848L143.15 96.1825C141.754 107.65 136.768 117.972 129.339 126.049Z" fill="#DF4402"/>
<path d="M94.3607 162.397V159.256H84.6387V173.516H94.3607V170.425H88.1287V167.882H93.4137V164.79H88.1287V162.397H94.3607Z" fill="#DF4402"/>
<path d="M93.0406 12.0173L90.7469 4.48828H88.2539L85.9603 12.0173L84.1155 4.48828H80.4258L84.3648 18.7485H87.2068L89.5004 11.7181L91.7941 18.7485H94.6859L98.5751 4.48828H94.9352L93.0406 12.0173Z" fill="#DF4402"/>
<path d="M163.692 89.3263L168.28 96.5062H171.321V82.2461H167.831V89.426L163.244 82.2461H160.202V96.5062H163.692V89.3263Z" fill="#DF4402"/>
<path d="M14.4439 96.7442C13.2523 96.7442 12.0881 96.6192 10.9513 96.3692C9.82823 96.1062 8.90363 95.7571 8.17773 95.3221L9.73914 91.9241C10.424 92.3061 11.191 92.6161 12.0402 92.8531C12.8893 93.0771 13.7043 93.1891 14.485 93.1891C15.1561 93.1891 15.6355 93.1292 15.9231 93.0112C16.2108 92.8792 16.3546 92.6882 16.3546 92.4382C16.3546 92.1482 16.1628 91.9311 15.7793 91.7861C15.4095 91.6411 14.7932 91.4831 13.9303 91.3121C12.8209 91.0881 11.8963 90.8512 11.1567 90.6012C10.4171 90.3382 9.77343 89.9161 9.22553 89.3371C8.67773 88.7441 8.40373 87.9472 8.40373 86.9462C8.40373 86.0772 8.65713 85.2872 9.16393 84.5762C9.67073 83.8652 10.424 83.3052 11.4238 82.8972C12.4374 82.4892 13.6632 82.2852 15.1013 82.2852C16.0875 82.2852 17.0531 82.3902 17.9982 82.6012C18.9569 82.7982 19.7993 83.0951 20.5252 83.4901L19.0665 86.8672C17.6557 86.1832 16.3203 85.8401 15.0602 85.8401C13.8139 85.8401 13.1907 86.1302 13.1907 86.7092C13.1907 86.9862 13.3756 87.1971 13.7454 87.3421C14.1152 87.4731 14.7247 87.6182 15.5739 87.7762C16.6696 87.9742 17.5941 88.2042 18.3474 88.4682C19.1007 88.7182 19.7513 89.1331 20.2992 89.7121C20.8607 90.2911 21.1415 91.0822 21.1415 92.0822C21.1415 92.9522 20.8881 93.7422 20.3814 94.4532C19.8746 95.1512 19.1144 95.7102 18.1009 96.1322C17.101 96.5402 15.882 96.7442 14.4439 96.7442Z" fill="#DF4402"/>
</svg>
