<svg width="179" height="179" viewBox="0 0 179 179" fill="none" xmlns="http://www.w3.org/2000/svg">
<path d="M153.771 89.3509L107.55 79.8275L124.253 54.5481L124.453 54.3486L124.353 54.4484L124.453 54.2489L124.154 54.5481L98.9241 71.1517L89.4008 24.4322V24.0333L89.3508 24.2328L89.301 23.9336V24.4821L79.6779 71.1018L54.199 54.2489L78.2319 78.2818L78.1821 78.4314L78.0823 78.3316L73.6447 79.2291L62.077 62.1269L54.199 54.2489L71.0021 79.7776L23.9336 89.3509L71.052 99.0737L54.3985 124.204L54.0993 124.503L54.2988 124.403L54.199 124.503L54.3985 124.303L79.7278 107.65L89.2013 154.27V154.818L89.2511 154.519L89.301 154.718V154.369L98.9241 107.65L123.805 124.104L124.303 124.602L124.104 124.303L124.403 124.503L123.904 124.004L107.4 98.974L153.671 89.5503H154.619L154.17 89.4506L154.619 89.3509H153.771ZM62.2765 116.425L78.1821 100.52H78.2818L79.1793 104.957L62.2765 116.425ZM89.301 89.3509L100.52 100.37L104.808 99.4726L116.026 116.076L100.37 100.42L99.6222 99.672L99.1734 99.2233L97.3785 97.4283L89.2511 139.61V101.268V99.2233V89.3509L81.1238 97.5779L38.4431 89.3509H77.1849L77.2846 89.5005L80.4757 89.4506L80.4258 89.3509H89.301L81.1737 81.3233L89.301 39.1411V77.4342L89.2013 77.484L89.2511 80.6751L89.301 80.6252V89.3509L100.32 78.1322L99.4227 73.7943L116.276 62.4261L100.37 78.3316H100.32L97.3785 81.3233L139.062 89.4007H89.301V89.3509Z" fill="#DF4402"/>
<path d="M52.7033 129.489C51.4568 128.392 50.31 127.196 49.2131 125.949C41.8835 117.922 36.8975 107.65 35.4515 96.2821L31.6621 95.4844C33.0083 108.398 38.6426 120.116 47.1189 129.091C47.9167 129.938 48.7145 130.736 49.5621 131.534C58.5869 140.01 70.2543 145.694 83.268 147.04L82.4702 143.251C71.0521 141.855 60.7807 136.869 52.7033 129.489Z" fill="#DF4402"/>
<path d="M49.213 52.8519C49.7615 52.2037 50.3598 51.6054 50.9581 51.007C51.5565 50.4087 52.1548 49.8104 52.803 49.2619C60.8805 41.8825 71.1518 36.9463 82.52 35.5004L83.3178 31.7109C70.354 33.0572 58.6367 38.6914 49.6618 47.1678C49.213 47.5666 48.8141 47.9655 48.4153 48.4143C48.0164 48.8132 47.5676 49.2619 47.1687 49.7107C38.6924 58.6856 33.108 70.353 31.7119 83.2669L35.5013 82.4692C36.8974 71.1508 41.8835 60.8795 49.213 52.8519Z" fill="#DF4402"/>
<path d="M125.949 49.3616C127.146 50.4586 128.343 51.6552 129.44 52.8519C136.819 60.9293 141.805 71.2505 143.201 82.6187L146.991 83.4165C145.644 70.4527 140.01 58.6856 131.534 49.6608C130.736 48.8132 129.938 48.0154 129.091 47.2176C120.116 38.7413 108.398 33.0572 95.4346 31.7109L96.2323 35.5004C107.551 36.9962 117.872 41.9822 125.949 49.3616Z" fill="#DF4402"/>
<path d="M129.339 126.049C128.242 127.246 127.095 128.393 125.899 129.489C117.821 136.869 107.55 141.855 96.1815 143.251L95.3838 147.04C108.348 145.694 120.065 140.06 129.04 131.534C129.838 130.786 130.635 129.988 131.383 129.19C139.909 120.166 145.593 108.398 146.94 95.3848L143.15 96.1825C141.754 107.65 136.768 117.972 129.339 126.049Z" fill="#DF4402"/>
<path d="M21.1419 85.5103V82.3691H11.4199L11.4199 96.6293H21.1419V93.5379H14.9099V90.995H20.1949V87.9036H14.9099V85.5103H21.1419Z" fill="#DF4402"/>
<path d="M170.044 89.8142L167.75 82.2852H165.257L162.963 89.8142L161.118 82.2852H157.429L161.368 96.5454H164.21L166.503 89.515L168.797 96.5454H171.689L175.578 82.2852H171.938L170.044 89.8142Z" fill="#DF4402"/>
<path d="M87.207 166.137L91.7942 173.317H94.8357V159.057H91.3455V166.237L86.7583 159.057H83.7168V173.317H87.207V166.137Z" fill="#DF4402"/>
<path d="M89.0601 18.9473C87.8685 18.9473 86.7043 18.8223 85.5675 18.5723C84.4444 18.3093 83.5198 17.9603 82.7939 17.5253L84.3553 14.1273C85.0402 14.5093 85.8072 14.8193 86.6564 15.0563C87.5055 15.2803 88.3205 15.3923 89.1012 15.3923C89.7723 15.3923 90.2517 15.3323 90.5393 15.2143C90.827 15.0823 90.9708 14.8913 90.9708 14.6413C90.9708 14.3513 90.779 14.1343 90.3955 13.9893C90.0257 13.8443 89.4094 13.6863 88.5465 13.5153C87.4371 13.2913 86.5125 13.0543 85.7729 12.8043C85.0333 12.5413 84.3896 12.1193 83.8417 11.5403C83.2939 10.9473 83.0199 10.1503 83.0199 9.14928C83.0199 8.28028 83.2733 7.49028 83.7801 6.77928C84.2869 6.06828 85.0402 5.50828 86.04 5.10028C87.0536 4.69228 88.2794 4.48828 89.7175 4.48828C90.7037 4.48828 91.6693 4.59328 92.6144 4.80428C93.5731 5.00128 94.4155 5.29827 95.1414 5.69327L93.6827 9.07028C92.2719 8.38628 90.9365 8.04327 89.6764 8.04327C88.4301 8.04327 87.8069 8.33328 87.8069 8.91228C87.8069 9.18928 87.9918 9.40027 88.3616 9.54527C88.7314 9.67627 89.3409 9.82128 90.1901 9.97928C91.2858 10.1773 92.2103 10.4073 92.9636 10.6713C93.7169 10.9213 94.3675 11.3363 94.9154 11.9153C95.4769 12.4943 95.7577 13.2853 95.7577 14.2853C95.7577 15.1553 95.5043 15.9453 94.9976 16.6563C94.4908 17.3543 93.7306 17.9133 92.7171 18.3353C91.7172 18.7433 90.4982 18.9473 89.0601 18.9473Z" fill="#DF4402"/>
</svg>
