<svg width="24" height="25" viewBox="0 0 24 25" fill="none" xmlns="http://www.w3.org/2000/svg">
<path d="M9 22.9785H15C20 22.9785 22 20.9785 22 15.9785V9.97852C22 4.97852 20 2.97852 15 2.97852H9C4 2.97852 2 4.97852 2 9.97852V15.9785C2 20.9785 4 22.9785 9 22.9785Z" stroke="#DF4402" stroke-width="2" stroke-linecap="round" stroke-linejoin="round"/>
<path d="M15.5 10.7285C16.3284 10.7285 17 10.0569 17 9.22852C17 8.40009 16.3284 7.72852 15.5 7.72852C14.6716 7.72852 14 8.40009 14 9.22852C14 10.0569 14.6716 10.7285 15.5 10.7285Z" stroke="#DF4402" stroke-width="2" stroke-miterlimit="10" stroke-linecap="round" stroke-linejoin="round"/>
<path d="M8.5 10.7285C9.32843 10.7285 10 10.0569 10 9.22852C10 8.40009 9.32843 7.72852 8.5 7.72852C7.67157 7.72852 7 8.40009 7 9.22852C7 10.0569 7.67157 10.7285 8.5 10.7285Z" stroke="#DF4402" stroke-width="2" stroke-miterlimit="10" stroke-linecap="round" stroke-linejoin="round"/>
<path d="M8.4 14.2793H15.6C16.1 14.2793 16.5 14.6793 16.5 15.1793C16.5 17.6693 14.49 19.6793 12 19.6793C9.51 19.6793 7.5 17.6693 7.5 15.1793C7.5 14.6793 7.9 14.2793 8.4 14.2793Z" stroke="#DF4402" stroke-width="2" stroke-miterlimit="10" stroke-linecap="round" stroke-linejoin="round"/>
</svg>
