<svg width="1096" height="949" viewBox="0 0 1096 949" fill="none" xmlns="http://www.w3.org/2000/svg">
<g clip-path="url(#clip0_2760_3794)">
<path opacity="0.03" d="M820.98 0.5H274.05L0.580078 474.16L274.05 947.82H820.98L1094.45 474.16L820.98 0.5Z" stroke="#DF4402" stroke-miterlimit="10"/>
<path opacity="0.08" d="M807.96 15.3496L280.39 19.1996L19.9502 478.01L287.07 932.97L814.63 929.12L1075.07 470.31L807.96 15.3496Z" stroke="#DF4402" stroke-miterlimit="10"/>
<path opacity="0.12" d="M794.93 30.1992L286.75 37.9092L39.3203 481.859L300.09 918.119L808.28 910.409L1055.7 466.459L794.93 30.1992Z" stroke="#DF4402" stroke-miterlimit="10"/>
<path opacity="0.17" d="M781.91 45.0508L293.1 56.6108L58.7002 485.711L313.11 903.261L801.93 891.711L1036.33 462.601L781.91 45.0508Z" stroke="#DF4402" stroke-miterlimit="10"/>
<path opacity="0.22" d="M768.89 59.9102L299.45 75.3102L78.0703 489.57L326.13 888.41L795.58 873L1016.96 458.75L768.89 59.9102Z" stroke="#DF4402" stroke-miterlimit="10"/>
<path opacity="0.26" d="M755.87 74.7598L305.8 94.0198L97.4404 493.42L339.16 873.56L789.23 854.3L997.58 454.9L755.87 74.7598Z" stroke="#DF4402" stroke-miterlimit="10"/>
<path opacity="0.31" d="M742.85 89.6094L312.15 112.719L116.81 497.269L352.18 858.709L782.88 835.599L978.21 451.049L742.85 89.6094Z" stroke="#DF4402" stroke-miterlimit="10"/>
<path opacity="0.35" d="M729.82 104.461L318.5 131.421L136.19 501.121L365.2 843.861L776.52 816.891L958.84 447.201L729.82 104.461Z" stroke="#DF4402" stroke-miterlimit="10"/>
<path opacity="0.4" d="M716.8 119.311L324.85 150.131L155.56 504.971L378.22 829.011L770.17 798.191L939.46 443.351L716.8 119.311Z" stroke="#DF4402" stroke-miterlimit="10"/>
<path opacity="0.45" d="M703.78 134.16L331.2 168.83L174.93 508.83L391.25 814.15L763.82 779.49L920.09 439.49L703.78 134.16Z" stroke="#DF4402" stroke-miterlimit="10"/>
<path opacity="0.49" d="M690.76 149.01L337.55 187.53L194.31 512.68L404.27 799.3L757.47 760.78L900.72 435.64L690.76 149.01Z" stroke="#DF4402" stroke-miterlimit="10"/>
<path opacity="0.54" d="M677.74 163.869L343.9 206.239L213.68 516.529L417.29 784.449L751.12 742.079L881.35 431.789L677.74 163.869Z" stroke="#DF4402" stroke-miterlimit="10"/>
<path opacity="0.59" d="M664.71 178.721L350.25 224.941L233.05 520.381L430.31 769.601L744.77 723.381L861.97 427.941L664.71 178.721Z" stroke="#DF4402" stroke-miterlimit="10"/>
<path opacity="0.63" d="M651.69 193.57L356.6 243.64L252.43 524.23L443.33 754.75L738.42 704.67L842.6 424.08L651.69 193.57Z" stroke="#DF4402" stroke-miterlimit="10"/>
<path opacity="0.68" d="M638.67 208.42L362.95 262.35L271.8 528.09L456.36 739.9L732.07 685.97L823.23 420.23L638.67 208.42Z" stroke="#DF4402" stroke-miterlimit="10"/>
<path opacity="0.72" d="M625.65 223.27L369.31 281.05L291.17 531.94L469.38 725.049L725.72 667.27L803.85 416.38L625.65 223.27Z" stroke="#DF4402" stroke-miterlimit="10"/>
<path opacity="0.77" d="M612.62 238.119L375.65 299.749L310.54 535.789L482.4 710.199L719.37 648.569L784.48 412.529L612.62 238.119Z" stroke="#DF4402" stroke-miterlimit="10"/>
<path opacity="0.82" d="M599.6 252.98L382.01 318.46L329.92 539.641L495.42 695.341L713.02 629.86L765.11 408.68L599.6 252.98Z" stroke="#DF4402" stroke-miterlimit="10"/>
<path opacity="0.86" d="M586.58 267.83L388.36 337.16L349.29 543.49L508.44 680.49L706.67 611.16L745.73 404.83L586.58 267.83Z" stroke="#DF4402" stroke-miterlimit="10"/>
<path opacity="0.91" d="M573.56 282.68L394.71 355.86L368.66 547.35L521.47 665.64L700.32 592.46L726.36 400.97L573.56 282.68Z" stroke="#DF4402" stroke-miterlimit="10"/>
<path opacity="0.95" d="M560.53 297.529L401.06 374.569L388.04 551.199L534.49 650.789L693.97 573.749L706.99 397.119L560.53 297.529Z" stroke="#DF4402" stroke-miterlimit="10"/>
<path d="M687.62 555.051V393.271L547.51 312.381L407.41 393.271V555.051L547.51 635.941L687.62 555.051Z" stroke="#DF4402" stroke-miterlimit="10"/>
</g>
<defs>
<clipPath id="clip0_2760_3794">
<rect width="1095.02" height="948.32" fill="white"/>
</clipPath>
</defs>
</svg>
