<svg width="1257" height="1089" viewBox="0 0 1257 1089" fill="none" xmlns="http://www.w3.org/2000/svg">
<g clip-path="url(#clip0_2822_30311)">
<path opacity="0.03" d="M942.423 0.574219H314.589L0.666016 544.5L314.589 1088.43H942.423L1256.35 544.5L942.423 0.574219Z" stroke="#DF4402" stroke-miterlimit="10"/>
<path opacity="0.08" d="M927.478 17.627L321.868 22.0481L22.9023 548.921L329.536 1071.37L935.135 1066.95L1234.1 540.079L927.478 17.627Z" stroke="#DF4402" stroke-miterlimit="10"/>
<path opacity="0.12" d="M912.52 34.6797L329.168 43.5334L45.1367 553.342L344.481 1054.32L927.845 1045.47L1211.86 535.657L912.52 34.6797Z" stroke="#DF4402" stroke-miterlimit="10"/>
<path opacity="0.17" d="M897.573 51.7324L336.456 65.0073L67.3828 557.763L359.426 1037.25L920.555 1023.99L1189.63 531.225L897.573 51.7324Z" stroke="#DF4402" stroke-miterlimit="10"/>
<path opacity="0.22" d="M882.626 68.7969L343.745 86.4814L89.6172 562.195L374.371 1020.2L913.264 1002.51L1167.39 526.803L882.626 68.7969Z" stroke="#DF4402" stroke-miterlimit="10"/>
<path opacity="0.26" d="M867.681 85.8496L351.035 107.967L111.854 566.616L389.33 1003.15L905.976 981.032L1145.15 522.382L867.681 85.8496Z" stroke="#DF4402" stroke-miterlimit="10"/>
<path opacity="0.31" d="M852.736 102.904L358.325 129.443L134.09 571.039L404.277 986.098L898.688 959.559L1122.91 517.963L852.736 102.904Z" stroke="#DF4402" stroke-miterlimit="10"/>
<path opacity="0.35" d="M837.778 119.957L365.614 150.916L156.336 575.46L419.222 969.044L891.386 938.074L1100.68 513.541L837.778 119.957Z" stroke="#DF4402" stroke-miterlimit="10"/>
<path opacity="0.4" d="M822.831 137.01L372.902 172.402L178.57 579.881L434.167 951.991L884.096 916.599L1078.43 509.12L822.831 137.01Z" stroke="#DF4402" stroke-miterlimit="10"/>
<path opacity="0.45" d="M807.886 154.062L380.193 193.876L200.807 584.313L449.126 934.927L876.808 895.125L1056.19 504.687L807.886 154.062Z" stroke="#DF4402" stroke-miterlimit="10"/>
<path opacity="0.49" d="M792.94 171.115L387.481 215.35L223.053 588.734L464.071 917.873L869.518 873.639L1033.96 500.266L792.94 171.115Z" stroke="#DF4402" stroke-miterlimit="10"/>
<path opacity="0.54" d="M777.995 188.18L394.772 236.835L245.289 593.156L479.018 900.821L862.23 852.165L1011.72 495.845L777.995 188.18Z" stroke="#DF4402" stroke-miterlimit="10"/>
<path opacity="0.59" d="M763.036 205.232L402.06 258.309L267.523 597.577L493.963 883.767L854.939 830.691L989.476 491.423L763.036 205.232Z" stroke="#DF4402" stroke-miterlimit="10"/>
<path opacity="0.63" d="M748.09 222.285L409.349 279.783L289.77 601.997L508.908 866.714L847.649 809.205L967.24 486.99L748.09 222.285Z" stroke="#DF4402" stroke-miterlimit="10"/>
<path opacity="0.68" d="M733.145 239.338L416.639 301.268L312.006 606.43L523.867 849.661L840.361 787.731L945.006 482.569L733.145 239.338Z" stroke="#DF4402" stroke-miterlimit="10"/>
<path opacity="0.72" d="M718.198 256.391L423.939 322.742L334.24 610.851L538.812 832.608L833.071 766.256L922.758 478.148L718.198 256.391Z" stroke="#DF4402" stroke-miterlimit="10"/>
<path opacity="0.77" d="M703.241 273.443L431.218 344.216L356.477 615.272L553.759 815.555L825.782 744.782L900.524 473.726L703.241 273.443Z" stroke="#DF4402" stroke-miterlimit="10"/>
<path opacity="0.82" d="M688.295 290.508L438.518 365.702L378.723 619.693L568.704 798.49L818.492 723.297L878.288 469.305L688.295 290.508Z" stroke="#DF4402" stroke-miterlimit="10"/>
<path opacity="0.86" d="M673.348 307.562L445.806 387.177L400.957 624.116L583.649 781.439L811.202 701.824L856.04 464.886L673.348 307.562Z" stroke="#DF4402" stroke-miterlimit="10"/>
<path opacity="0.91" d="M658.403 324.615L453.097 408.651L423.193 628.548L598.608 764.386L803.914 680.35L833.806 460.453L658.403 324.615Z" stroke="#DF4402" stroke-miterlimit="10"/>
<path opacity="0.95" d="M643.447 341.668L460.387 430.137L445.441 632.969L613.555 747.333L796.626 658.864L811.572 456.032L643.447 341.668Z" stroke="#DF4402" stroke-miterlimit="10"/>
<path d="M789.336 637.39V451.61L628.5 358.721L467.676 451.61V637.39L628.5 730.28L789.336 637.39Z" stroke="#DF4402" stroke-miterlimit="10"/>
</g>
<defs>
<clipPath id="clip0_2822_30311">
<rect width="1257" height="1089" fill="white"/>
</clipPath>
</defs>
</svg>
