<svg width="24" height="25" viewBox="0 0 24 25" fill="none" xmlns="http://www.w3.org/2000/svg">
<path d="M7.48047 19.329L10.5805 21.729C10.9805 22.129 11.8805 22.329 12.4805 22.329H16.2805C17.4805 22.329 18.7805 21.429 19.0805 20.229L21.4805 12.929C21.9805 11.529 21.0805 10.329 19.5805 10.329H15.5805C14.9805 10.329 14.4805 9.82897 14.5805 9.12897L15.0805 5.92897C15.2805 5.02897 14.6805 4.02897 13.7805 3.72897C12.9805 3.42897 11.9805 3.82897 11.5805 4.42897L7.48047 10.529" stroke="#DF4402" stroke-width="2" stroke-miterlimit="10"/>
<path d="M2.37988 19.3289V9.52891C2.37988 8.12891 2.97988 7.62891 4.37988 7.62891H5.37988C6.77988 7.62891 7.37988 8.12891 7.37988 9.52891V19.3289C7.37988 20.7289 6.77988 21.2289 5.37988 21.2289H4.37988C2.97988 21.2289 2.37988 20.7289 2.37988 19.3289Z" stroke="#DF4402" stroke-width="2" stroke-linecap="round" stroke-linejoin="round"/>
</svg>
