<svg width="77" height="22" viewBox="0 0 77 22" fill="none" xmlns="http://www.w3.org/2000/svg">
<path d="M0 0.436979H7.1775C7.83 0.436979 9.7875 0.220313 10.6575 3.25365C11.31 5.20365 12.18 8.23698 13.485 12.787H13.92C15.225 8.02031 16.3125 4.77031 16.7475 3.25365C17.6175 0.220313 19.7925 0.436979 20.6625 0.436979H27.405V21.237H20.445V8.88698H20.01L16.3125 21.237H11.0925L7.395 8.88698H6.7425V21.237H0M30.2325 0.436979H37.1925V12.787H37.845L42.4125 2.60365C43.2825 0.653646 45.24 0.436979 45.24 0.436979H51.765V21.237H44.805V8.88698H44.37L39.8025 19.0703C38.9325 21.0203 36.7575 21.237 36.7575 21.237H30.2325M61.1175 14.9536V21.237H54.5925V10.4036H75.9075C75.0375 13.0036 71.9925 14.9536 68.5125 14.9536" fill="#0F754E"/>
<path d="M76.3432 9.10417C77.2132 5.20417 74.6032 0.4375 68.9482 0.4375H54.1582C54.5932 4.9875 58.5082 9.10417 62.6407 9.10417" fill="url(#paint0_linear_2760_6103)"/>
<defs>
<linearGradient id="paint0_linear_2760_6103" x1="73.7332" y1="-2.37917" x2="56.3332" y2="-2.37917" gradientUnits="userSpaceOnUse">
<stop stop-color="#1F5CD7"/>
<stop offset="1" stop-color="#02AEFF"/>
</linearGradient>
</defs>
</svg>
