<svg width="24" height="25" viewBox="0 0 24 25" fill="none" xmlns="http://www.w3.org/2000/svg">
<path d="M18.0001 8.13852C17.9401 8.12852 17.8701 8.12852 17.8101 8.13852C16.4301 8.08852 15.3301 6.95852 15.3301 5.55852C15.3301 4.12852 16.4801 2.97852 17.9101 2.97852C19.3401 2.97852 20.4901 4.13852 20.4901 5.55852C20.4801 6.95852 19.3801 8.08852 18.0001 8.13852Z" stroke="#DF4402" stroke-width="2" stroke-linecap="round" stroke-linejoin="round"/>
<path d="M16.9704 15.4187C18.3404 15.6487 19.8504 15.4087 20.9104 14.6987C22.3204 13.7587 22.3204 12.2187 20.9104 11.2787C19.8404 10.5687 18.3104 10.3287 16.9404 10.5687" stroke="#DF4402" stroke-width="2" stroke-linecap="round" stroke-linejoin="round"/>
<path d="M5.97047 8.13852C6.03047 8.12852 6.10047 8.12852 6.16047 8.13852C7.54047 8.08852 8.64047 6.95852 8.64047 5.55852C8.64047 4.12852 7.49047 2.97852 6.06047 2.97852C4.63047 2.97852 3.48047 4.13852 3.48047 5.55852C3.49047 6.95852 4.59047 8.08852 5.97047 8.13852Z" stroke="#DF4402" stroke-width="2" stroke-linecap="round" stroke-linejoin="round"/>
<path d="M7.00043 15.4187C5.63043 15.6487 4.12043 15.4087 3.06043 14.6987C1.65043 13.7587 1.65043 12.2187 3.06043 11.2787C4.13043 10.5687 5.66043 10.3287 7.03043 10.5687" stroke="#DF4402" stroke-width="2" stroke-linecap="round" stroke-linejoin="round"/>
<path d="M12.0001 15.6092C11.9401 15.5992 11.8701 15.5992 11.8101 15.6092C10.4301 15.5592 9.33008 14.4292 9.33008 13.0292C9.33008 11.5992 10.4801 10.4492 11.9101 10.4492C13.3401 10.4492 14.4901 11.6092 14.4901 13.0292C14.4801 14.4292 13.3801 15.5692 12.0001 15.6092Z" stroke="#DF4402" stroke-width="2" stroke-linecap="round" stroke-linejoin="round"/>
<path d="M9.08973 18.7598C7.67973 19.6998 7.67973 21.2398 9.08973 22.1798C10.6897 23.2498 13.3097 23.2498 14.9097 22.1798C16.3197 21.2398 16.3197 19.6998 14.9097 18.7598C13.3197 17.6998 10.6897 17.6998 9.08973 18.7598Z" stroke="#DF4402" stroke-width="2" stroke-linecap="round" stroke-linejoin="round"/>
</svg>
