<svg width="24" height="25" viewBox="0 0 24 25" fill="none" xmlns="http://www.w3.org/2000/svg">
<path d="M13.7338 4.36126L15.4943 7.73129C15.7343 8.19084 16.3745 8.65038 16.908 8.72697L20.0955 9.23758C22.136 9.56947 22.6161 10.9737 21.1491 12.3778L18.6684 14.7522C18.255 15.1479 18.0149 15.9266 18.1483 16.4883L18.8552 19.437C19.4153 21.7603 18.1216 22.6666 15.9744 21.4539L12.9869 19.7562C12.4401 19.4498 11.5599 19.4498 11.0131 19.7562L8.0256 21.4539C5.87836 22.6666 4.58468 21.7603 5.14483 19.437L5.85172 16.4883C5.98509 15.9393 5.74501 15.1607 5.33157 14.7522L2.85093 12.3778C1.38387 10.9737 1.86397 9.55671 3.90451 9.23758L7.09204 8.72697C7.62552 8.63762 8.26568 8.19084 8.50575 7.73129L10.2662 4.36126C11.2131 2.53583 12.7869 2.53583 13.7338 4.36126Z" stroke="#DF4402" stroke-width="2" stroke-linecap="round" stroke-linejoin="round"/>
</svg>
