<?xml version="1.0" encoding="utf-8"?><svg xmlns="http://www.w3.org/2000/svg" xmlns:xlink="http://www.w3.org/1999/xlink"><symbol fill="none" viewBox="0 0 24 25" id="arrow" xmlns="http://www.w3.org/2000/svg"><path d="M3 12.479h18m0 0l-5.442 5.5m5.442-5.5l-5.442-5.5" stroke="currentColor" stroke-width="2"/></symbol><symbol fill="none" viewBox="0 0 24 25" id="crown" xmlns="http://www.w3.org/2000/svg"><path d="M2 16.268v-9.58c0-1.33.77-1.65 1.71-.71l2.59 2.59c.39.39 1.03.39 1.41 0l3.58-3.59a.996.996 0 011.41 0l3.59 3.59c.39.39 1.03.39 1.41 0l2.59-2.59c.94-.94 1.71-.62 1.71.71v9.59c0 3-2 5-5 5H7c-2.76-.01-5-2.25-5-5.01z" stroke="currentColor" stroke-width="2" stroke-linecap="round" stroke-linejoin="round"/></symbol><symbol fill="none" viewBox="0 0 24 25" id="emoji-happy" xmlns="http://www.w3.org/2000/svg"><path d="M9 22.979h6c5 0 7-2 7-7v-6c0-5-2-7-7-7H9c-5 0-7 2-7 7v6c0 5 2 7 7 7z" stroke="currentColor" stroke-width="2" stroke-linecap="round" stroke-linejoin="round"/><path d="M15.5 10.729a1.5 1.5 0 100-3 1.5 1.5 0 000 3zm-7 0a1.5 1.5 0 100-3 1.5 1.5 0 000 3zm-.1 3.551h7.2c.5 0 .9.4.9.9 0 2.49-2.01 4.5-4.5 4.5s-4.5-2.01-4.5-4.5c0-.5.4-.9.9-.9z" stroke="currentColor" stroke-width="2" stroke-miterlimit="10" stroke-linecap="round" stroke-linejoin="round"/></symbol><symbol fill="none" viewBox="0 0 24 25" id="heart" xmlns="http://www.w3.org/2000/svg"><path d="M12.62 21.788c-.34.12-.9.12-1.24 0-2.9-.99-9.38-5.12-9.38-12.12 0-3.09 2.49-5.59 5.56-5.59 1.82 0 3.43.88 4.44 2.24a5.53 5.53 0 014.44-2.24c3.07 0 5.56 2.5 5.56 5.59 0 7-6.48 11.13-9.38 12.12z" stroke="currentColor" stroke-width="2" stroke-linecap="round" stroke-linejoin="round"/></symbol><symbol fill="none" viewBox="0 0 24 25" id="like" xmlns="http://www.w3.org/2000/svg"><path d="M7.48 19.329l3.1 2.4c.4.4 1.3.6 1.9.6h3.8c1.2 0 2.5-.9 2.8-2.1l2.4-7.3c.5-1.4-.4-2.6-1.9-2.6h-4c-.6 0-1.1-.5-1-1.2l.5-3.2c.2-.9-.4-1.9-1.3-2.2-.8-.3-1.8.1-2.2.7l-4.1 6.1" stroke="currentColor" stroke-width="2" stroke-miterlimit="10"/><path d="M2.38 19.329v-9.8c0-1.4.6-1.9 2-1.9h1c1.4 0 2 .5 2 1.9v9.8c0 1.4-.6 1.9-2 1.9h-1c-1.4 0-2-.5-2-1.9z" stroke="currentColor" stroke-width="2" stroke-linecap="round" stroke-linejoin="round"/></symbol><symbol fill="none" viewBox="0 0 178 42" id="logo" xmlns="http://www.w3.org/2000/svg"><path d="M35.248 25.982c-1.542 4.054-5.383 7.237-9.412 8.903 0-.075 0-.15-.012-.237a3.264 3.264 0 00-.175-.708v-.025a3.7 3.7 0 00-.51-.883 3.325 3.325 0 00-.87-.758 2.793 2.793 0 00-1.02-.36c-.036 0-.086-.013-.136-.013-.012 0-.012-.013-.025-.013a2.842 2.842 0 00-1.206-.348c-.062 0-.124 0-.186-.012h-.063c-.062 0-.149 0-.273.012-.075.012-.15.012-.224.025l-.124.025c-.025 0-.037 0-.05.012l-.137.038c-.111.037-.223.062-.323.099-.1.037-.174.062-.211.087l-.013.012c-.037.013-.062.038-.1.05l-.086.05a1.83 1.83 0 00-.286.186c-.075.063-.15.112-.212.174l-.26-.024c-.026-.013-.038-.038-.063-.05l-.025-.012a2.134 2.134 0 00-.211-.137l-.15-.087c-.099-.05-.198-.087-.285-.125l-.025-.012c-.062-.025-.137-.05-.236-.087-.572-.174-1.181-.199-1.704-.05-.186.05-.348.125-.51.2h-.049c-.162.011-.311.036-.473.061-.31.075-.92.274-1.504.833l-.013.013c-.484.485-.783 1.044-.87 1.629-.037.05-.074.099-.124.174-3.755-1.617-6.752-4.949-8.206-8.754.696.784 1.865 1.293 3.183 1.293 1.268 0 2.4-.472 3.108-1.218a1.053 1.053 0 011.542 0c.709.734 1.84 1.218 3.108 1.218s2.4-.472 3.109-1.218a1.053 1.053 0 011.541 0c.709.734 1.84 1.218 3.109 1.218 1.268 0 2.4-.472 3.108-1.218a1.053 1.053 0 011.542 0c.708.734 1.84 1.218 3.108 1.218 1.306.05 3.208-.397 3.904-1.18zm4.117-4.525a.933.933 0 01.248.51c.025.15 0 .261 0 .261s.062-.074.125-.224c.062-.149.136-.373.149-.683.025-.485-.087-.846-.373-1.094h-2.126c.087.111.224.21.385.298.311.15.647.323.933.485.149.087.286.162.397.236.112.087.2.162.262.212zm-.225 1.963c.15.174.186.386.199.535.012.162-.025.261-.025.261s.062-.062.137-.211a2.08 2.08 0 00.224-.672 1.59 1.59 0 00-.05-.783.898.898 0 00-.174-.299 1.51 1.51 0 00-.299-.248c-.323-.2-.87-.423-1.355-.833-.124-.1-.249-.299-.348-.448-.087-.161-.15-.298-.15-.298s-.049.149-.099.348a2.4 2.4 0 00-.062.323c-.012.112-.025.224-.025.324a1.107 1.107 0 00.547.895c.286.186.61.385.883.572.137.1.261.186.373.273.087.112.174.2.224.261zm-1.527-.435c-.112-.112-.224-.323-.299-.485a6.636 6.636 0 01-.124-.31s-.075.149-.137.335a2.44 2.44 0 00-.087.323c-.025.112-.05.224-.05.324a.971.971 0 00.137.584l2.077.423a1.135 1.135 0 00-.25-.236c-.31-.224-.832-.498-1.267-.958zm1.105 2.362c.125.2.15.398.137.56a.675.675 0 01-.05.26s.025-.012.05-.049c.025-.025.075-.074.112-.149.087-.137.199-.336.286-.646.037-.112.05-.237.062-.336a1.197 1.197 0 000-.299.976.976 0 00-.211-.51l-2.077-.422c.075.137.174.248.311.373.547.41 1.206.932 1.38 1.218zm-.608 1.866c.099.211.111.41.086.572-.024.149-.074.248-.074.248s.025-.012.05-.037c.037-.025.074-.074.124-.137a2.3 2.3 0 00.348-.609c.062-.15.087-.286.112-.41a1.875 1.875 0 000-.373c-.037-.236-.15-.435-.36-.634-.274-.249-.76-.585-1.157-1.082-.1-.124-.186-.336-.249-.51-.062-.174-.087-.323-.087-.323s-.087.137-.174.323c-.05.087-.087.2-.124.311-.037.112-.075.211-.087.323-.025.174-.013.349.05.523.05.161.149.323.31.472.25.236.523.497.746.746.112.124.224.236.299.336.087.1.149.186.186.26zm-1.405-.734c-.088-.137-.15-.36-.187-.535-.037-.186-.062-.323-.062-.323s-.1.124-.2.299c-.049.086-.099.186-.16.285-.05.1-.1.212-.125.311-.025.1-.037.2-.037.299 0 .1.012.199.05.298l1.951.833c-.05-.1-.111-.186-.186-.273-.249-.274-.709-.647-1.044-1.194z" fill="currentColor"/><path d="M37.313 29.017a.915.915 0 01.025.573c-.013.074-.05.136-.062.174-.025.037-.038.062-.038.062s.025-.013.063-.038c.037-.024.087-.062.149-.111.112-.112.26-.299.41-.572.112-.212.174-.423.187-.61a1.048 1.048 0 00-.1-.547l-1.952-.833c.037.137.112.286.236.423.224.261.46.547.672.808.186.274.348.51.41.671zm-.983 1.718a.965.965 0 01-.025.572c-.062.149-.137.236-.137.236s.087-.038.212-.125c.124-.1.298-.26.46-.522.174-.26.26-.51.273-.746.013-.236-.062-.46-.224-.696-.211-.299-.634-.734-.92-1.306a1.28 1.28 0 01-.087-.26c-.025-.1-.037-.2-.05-.287-.024-.186-.024-.335-.024-.335s-.112.112-.237.286c-.111.174-.273.373-.335.572-.025.087-.05.174-.062.26 0 .038-.013.088-.013.125v.124c.013.174.087.348.212.523.198.286.41.596.584.882a2.6 2.6 0 01.373.697zm-1.23-1.01c-.063-.149-.063-.373-.075-.56v-.335s-.124.112-.261.261c-.062.075-.15.162-.211.249a1.118 1.118 0 00-.174.273c-.038.1-.075.187-.087.286-.025.1-.025.2-.025.299l1.74 1.218c-.025-.1-.074-.199-.124-.31-.087-.162-.224-.361-.373-.585a4.34 4.34 0 01-.41-.796z" fill="currentColor"/><path d="M35.186 32.339a.864.864 0 01-.087.559 1 1 0 01-.149.211s.087-.025.224-.112c.137-.074.323-.236.51-.472.31-.386.41-.746.31-1.119l-1.74-1.218c.012.149.062.298.15.472.347.622.72 1.33.782 1.679zm-1.306 1.475a.633.633 0 01-.037.31 1.043 1.043 0 01-.112.237c-.087.124-.174.199-.174.199s.087-.013.236-.088c.075-.037.162-.087.261-.149.1-.074.2-.161.299-.273.211-.224.36-.435.41-.672.05-.223.025-.46-.087-.72-.075-.175-.186-.374-.31-.622a3.877 3.877 0 01-.324-.833c-.025-.075-.025-.174-.025-.274 0-.1.013-.199.013-.298.012-.187.037-.336.037-.336s-.124.1-.286.236c-.162.137-.348.311-.448.485a1.52 1.52 0 00-.174.485c-.012.174.013.36.1.56a7.8 7.8 0 00.211.484l.187.485c.136.336.211.61.223.784zm-1.007-1.242c-.024-.161 0-.385.038-.56.037-.186.074-.323.074-.323s-.037.025-.087.05c-.05.037-.124.087-.211.15a1.893 1.893 0 00-.497.447 1.403 1.403 0 00-.15.261 1.077 1.077 0 00-.074.286l1.467 1.542c-.013-.1-.025-.212-.062-.336a20.04 20.04 0 00-.249-.646 4.216 4.216 0 01-.248-.87zm-.435 2.588c0 .236-.112.41-.199.535a1.06 1.06 0 01-.186.186s.087 0 .248-.062c.15-.05.373-.15.597-.36a2.11 2.11 0 00.423-.485 1.04 1.04 0 00.112-.547l-1.468-1.542c-.012.149 0 .31.05.485.025.087.05.161.075.248.025.087.05.174.074.249.05.174.1.336.137.497.087.336.15.622.137.796zm-1.568 1.18a.833.833 0 01-.261.51.913.913 0 01-.212.162s.088 0 .25-.038c.074-.024.173-.05.285-.099.05-.025.112-.05.174-.087.062-.037.124-.075.187-.124.248-.187.435-.361.534-.572.1-.212.125-.448.063-.734-.075-.36-.287-.907-.324-1.554-.012-.162.038-.386.1-.56a2.326 2.326 0 01.112-.31s-.038.012-.1.05c-.062.024-.137.074-.236.124-.187.1-.398.236-.535.398-.248.26-.373.584-.273 1.02.124.67.273 1.479.236 1.814zm-.746-1.418c0-.162.075-.373.15-.547.037-.087.074-.162.099-.212a.752.752 0 00.037-.087l-.1.038c-.062.024-.149.05-.248.099a2.23 2.23 0 00-.572.336 1.046 1.046 0 00-.336.497l1.12 1.803c.012-.1.012-.211 0-.336-.026-.186-.075-.423-.113-.684a4.359 4.359 0 01-.05-.422c.013-.162.013-.324.013-.485z" fill="currentColor"/><path d="M29.194 37.373a.87.87 0 01-.311.485c-.124.1-.224.15-.224.15s.087.012.249-.013c.074-.013.174-.037.286-.075.062-.012.112-.037.174-.062.037-.012.062-.025.1-.037.037-.013.061-.038.099-.05.211-.124.385-.249.51-.398a.944.944 0 00.223-.51l-1.119-1.803a1.22 1.22 0 00-.05.485c.063.66.137 1.492.063 1.828zm-.224-2.299s-.025.038-.05.087c-.025.05-.075.125-.112.2-.087.16-.186.36-.199.534a1.528 1.528 0 00-.025.236c0 .075-.012.15-.012.224v.423c.012.273.037.51.037.696 0 .15-.012.273-.05.385a.822.822 0 01-.161.311c-.124.15-.286.274-.497.398a2.35 2.35 0 00-.547-.224c.024-.037.037-.087.062-.137.062-.161.087-.447.112-.783.012-.336.024-.709.024-1.044 0-.112.013-.212.038-.299a.87.87 0 01.1-.248c.086-.15.198-.274.347-.386.038-.025.087-.062.137-.087l.15-.074c.099-.05.21-.087.31-.125.1-.025.187-.05.249-.074.05 0 .087-.013.087-.013zm-1.553.832l-.2.261c-.099.15-.21.349-.26.51-.162.622-.125 1.206-.15 1.58v.012h-.074l-.112-.013-.61-1.654c.1-.186.25-.31.424-.422.186-.1.422-.174.621-.212l.36-.062z" fill="currentColor"/><path d="M26.622 38.256l-.299-.024a1.55 1.55 0 00-.211-.15c-.112-.074-.236-.124-.348-.174.037-.273.062-.56.1-.833.024-.186.074-.335.148-.46l.61 1.641zm-.821-1.666s-.1.1-.224.248a2.016 2.016 0 00-.31.485c-.05.15-.1.299-.137.436h-.137l-.012-.025c.037-.063.074-.125.111-.2.025-.036.038-.086.063-.136.012-.037.037-.075.05-.112.074-.186.124-.398.16-.634v-.025c.026 0 .038 0 .063-.012.211-.025.373-.025.373-.025zm-5.772.868c-.025.012-.038.025-.038.037-.05-.012-.112-.037-.186-.05.05 0 .1.013.149.013.025-.013.05 0 .075 0zm-6.189.399v.025a2.095 2.095 0 00-.795.348.8.8 0 00-.162.125h-.012c-.05.037-.087.087-.137.149-.1-.025-.211-.025-.31-.025-.063 0-.125 0-.175.013-.074 0-.136.012-.211.024h-.013c-.037 0-.062.013-.099.025a2.338 2.338 0 01-.522-.348.588.588 0 01-.124-.137c-.025-.025-.038-.05-.038-.05s.025.013.062.038c.038.025.1.037.187.062a.96.96 0 00.572-.062c.161-.075.385-.236.634-.46.211-.187.448-.398.671-.61.013.05.025.113.038.15.012.037.024.074.037.124.012.037.025.062.05.112.1.187.211.36.348.497zm-.524-1.581v.237c-.162.037-.324.074-.435.136-.56.311-.958.746-1.256.983-.1.074-.187.136-.286.174l.932-1.903c.05-.012.1-.024.15-.024.05 0 .099-.013.149 0 .1 0 .199.024.298.05.15.049.311.136.46.223-.012.037-.012.087-.012.124z" fill="currentColor"/><path d="M10.306 37.135a.893.893 0 01-.572 0c-.149-.05-.236-.124-.236-.124s.037.087.137.211c.1.125.286.286.547.435.112.063.211.112.31.15.1.037.2.062.3.074.186.025.372 0 .546-.074l.933-1.903c-.15.038-.286.1-.436.212-.273.211-.571.435-.845.634-.274.186-.522.336-.684.385zm-1.654-1.07a.847.847 0 01-.572-.062c-.137-.062-.224-.137-.224-.137s.025.087.112.224l.075.112c.037.037.075.074.112.124a2.288 2.288 0 00.684.473c.124.05.236.074.36.087.236.024.46-.038.697-.187.31-.199.758-.597 1.342-.845.075-.038.162-.05.261-.075l.299-.037c.186-.013.335-.013.335-.013s-.111-.112-.273-.248c-.037-.038-.087-.063-.124-.1a.554.554 0 00-.137-.1 1.298 1.298 0 00-.286-.16c-.336-.125-.671-.15-1.045.086-.149.087-.298.187-.447.274-.15.1-.31.186-.448.26-.298.175-.56.287-.72.324zm1.07-1.181c.162-.05.373-.05.56-.05.186 0 .335.025.335.025s-.1-.124-.248-.273c-.15-.15-.324-.324-.51-.423a1.135 1.135 0 00-.286-.112 1.153 1.153 0 00-.298-.037l-1.294 1.69c.1-.024.212-.062.311-.111.324-.162.82-.51 1.43-.709z" fill="currentColor"/><path d="M7.098 34.85a.94.94 0 01-.77-.274 1.541 1.541 0 00.26.485c.075.087.174.186.286.285.36.324.721.448 1.094.373l1.306-1.678c-.15 0-.311.05-.473.124-.161.075-.323.15-.485.237-.161.074-.323.149-.472.211-.298.112-.572.211-.746.236zm-1.403-1.385a.816.816 0 01-.535-.174c-.124-.087-.186-.186-.186-.186s.012.087.074.236c.025.075.075.162.137.261.062.1.15.2.261.324.423.46.846.596 1.38.397.174-.062.386-.174.634-.273a4.66 4.66 0 01.858-.286c.162-.037.386-.013.56.012.186.025.323.05.323.05s-.087-.137-.224-.286c-.124-.161-.286-.36-.46-.472-.161-.1-.31-.174-.485-.2a1.13 1.13 0 00-.56.075c-.323.125-.67.249-.994.348-.336.112-.61.175-.783.175zm1.281-.941c.162-.013.386.024.56.074.087.025.174.038.223.062a.39.39 0 01.087.025s-.012-.037-.05-.087c-.037-.062-.074-.137-.136-.224-.112-.174-.261-.385-.423-.51a1.136 1.136 0 00-.534-.26l-1.604 1.38a1.1 1.1 0 00.335-.05c.174-.05.398-.137.66-.212.273-.074.571-.161.882-.198z" fill="currentColor"/><path d="M4.426 31.962a.702.702 0 01-.298-.087.708.708 0 01-.212-.149c-.112-.1-.174-.199-.174-.199s0 .087.05.249c.05.15.137.373.336.622.149.199.298.335.46.435.161.1.348.15.534.137l1.604-1.368a1.38 1.38 0 00-.497.025c-.66.174-1.455.36-1.803.335zm-1.105-1.625c-.223-.037-.385-.174-.497-.286a.668.668 0 01-.15-.211s-.012.087.026.248c.012.075.037.175.087.287.037.111.1.236.186.36.174.261.348.448.547.572.212.112.448.15.721.1.187-.025.41-.088.684-.15.137-.025.274-.05.423-.074.15-.025.31-.038.472-.038.162 0 .373.063.548.125.087.037.161.062.223.087.05.025.087.037.087.037s-.062-.15-.149-.336a2.09 2.09 0 00-.36-.547c-.249-.26-.56-.398-.995-.335-.696.111-1.517.223-1.853.161zm1.454-.673c.161.012.373.1.534.174.087.037.15.074.212.112.05.024.087.05.087.05s0-.013-.013-.026c0-.012-.012-.037-.024-.074-.025-.062-.05-.15-.087-.249a1.59 1.59 0 00-.137-.298c-.05-.1-.112-.2-.174-.274a1.122 1.122 0 00-.473-.36l-1.852 1.02c.1.024.211.024.335.012.187-.013.423-.05.697-.075.26-.025.56-.037.895-.012zm-2.388-1.057a.844.844 0 01-.46-.336.855.855 0 01-.136-.236s-.013.087 0 .249c.012.162.062.398.199.671.112.224.236.398.373.522.074.063.149.125.223.162.087.037.174.075.274.087l1.853-1.032c-.075-.025-.15-.05-.224-.062-.075-.013-.162-.013-.261-.013-.336.013-.71.038-1.045.038-.348.012-.646 0-.796-.05zm-.759-1.829a1.014 1.014 0 01-.436-.373.864.864 0 01-.111-.249s-.025.087-.025.249.025.398.124.696c.224.585.535.883 1.119.908.187.012.423 0 .696 0 .137 0 .274 0 .423.012.15.013.298.038.46.062.162.025.36.137.522.237.162.1.274.186.274.186s-.025-.162-.075-.36a2.168 2.168 0 00-.248-.61c-.187-.31-.485-.497-.908-.522-.336-.025-.721-.037-1.045-.074a4.595 4.595 0 01-.46-.063c-.124-.037-.236-.062-.31-.1zm1.556-.358c.161.05.348.174.497.285.15.112.249.212.249.212s-.013-.162-.038-.36a1.713 1.713 0 00-.074-.324c-.038-.112-.063-.224-.112-.31a1.155 1.155 0 00-.398-.448l-2.027.634c.1.037.212.074.324.087.373.05.97.037 1.579.223zm-2.129-1.53a.882.882 0 01-.386-.423c-.062-.136-.087-.248-.087-.248s-.037.087-.05.248c-.012.162-.012.398.063.697.062.236.149.435.26.584.113.15.25.274.424.348l2.026-.634a1.422 1.422 0 00-.46-.174c-.336-.05-.709-.112-1.032-.186-.161-.038-.31-.075-.447-.112a.913.913 0 01-.311-.1zm-.359-1.925a.912.912 0 01-.348-.46c-.025-.074-.038-.136-.05-.186-.013-.05-.013-.075-.013-.075s-.012.025-.025.062c-.012.038-.037.1-.05.174a2.157 2.157 0 00-.012.71l.038.223a.892.892 0 00.062.199c.05.124.1.236.174.323.074.087.161.174.26.236.1.063.225.112.362.15.36.087.957.136 1.541.397.15.063.324.2.46.336.137.124.237.236.237.236s.012-.161 0-.36c-.013-.1-.013-.212-.038-.323a1.363 1.363 0 00-.074-.324 1.156 1.156 0 00-.286-.435 1.115 1.115 0 00-.498-.261c-.671-.211-1.467-.435-1.74-.622zm1.578-.038c.137.075.31.236.423.373.124.137.211.261.211.261s.025-.161.037-.36v-.336c0-.112-.012-.224-.037-.323a1.107 1.107 0 00-.298-.523l-2.114.212c.087.062.187.112.298.15.349.123.933.235 1.48.546zM.522 20.998a.942.942 0 01-.298-.485c-.037-.15-.037-.261-.037-.261s-.05.075-.1.224c-.05.149-.087.385-.087.696 0 .124.025.236.037.336.025.1.05.199.087.286.075.174.187.31.348.422l2.114-.21a1.3 1.3 0 00-.41-.262c-.622-.236-1.405-.535-1.654-.746zm.012-1.979a.927.927 0 01-.248-.51c-.025-.15 0-.261 0-.261s-.063.075-.125.224a1.928 1.928 0 00-.149.684c-.012.31.025.572.137.783.05.1.124.199.211.286.087.087.2.15.323.211.336.162.908.324 1.43.697.137.087.286.26.386.422.112.15.186.274.186.274s.038-.162.062-.36c.013-.1.025-.212.025-.336a1.016 1.016 0 00-.012-.336 1.034 1.034 0 00-.2-.485 1.167 1.167 0 00-.434-.36c-.311-.15-.647-.324-.933-.486-.149-.087-.286-.161-.398-.236a1.723 1.723 0 01-.26-.211zm1.568.286c.124.1.248.298.348.46.087.161.149.298.149.298s.05-.15.1-.348c.024-.1.05-.211.062-.323.012-.112.025-.224.025-.323a1.157 1.157 0 00-.187-.572l-2.114-.212c.075.075.162.15.274.212.31.174.858.397 1.343.808zM.76 17.07a.923.923 0 01-.199-.535c-.012-.162.025-.262.025-.262s-.062.063-.137.2a2.07 2.07 0 00-.223.67c-.075.486 0 .846.26 1.132l2.114.212a1.284 1.284 0 00-.348-.336c-.286-.187-.609-.386-.882-.572-.137-.1-.262-.187-.373-.274a2.092 2.092 0 01-.237-.236zm.42-1.927a.908.908 0 01-.136-.56.65.65 0 01.025-.186c.012-.05.024-.075.024-.075s-.024.013-.05.05c-.024.025-.074.075-.111.15a2.498 2.498 0 00-.336.87c-.012.074-.012.136-.025.199 0 .136.013.248.038.36a.724.724 0 00.149.31c.074.1.161.187.273.274.299.224.82.51 1.256.97.112.112.224.323.299.485.074.174.124.311.124.311s.074-.15.137-.336c.037-.1.062-.211.087-.323.024-.112.05-.224.05-.323 0-.187-.026-.348-.1-.51a1.15 1.15 0 00-.348-.435c-.522-.423-1.181-.945-1.355-1.231zm1.482.582c.1.124.187.336.249.51s.087.31.087.31.087-.136.174-.323c.05-.087.087-.199.124-.31.038-.112.075-.212.087-.324.025-.211.013-.41-.074-.596l-2.027-.635c.05.088.137.175.224.261.274.274.758.61 1.156 1.107z" fill="currentColor"/><path d="M1.79 13.26a.981.981 0 01-.086-.572c.025-.15.074-.248.074-.248s-.024.012-.05.037c-.037.025-.074.074-.124.136-.1.125-.236.324-.348.61-.025.062-.037.112-.062.161l-.037.162c-.025.1-.025.211-.025.298 0 .187.05.361.149.523L3.308 15a1.144 1.144 0 00-.274-.398 14.12 14.12 0 01-.746-.746c-.112-.124-.224-.236-.298-.336a.856.856 0 01-.2-.26zm.797-1.79a.915.915 0 01-.025-.572c.012-.074.05-.136.062-.174.025-.037.037-.062.037-.062s-.024.012-.062.037a2.31 2.31 0 00-.149.112 2.529 2.529 0 00-.41.572c-.038.075-.062.137-.1.2-.025.061-.05.136-.062.198a1.897 1.897 0 00-.037.373c.012.236.1.448.286.671.248.287.696.66 1.044 1.207.087.136.15.36.187.534.037.187.062.323.062.323s.1-.124.199-.298c.05-.087.1-.186.161-.286.05-.1.1-.211.125-.31.037-.175.05-.349.012-.523a1.02 1.02 0 00-.26-.497c-.225-.261-.46-.547-.672-.809-.174-.31-.324-.546-.398-.696zm1.329.874c.037.075.062.162.087.261.025.1.037.2.05.286.025.187.025.336.025.336s.111-.112.236-.286c.112-.174.273-.373.336-.572.062-.199.087-.398.05-.597L2.846 10.74c.037.1.087.2.161.299.212.31.622.733.908 1.305zM3.57 9.76a.964.964 0 01.025-.573c.062-.149.136-.236.136-.236s-.087.037-.21.125c-.125.099-.3.26-.46.522-.063.1-.125.199-.163.298-.037.1-.074.199-.087.286a.914.914 0 00.05.547l1.853 1.032a1.018 1.018 0 00-.2-.447c-.198-.287-.41-.597-.584-.883a2.803 2.803 0 01-.36-.672zm1.142-1.604a.864.864 0 01.087-.56 1 1 0 01.15-.211s-.088.025-.225.112c-.136.074-.323.236-.51.472a2.055 2.055 0 00-.236.36c-.05.125-.087.237-.112.349-.037.236.013.46.15.709.087.161.223.36.373.584.149.236.298.497.41.796.062.149.062.373.075.56v.335s.124-.112.26-.261c.063-.075.15-.162.212-.249.075-.087.137-.186.174-.273.037-.088.062-.162.087-.25a.862.862 0 00.037-.248c0-.174-.05-.348-.149-.547-.348-.622-.72-1.343-.783-1.678zm1.133 1.13c.025.074.025.174.025.273 0 .1-.013.2-.013.286a3.823 3.823 0 01-.037.336s.124-.1.286-.236c.162-.137.348-.311.448-.485.1-.187.174-.36.174-.572L5.11 7.508c.013.1.05.211.1.323.074.174.186.373.31.622.113.236.237.522.324.833zm.885-.399l-1.617-1.38a.919.919 0 01.062-.547 1.89 1.89 0 01.36-.523l.1-.1c.137.2.286.386.423.573.037.149.1.336.161.534l.187.485c.062.162.137.336.211.485.075.162.112.324.112.473zm.658-.411c-.063.05-.112.087-.175.124-.087.062-.161.112-.21.15-.063.037-.088.062-.088.062s.037-.137.075-.324a1.8 1.8 0 00.05-.373c.111.112.223.236.348.36zm5.69-6.776s-.111.037-.236.124a.942.942 0 00-.348.448c-.012.037-.025.074-.037.124-.299-.062-.61-.112-.896-.149l.05-.05c.137-.136.311-.248.547-.348a2.37 2.37 0 01.684-.161c.15 0 .236.012.236.012zm1.916-.598s-.112.025-.25.1a.908.908 0 00-.397.41 1.304 1.304 0 00-.1.31c-.024.137-.062.286-.086.448-.025.174-.05.348-.075.535a8.322 8.322 0 00-1.02-.36c0-.125.013-.225.013-.324.012-.15.037-.274.087-.386a.949.949 0 01.186-.285c.162-.175.386-.299.684-.398.299-.087.535-.1.697-.087.173.012.26.037.26.037zm.585 2.251a1.327 1.327 0 01-.224.236c-.013-.012-.037-.025-.05-.037a9.075 9.075 0 00-.671-.398c.211-.597.236-1.181.31-1.542a1.99 1.99 0 01.1-.323l.137.535.398 1.529zm.681-2.21a.99.99 0 01.436-.373c.074-.024.137-.05.186-.062.05-.012.075-.012.075-.012s-.025-.013-.062-.025a1.32 1.32 0 00-.174-.037 2.014 2.014 0 00-.709.025c-.236.05-.435.124-.597.223a.889.889 0 00-.36.41l.534 2.052a1.13 1.13 0 00.187-.447c.137-.647.31-1.468.485-1.754zm1.955-.274a.927.927 0 01.473-.324.614.614 0 01.186-.037h.075s-.025-.012-.062-.025c-.038-.012-.1-.037-.174-.062a2.196 2.196 0 00-.697-.05.704.704 0 00-.223.038c-.075.012-.137.037-.2.05a1.4 1.4 0 00-.335.161 1.123 1.123 0 00-.41.597c-.112.36-.187.945-.473 1.517a1.99 1.99 0 01-.348.447c-.137.125-.249.224-.249.224s.162.013.36.013c.1 0 .225-.013.337-.025.111-.013.223-.025.323-.063.174-.062.323-.136.448-.26a1.1 1.1 0 00.285-.486c.224-.658.485-1.442.684-1.715zm-.038 1.593a1.766 1.766 0 01-.397.41c-.15.112-.261.2-.261.2s.161.037.36.05c.1.012.211.012.336.012.112 0 .224 0 .323-.025a1.22 1.22 0 00.535-.274L18.96.71a1.146 1.146 0 00-.162.298c-.149.336-.286.92-.622 1.455z" fill="currentColor"/><path d="M20.182.792A.874.874 0 0120.68.52c.15-.025.262-.025.262-.025s-.075-.05-.224-.112a2.506 2.506 0 00-.697-.124c-.485 0-.845.124-1.069.435l.112 2.126c.112-.1.199-.224.274-.398.286-.621.621-1.38.845-1.629zm1.975.126a.941.941 0 01.783-.211s-.062-.062-.211-.125a2.097 2.097 0 00-.684-.186c-.311-.025-.572 0-.784.087-.111.05-.198.112-.285.186a1.566 1.566 0 00-.237.311c-.174.324-.373.883-.758 1.393-.1.124-.286.26-.435.36-.15.1-.286.162-.286.162s.149.05.36.087c.1.025.212.037.324.05.111.012.223.025.335.012a1.08 1.08 0 00.485-.174c.15-.1.274-.224.386-.423.161-.298.348-.621.522-.907.087-.137.174-.274.248-.386.1-.087.162-.174.237-.236zm-.36 1.552c-.112.125-.31.237-.472.324-.162.087-.299.137-.299.137s.15.062.349.124c.099.025.21.062.323.075.112.025.224.037.323.037.211 0 .398-.05.572-.161l.323-2.102a2.65 2.65 0 00-.224.261c-.21.299-.46.833-.895 1.306z" fill="currentColor"/><path d="M24.096 1.24a.912.912 0 01.547-.174c.075 0 .15.012.187.012.05.013.074.013.074.013l-.05-.05a2.27 2.27 0 01-.148-.112 2.168 2.168 0 00-.66-.26A1.918 1.918 0 0023.4.642a1.086 1.086 0 00-.497.237l-.311 2.126c.124-.075.248-.187.348-.336.199-.274.41-.584.622-.846.211-.273.397-.484.534-.584zm2.722.462s-.025-.013-.074-.025a2.452 2.452 0 00-.187-.037.98.98 0 00-.56.112c-.149.087-.36.273-.584.522-.224.236-.46.497-.671.746-.013.012-.025.025-.025.037a1.41 1.41 0 01-.46.336 1.07 1.07 0 01-.398.074h-.112a1.713 1.713 0 01-.323-.074 4.29 4.29 0 01-.311-.112c-.186-.075-.336-.162-.336-.162s.137-.037.311-.112a1.59 1.59 0 00.497-.273c.485-.41.784-.92 1.032-1.206.187-.224.386-.348.61-.398.112-.025.236-.025.373-.012.124.012.273.037.422.087.299.099.498.223.622.323.125.1.174.174.174.174zm-.074.196l-.249.672c-.186.025-.36.062-.547.1.212-.224.386-.423.535-.56a.974.974 0 01.261-.212zm1.916.598s-.024-.012-.061-.037a.905.905 0 00-.1-.037c-.025-.013-.05-.013-.087-.025a.914.914 0 00-.535.05c-.435.025-.907.05-1.367.124l.248-.671c.175-.087.349-.137.535-.125.1 0 .199.013.299.038.05.012.099.024.161.05.05.024.112.037.162.062.286.124.472.273.597.385.05.05.087.087.111.124l.013.013.025.05zm6.29 4.874s-.061-.087-.186-.187a.816.816 0 00-.535-.174c-.173 0-.46.075-.77.174-.286.087-.597.2-.883.311.373-.435.709-.92 1.007-1.43.137 0 .274.038.41.1.175.087.336.211.51.398.112.112.187.224.261.323.063.1.112.187.137.261.037.137.05.224.05.224zm1.217 1.58s-.063-.1-.175-.2c-.062-.05-.124-.1-.21-.149a1.023 1.023 0 00-.312-.087c-.348-.025-1.144.162-1.803.336-.435.112-.745 0-1.032-.224-.161-.124-.31-.336-.422-.51-.038-.062-.062-.112-.1-.161l.1-.1c.037.013.087.025.136.037.175.05.398.088.56.075a5.01 5.01 0 00.87-.199c.261-.074.485-.161.66-.211.273-.075.51-.062.733.025.224.087.41.26.597.51.199.236.286.472.335.621.063.15.063.236.063.236zm-2.062.383a1.74 1.74 0 01-.547-.124c-.087-.037-.162-.062-.224-.087a.698.698 0 00-.087-.037s.062.149.15.335c.086.187.223.41.36.547.149.15.31.262.51.311l1.74-1.218c-.1-.013-.211 0-.335.012-.187.025-.41.087-.684.15-.137.024-.274.05-.423.074-.15.025-.298.037-.46.037zm2.474.823c.224.037.385.174.497.286.112.112.15.211.15.211s.012-.087-.025-.248a1.188 1.188 0 00-.087-.286 1.43 1.43 0 00-.187-.36c-.261-.411-.547-.647-.932-.685l-1.741 1.219c.15.037.31.05.497.025.672-.112 1.492-.224 1.828-.162zm.944 1.728a.844.844 0 01.46.336c.1.124.137.236.137.236s.012-.087 0-.249a1.843 1.843 0 00-.2-.671c-.136-.274-.297-.485-.484-.622a.941.941 0 00-.323-.137c-.125-.024-.249-.037-.386-.024-.186.012-.422.05-.696.074a5.304 5.304 0 01-.895.013c-.162-.013-.373-.1-.535-.175a1.63 1.63 0 01-.211-.111c-.05-.025-.087-.05-.087-.05s0 .012.012.025c0 .012.013.037.025.074.025.063.05.15.087.249.037.1.075.199.137.298.05.1.112.2.174.274.112.137.236.249.398.323.161.075.348.112.56.1.335-.013.708-.038 1.044-.025.323 0 .621.012.783.062zm-1.518.526c-.162-.026-.36-.138-.523-.237-.161-.1-.273-.187-.273-.187s.025.162.075.36c.05.2.136.436.248.61.112.174.249.311.435.41l1.953-.833a1.36 1.36 0 00-.336-.05c-.187-.012-.423 0-.697 0-.136 0-.273 0-.422-.012a7.41 7.41 0 01-.46-.062zm2.265 1.302c.211.088.348.25.435.373.087.137.112.25.112.25s.025-.088.025-.25c0-.161-.025-.397-.124-.696a1.744 1.744 0 00-.324-.56.958.958 0 00-.46-.298l-1.952.833c.137.063.286.112.473.125.336.024.721.037 1.044.074.162.013.324.037.46.062.125.025.237.05.311.087zm.57 1.892a.883.883 0 01.386.422c.063.137.087.249.087.249s.038-.087.05-.249a2.15 2.15 0 00-.062-.696 1.591 1.591 0 00-.36-.709 1.22 1.22 0 00-.287-.211 1.641 1.641 0 00-.373-.112c-.373-.05-.957-.05-1.566-.236-.162-.05-.348-.174-.498-.286-.149-.112-.248-.211-.248-.211s.012.161.037.36c.013.1.037.211.075.323.037.112.062.224.111.311.088.162.187.299.324.398l.112.075c.037.024.074.037.124.062.087.037.187.062.286.074.336.05.709.112 1.032.187.162.037.31.075.448.112.136.05.248.087.323.136zm-1.578.198c-.149-.062-.323-.211-.46-.335-.136-.125-.236-.237-.236-.237s-.012.162 0 .361c.012.1.012.211.037.323.013.112.038.224.075.324.075.198.187.36.348.485l2.076-.423a1.95 1.95 0 00-.323-.125c-.336-.074-.932-.124-1.517-.373zm1.953 1.725a.9.9 0 01.348.46c.025.075.038.137.05.187.013.05.013.074.013.074s.012-.025.024-.062c.013-.037.038-.1.05-.174.037-.162.05-.398.012-.709-.012-.124-.05-.236-.074-.335a1.396 1.396 0 00-.124-.274 1.042 1.042 0 00-.386-.385l-2.076.422c.112.1.26.162.435.212.646.174 1.455.398 1.728.584zm.175 1.965c.174.15.261.336.298.485.038.15.038.261.038.261s.05-.074.1-.224c.049-.149.086-.385.086-.696 0-.075-.012-.15-.025-.224-.012-.074-.025-.136-.037-.199a1.376 1.376 0 00-.15-.335 1.02 1.02 0 00-.584-.435c-.348-.125-.932-.237-1.492-.547a1.693 1.693 0 01-.422-.373c-.124-.137-.212-.262-.212-.262s-.024.162-.037.36v.337a1.11 1.11 0 00.758 1.094c.647.236 1.418.534 1.68.758zm-1.594-.124c-.137-.087-.286-.273-.385-.423-.112-.149-.187-.273-.187-.273s-.037.162-.062.36c-.012.1-.025.212-.025.336-.012.112-.012.224.013.336.037.211.111.385.248.547h2.114a1.594 1.594 0 00-.286-.174c-.336-.174-.908-.348-1.43-.709zM10.58 39.646a.855.855 0 01.41-.323c.137-.05.224-.05.224-.05s-.012-.012-.05-.025c-.037-.012-.087-.037-.161-.05a1.705 1.705 0 00-.61-.05c-.273.013-.497.075-.67.2-.187.111-.324.298-.424.56-.136.335-.286.907-.683 1.429-.1.137-.286.261-.46.36-.162.1-.311.162-.311.162s.161.05.385.087c.224.038.497.075.721.038.398-.063.709-.25.883-.66.299-.646.572-1.404.746-1.678zm-.062 1.592c-.099.137-.286.274-.447.386-.087.05-.162.1-.212.124-.062.037-.087.05-.087.05s.038.012.112.025c.075.012.174.037.286.05.224.024.51.049.734 0 .236-.05.423-.137.584-.287l-.223-2.113c-.05.087-.1.186-.137.298-.125.348-.236.92-.61 1.467z" fill="currentColor"/><path d="M12.336 39.437a.839.839 0 01.336-.373c.049-.025.099-.05.136-.062.025-.013.05-.013.05-.013s-.013-.012-.038-.024a.846.846 0 00-.149-.038 1.147 1.147 0 00-.236-.025c-.05 0-.087 0-.15.013a.924.924 0 00-.173.025c-.386.074-.672.211-.858.534l.224 2.114a1.13 1.13 0 00.273-.423c.062-.161.112-.335.174-.497.05-.174.112-.336.15-.498.099-.323.186-.596.26-.733zm1.454-.535a.833.833 0 01.198-.46c.037-.05.087-.087.112-.112.025-.025.05-.037.05-.037s-.087 0-.212.025c-.136.025-.31.074-.51.186-.049.025-.099.05-.136.087a.68.68 0 00-.112.087.601.601 0 00-.162.2.818.818 0 00-.1.26l-.036.162-.038.187c-.024.174-.05.41-.1.671a3.069 3.069 0 01-.111.423c-.05.136-.112.286-.199.422-.087.15-.261.311-.423.436-.161.111-.298.199-.298.199s.174.024.41.05c.125 0 .261 0 .386-.013.062 0 .136-.013.199-.025a1.572 1.572 0 00.734-.36 1.01 1.01 0 00.31-.572c.112-.697.012-1.505.037-1.816zm.61 1.466a1.272 1.272 0 01-.113.273c-.062.1-.124.187-.199.274-.149.162-.298.298-.298.298h.037c.025 0 .063-.012.1-.012.037-.013.1-.013.149-.025.025-.012.062-.012.087-.025.025-.012.062-.012.1-.025.124-.037.273-.087.41-.149a1.425 1.425 0 00.36-.211c.05-.038.1-.075.15-.125a.598.598 0 00.111-.136.868.868 0 00.162-.299l-1.206-1.753c0 .1.012.211.025.323.025.174.087.41.124.672.013.137.025.273.025.422a1.33 1.33 0 01-.025.498z" fill="currentColor"/><path d="M15.191 37.908a.79.79 0 01.162-.498c.087-.111.162-.174.162-.174s-.088 0-.224.05c-.062.025-.15.062-.236.112-.088.05-.187.112-.299.199-.323.261-.485.51-.497.883l1.206 1.753c.05-.15.074-.323.05-.51-.1-.709-.311-1.48-.324-1.815zm1.382-1.182c-.012-.448.311-.697.311-.697s-.087.013-.224.063a1.905 1.905 0 00-.534.348c-.423.373-.56.733-.41 1.268.1.348.335.895.335 1.554 0 .162-.074.398-.161.572-.038.087-.087.174-.112.236-.037.062-.05.087-.05.087s.05-.012.112-.037c.075-.025.162-.075.273-.124.212-.1.46-.262.622-.423.286-.299.41-.647.299-1.07-.2-.67-.448-1.442-.46-1.777zm.91 1.305c.012.162-.05.386-.112.572a3.684 3.684 0 01-.125.323s.162-.074.348-.186c.2-.112.423-.274.572-.435.15-.175.249-.361.274-.56l-1.418-1.579c.013.1.025.211.063.323.111.36.36.896.398 1.542z" fill="currentColor"/><path d="M18.44 37.758l-1.417-1.58v-.186c.025.013.05.013.063.013.05.012.112.024.199 0a.27.27 0 01.037.062c.037.05.1.137.162.236.198.274.397.473.584.597.074.05.174.1.26.137.026.074.05.149.063.223a.878.878 0 01.05.498zm.446-.201c.012 0 .012 0 0 0a2.92 2.92 0 01-.237.137s.063-.137.112-.311c.038.05.087.1.125.174zm1.044-4.002s-.026.012-.075.05a.219.219 0 00-.062.05c-.038-.026-.075-.038-.112-.05.161-.05.248-.05.248-.05zm.186.295a.377.377 0 00-.087-.061c0-.025 0-.038.013-.062l.074.124zm2.463-.865c-.013 0-.05-.012-.112-.025a1.096 1.096 0 00-.299-.012.954.954 0 00-.186.025c-.062.012-.124.037-.187.062a.793.793 0 00-.174.1c-.025.012-.05.037-.087.062l-.074.074c-.15.15-.261.448-.299.783-.025.174-.025.336-.025.523 0 .1.013.199.013.298-.1-.05-.2-.087-.311-.112a.419.419 0 00-.075-.149c-.112-.224-.286-.423-.497-.622-.05-.037-.1-.087-.137-.124l-.074-.124c.012-.1.05-.187.1-.274a.923.923 0 01.198-.249c.037-.037.087-.074.137-.111a.79.79 0 01.174-.1c.037-.012.062-.037.1-.05.037-.012.062-.037.111-.05.075-.024.162-.062.261-.086l.038-.013c.012 0 .037-.012.05-.012.037 0 .062-.013.099-.013.062-.012.124-.012.174-.025.062-.012.112 0 .162 0h.136c.187.013.336.05.448.087a.892.892 0 01.261.112c.037 0 .062.025.075.025z" fill="currentColor"/><path d="M24.654 35.048c0 .062-.012.087-.012.087s-.013-.038-.025-.1c-.025-.062-.05-.149-.112-.248-.112-.187-.311-.41-.572-.498-.2-.062-.522-.062-.846.05-.323.112-.634.323-.82.572a3.657 3.657 0 00-.261.373.774.774 0 01-.112.15 2.848 2.848 0 00-.274-.274c-.025-.025-.062-.05-.087-.075.037-.087.062-.174.075-.249.012-.037.012-.074.025-.112.012-.037.012-.062.024-.099.013-.075.038-.137.063-.211.05-.137.1-.274.149-.398.05-.125.112-.236.174-.348.062-.1.124-.2.187-.274.198-.236.497-.348.857-.31a1.5 1.5 0 01.572.198c.2.112.386.274.547.485.162.199.262.398.336.572.062.174.1.31.112.435a.953.953 0 010 .274z" fill="currentColor"/><path d="M22.566 35.096c-.037.013-.062.025-.1.025a.86.86 0 00-.099.037.622.622 0 00-.087.038l-.074.037c-.05.025-.075.062-.1.075l-.037.037v.112c0 .025-.012.05 0 .074 0 .025.012.038.037.063.05.037.15.074.299.124l2.051-.522a1.376 1.376 0 00-.335-.15c-.187-.05-.436-.062-.71-.05a2.463 2.463 0 00-.845.1z" fill="currentColor"/><path d="M24.396 36.714a.7.7 0 01.125.336c0 .025.012.062.012.087v.1c-.012.061-.012.136-.025.198-.012.025-.012.062-.025.087-.012.025-.012.05-.024.075-.013.05-.038.087-.05.112-.025.062-.05.1-.05.1s.025-.013.062-.063c.038-.05.1-.1.174-.211.038-.05.075-.125.112-.2.025-.037.037-.074.062-.111.013-.037.025-.062.038-.1.05-.136.1-.31.124-.522.075-.646-.112-1.156-.485-1.405l-2.052.522c.112.038.25.075.423.112.323.063.672.2.958.373.286.15.522.349.621.51z" fill="currentColor"/><path d="M23.139 38.767a.958.958 0 01-.1.336.897.897 0 01-.174.236.75.75 0 01-.174.137c-.05.025-.074.05-.074.05s.025 0 .074-.013c.05-.012.125-.012.212-.05.087-.025.199-.074.323-.136.062-.038.124-.075.199-.125.062-.05.137-.1.211-.174.075-.062.137-.137.2-.199a2.445 2.445 0 00.223-.311.44.44 0 00.05-.111.865.865 0 00.074-.212c.038-.15.05-.298.025-.435a.982.982 0 00-.161-.41 1.782 1.782 0 00-.212-.261c-.087-.087-.174-.175-.286-.262a16.27 16.27 0 00-.683-.534c-.125-.087-.237-.236-.349-.324-.1-.099-.174-.149-.174-.149s-.012.025-.025.063c-.012.037-.037.086-.05.149-.037.112-.086.248-.086.373 0 .025 0 .062.012.087v.037l.012.012.038.038c.012.025.025.037.037.062.013.025.037.05.05.075.012.024.037.062.05.099.037.075.099.15.149.236.087.137.186.286.26.448.076.161.138.323.2.472.05.162.087.311.112.448.037.137.05.261.037.348z" fill="currentColor"/><path d="M22.232 37.46c-.012-.075-.012-.162-.025-.25v-.236c0-.074-.012-.136-.012-.174 0-.024-.013-.037-.013-.05v-.012l-.05.025c-.024.013-.037.025-.062.037-.024.013-.05.025-.074.05-.062.038-.125.075-.187.124a.543.543 0 00-.087.075c-.037.025-.062.05-.087.075a.772.772 0 00-.124.186c-.037.075-.062.15-.087.236l1.094 1.816c.025-.112.025-.224.025-.348-.013-.187-.075-.423-.124-.697-.025-.136-.063-.273-.088-.422-.037-.137-.062-.286-.099-.436zm-1.008 2.362a.923.923 0 01-.211.261.934.934 0 01-.262.15.63.63 0 01-.21.062c-.05.012-.088.012-.088.012s.025.012.075.025c.05.012.112.025.211.037.187.013.473 0 .82-.112.548-.186.871-.497.958-.895l-1.094-1.815a1.803 1.803 0 00-.025.46c.037.336.037.709.012 1.044-.037.311-.111.61-.186.771zm-2.164.21a.914.914 0 01-.547.237c-.162.012-.286-.013-.286-.013s.012.013.05.037c.037.025.099.063.173.1.162.075.398.15.734.174.162.012.323 0 .46-.025.15-.025.298-.075.41-.137a.842.842 0 00.299-.248c.037-.05.074-.1.112-.162a.55.55 0 00.074-.199c.062-.186.1-.423.15-.684.024-.137.05-.273.074-.422a1.05 1.05 0 01.05-.212c.012-.075.037-.15.05-.224a.912.912 0 01.087-.236c.037-.087.074-.162.111-.236.038-.062.075-.137.1-.174a.35.35 0 00.037-.075s-.037 0-.087.013a.86.86 0 01-.199.025.44.44 0 00-.124.024c-.038.013-.087.013-.125.025-.037.013-.087.025-.124.038l-.112.037c-.025.012-.062.037-.087.05-.025.024-.05.037-.087.062a.846.846 0 00-.149.149 1.519 1.519 0 00-.236.472 7.61 7.61 0 01-.174.485c-.075.162-.15.324-.224.473-.112.286-.274.534-.41.646zm.894-2.088l-.012.013c-.013.012-.025.024-.05.037-.038.025-.087.075-.15.124-.05.05-.136.112-.21.162a1.322 1.322 0 00-.187.186c-.386.498-.634 1.032-.846 1.343-.074.1-.149.187-.224.249l.237-1.53c.174-.21.273-.447.323-.683.087-.025.186-.05.273-.05.187-.013.41.037.572.075.075.012.137.037.187.05.05.024.087.024.087.024z" fill="currentColor"/><path d="M18.517 38.53l-.237 1.529c-.298.248-.708.298-1.23.136a3.862 3.862 0 01-.299-.111c.1-.075.186-.15.261-.224a1.6 1.6 0 00.274-.386c.074-.062.149-.136.223-.211.075-.037.174-.087.299-.162.298-.174.522-.348.671-.522a.169.169 0 00.038-.05zm-3.15-1.766c-.012.025-.025.063-.037.087-.05.013-.1.025-.162.05-.1.037-.199.075-.298.137-.125.062-.249.15-.348.236a2.55 2.55 0 00-.336.311 1.33 1.33 0 01-.286-.423c-.013-.037-.025-.062-.037-.1-.013-.024-.025-.061-.038-.099a1.056 1.056 0 01-.05-.211c-.012-.075-.024-.15-.024-.224 0-.074-.013-.161 0-.248.012-.436.149-.747.248-.933.05-.1.1-.162.137-.199.025-.037.05-.062.05-.062 0 .012-.013.037-.037.1a1.057 1.057 0 00-.05.248c-.025.199.012.473.161.684.112.15.361.336.66.485.161.074.298.124.447.161zm.921-.934c-.15.088-.299.187-.435.312-.062.062-.125.112-.174.174a10.436 10.436 0 01-.547-.373c-.112-.075-.212-.162-.299-.236a2.062 2.062 0 01-.236-.224.968.968 0 01-.249-.796c.038-.31.212-.659.547-.982.348-.336.697-.485.945-.535.125-.025.212-.037.286-.037h.1l-.112.037a1.82 1.82 0 00-.261.137c-.2.137-.398.36-.435.622-.038.198.012.51.136.82.125.311.336.622.56.858.05.075.112.15.174.224 0-.013 0-.013 0 0z" fill="currentColor"/><path d="M16.923 35.333c0 .111-.012.174-.024.236l-.311.124c-.025.013-.05.013-.075.025-.012.012-.037.012-.05.025-.012-.025-.012-.05-.024-.087-.038-.124-.063-.299-.112-.435a5.018 5.018 0 01-.187-.833 2.748 2.748 0 01-.012-.71.98.98 0 01.137-.36l.658 2.015zm1.095-1.853a.514.514 0 01.199-.038h.112c.037 0 .074.012.111.025a.932.932 0 01.2.062c.024.012.062.025.087.037.024.012.05.025.062.025.037.025.074.037.111.062.025.013.05.037.075.05.037.025.062.05.062.05s-.012-.025-.025-.063c-.024-.037-.05-.099-.111-.174-.013-.024-.038-.037-.05-.062-.013-.012-.013-.025-.025-.037l-.037-.037a1.124 1.124 0 00-.212-.175c-.05-.024-.087-.062-.137-.087l-.074-.037-.075-.037-.149-.075a.72.72 0 00-.174-.062 1.822 1.822 0 00-1.057-.037c-.298.074-.522.236-.646.435l.659 2.014c0-.1.012-.236.037-.41a1.97 1.97 0 01.385-.933c.212-.248.473-.435.672-.497z" fill="currentColor"/><path d="M19.731 34.785a.9.9 0 01.734.237s-.013-.087-.087-.212a1.637 1.637 0 00-.41-.497c-.423-.386-.858-.51-1.393-.286a2.12 2.12 0 00-.286.15c-.1.061-.224.123-.336.198a1.502 1.502 0 00-.174.124c-.062.05-.112.087-.162.137-.05.05-.111.1-.161.15-.05.05-.1.099-.15.161-.099.1-.198.224-.248.323a.27.27 0 01-.037.063c-.013.024-.013.037-.025.05-.013.024-.013.049-.013.049l.025.025a.236.236 0 01.05.062c.012.012.012.025.025.037l.025.025.012.013s.013.012.025.012h.05c.012-.012.012-.037.062-.037.062.012.124.012.211.012.075 0 .162-.012.261-.025.087-.025.187-.05.286-.1.634-.298 1.38-.62 1.716-.67zm-1.193 1.057c-.162.025-.385 0-.572-.025-.087-.012-.174-.037-.224-.05a.402.402 0 01-.087-.024s.025.037.05.087c.037.05.087.124.15.211.123.174.298.373.484.497.187.125.386.2.597.212l1.405-1.592c-.1.025-.199.05-.31.1-.361.149-.859.46-1.493.584z" fill="currentColor"/><path d="M21.782 36.052c-.012.025-.012.05-.025.075-.037-.025-.074-.05-.136-.075a.774.774 0 00-.523-.062c-.323.062-1.056.423-1.69.684a1.03 1.03 0 01-.498.087l1.405-1.591c.373-.075.671.05 1.007.335.212.174.336.348.41.473.025.025.038.05.05.074zm-.048.423c-.038.025-.087.05-.112.075-.013.012-.038.025-.05.037l-.012.013c-.05.037-.087.062-.112.087l-.013.012c-.05.038-.1.087-.149.137l-.037.037c-.05.062-.1.137-.15.236h-.012l-.062.013c-.037 0-.087.012-.137.012h-.012c-.05.013-.112.013-.162.025h-.037c-.037 0-.062.013-.1.025-.05.013-.112.025-.161.05a.436.436 0 00-.174.074c-.05.025-.1.05-.137.075l-.013.012c-.024.013-.05.038-.087.063-.012.012-.024.025-.037.025-.05-.013-.112-.038-.186-.05a2.953 2.953 0 00-.498-.087c-.025-.025-.037-.05-.05-.075-.136-.174-.223-.323-.223-.323s.149.05.335.087c.187.037.423.062.585.037.646-.124 1.131-.46 1.454-.622.112-.062.224-.099.336-.124v.125c.013.012.013.012.013.024zm2.971 1.642s-.013-.013-.025-.013l.012-.012a.039.039 0 01.013.025zm1.504.623c-.012 0-.087-.038-.212-.038h-.099c-.037 0-.075.013-.112.013-.074.024-.174.05-.26.112-.138.087-.35.273-.598.485-.248.21-.534.46-.82.658-.36.262-.746.262-1.144.1-.075-.037-.162-.075-.236-.124h.036c.062-.013.149-.025.273-.063.125-.037.249-.1.386-.161l.025-.013c.074-.037.149-.087.223-.149.075-.062.174-.124.262-.211.087-.075.161-.15.223-.224l.013-.013c.062-.087.124-.161.186-.248a2.64 2.64 0 00.087-.137v-.012c.025-.05.05-.087.063-.137.037-.1.074-.187.099-.274.025-.012.037-.025.062-.037.1-.05.2-.075.299-.087a.883.883 0 01.31.013c.1.024.212.05.324.099.112.05.211.087.286.137.074.05.136.1.186.136.087.1.125.162.137.175zm-1.44 1.491a.882.882 0 01-.274.087c-.1.025-.211.038-.323.038a.903.903 0 01-.261 0h-.112s.037.024.087.074c.062.05.137.112.248.187a2.216 2.216 0 00.71.36c.248.063.497.063.708-.012l.597-2.04c-.075.063-.15.138-.224.225-.112.136-.261.335-.448.522-.186.199-.41.41-.708.56zm2.397-.943a.824.824 0 01.485-.199c.137-.012.236.013.236.013s-.062-.063-.186-.137a1.641 1.641 0 00-.56-.212c-.099-.025-.198-.025-.285-.037a.818.818 0 00-.25.012.931.931 0 00-.447.212l-.596 2.039a1.2 1.2 0 00.422-.298c.236-.261.473-.547.672-.809.211-.26.385-.484.51-.584zm1.767.27a.925.925 0 01.485-.236.615.615 0 01.236 0s-.062-.062-.199-.125a2.037 2.037 0 00-.597-.174c-.136-.012-.26-.024-.373-.012a.944.944 0 00-.323.075c-.199.074-.373.223-.522.46-.05.074-.112.161-.174.26-.062.1-.125.2-.212.312-.149.223-.348.46-.596.671-.063.05-.15.1-.249.15-.1.036-.199.074-.298.099-.2.05-.361.074-.361.074l.373.2c.05.024.112.049.174.074.062.025.124.037.187.062.124.037.248.062.373.075.099.012.198 0 .298 0a.99.99 0 00.273-.075c.175-.075.324-.199.448-.373.41-.584.82-1.293 1.057-1.517zm-.387 1.555a1.554 1.554 0 01-.51.286 2.903 2.903 0 01-.336.112s.162.074.373.149c.212.075.485.137.721.137.237 0 .436-.05.622-.162l.224-2.113a1.438 1.438 0 00-.2.26c-.198.324-.422.87-.894 1.331zm2.2-1.368c.311-.323.71-.26.71-.26s-.063-.05-.2-.113a1.876 1.876 0 00-.61-.149c-.434-.037-.758.05-1.006.31l-.224 2.115c.137-.087.249-.2.348-.361.087-.15.187-.298.274-.448.087-.149.186-.31.26-.447.175-.299.337-.535.448-.647zm34.09-11.363v1.098c-1.22-.03-2.258-.06-3.143-.06-.671 0-1.312.03-1.953.06-.214-.427-.55-.915-.976-1.433l-2.441-2.808c-1.83-2.166-2.838-3.325-2.93-3.447-.304-.336-.549-.55-.732-.641a.683.683 0 00-.305-.092.433.433 0 00-.183.061l-.091.092c0 .03-.03.122-.03.274v2.808l.03 2.471c0 .671.06 1.068.152 1.22.061.092.183.153.336.214.152.061.702.092 1.648.153v1.098c-1.374-.061-2.808-.061-4.333-.061-1.343 0-2.563.03-3.631.061v-1.098c.854-.03 1.434-.092 1.678-.183a.664.664 0 00.244-.153.688.688 0 00.153-.336c.03-.152.06-.488.091-1.006.061-1.221.122-2.136.122-2.686v-4.546l-.091-3.875c-.03-.946-.061-1.586-.122-1.892-.03-.183-.092-.305-.153-.366-.06-.06-.152-.091-.244-.152-.183-.061-.732-.092-1.678-.153v-1.037c1.068.06 2.258.06 3.63.06 1.526 0 2.96-.03 4.334-.06v1.098c-.977.03-1.557.092-1.77.214-.122.06-.214.244-.275.488-.091.55-.152 1.587-.152 3.082v3.448l.213.091c.794-.64 1.861-1.648 3.234-3.051l1.77-1.8c.58-.58.977-1.007 1.22-1.282l1.099-1.281c0-.183 0-.489-.03-.977.854.03 1.403.03 1.708.03l2.93-.03v1.007c-.764.03-1.343.092-1.679.183-.335.092-.793.366-1.312.763-.518.397-1.586 1.343-3.173 2.777l-2.38 2.38c.397.488 1.007 1.22 1.8 2.135l2.746 3.204a356.278 356.278 0 002.563 2.96c.458.488.794.763.977.854.274.092.61.122 1.129.122zm9.58-16.415v1.098c-.854.03-1.343.061-1.495.092a.688.688 0 00-.336.152.547.547 0 00-.152.214c-.061.152-.092.427-.122.824-.03.213-.03.64-.03 1.22-.031 2.044-.062 3.173-.062 3.326v5.034l.03 2.289c0 .854.031 1.403.123 1.678.03.122.091.214.183.275.091.06.213.122.366.152.152.03.671.061 1.495.092v1.098c-1.373-.061-2.807-.061-4.363-.061-1.343 0-2.533.03-3.6.061v-1.098c.854-.03 1.372-.061 1.495-.092.183-.03.305-.091.366-.152a.493.493 0 00.122-.214c.03-.092.06-.488.091-1.19a45.94 45.94 0 00.092-2.777v-5.217c0-1.648 0-2.716-.03-3.204-.031-1.068-.092-1.709-.153-1.983a.46.46 0 00-.122-.244c-.061-.061-.153-.092-.305-.153-.153-.06-.672-.06-1.587-.091v-1.13c1.037.062 2.258.062 3.63.062 1.557 0 2.99 0 4.364-.061zm5.309 17.513v-1.037c1.007-.03 1.587-.091 1.77-.213.183-.122.305-.275.396-.489.092-.366.153-1.434.153-3.234v-7.506c0-2.044 0-3.173-.03-3.417h-1.8c-.916 0-1.71.03-2.38.091-.275.031-.428.061-.489.092-.06.061-.122.183-.152.427a9.658 9.658 0 00-.183 1.953h-1.038c-.03-1.709-.06-2.685-.06-2.899-.031-.366-.062-.762-.123-1.19l.122-.091c.397.03.824.06 1.251.091.732.03 2.105.03 4.15.03h5.065c2.105 0 3.508 0 4.21-.03.397-.03.763-.03 1.16-.091l.122.122c-.061.518-.122.946-.153 1.342 0 .061-.03.977-.06 2.746h-1.038c-.03-.64-.061-1.281-.153-1.86-.06-.306-.091-.489-.152-.55-.061-.03-.183-.061-.397-.091a27.952 27.952 0 00-2.471-.092h-1.8c-.031.305-.031 1.434-.031 3.417v7.506c0 1.8.03 2.899.152 3.265a.842.842 0 00.367.488c.183.092.793.183 1.8.214v1.037c-1.617-.061-2.99-.122-4.089-.122-1.22-.03-2.563 0-4.119.091zm13.607-16.475v-1.037c.183 0 .854.03 2.014.061.549.03 1.342.03 2.38.03.885 0 1.617-.03 2.258-.06 1.037-.031 1.891-.062 2.563-.062 1.312 0 2.288.092 2.929.275.64.183 1.22.58 1.678 1.16.458.58.702 1.312.702 2.166a4.348 4.348 0 01-.946 2.746c-.641.824-1.587 1.495-2.899 1.953.214.366.458.763.702 1.16.275.396.427.64.458.7.061.092.091.153.152.245l1.953 2.93c.519.762.793 1.19.824 1.25.64.824 1.007 1.312 1.159 1.465.153.152.275.244.427.305.122.06.397.091.794.091v1.038c-1.282-.03-2.228-.061-2.777-.061-.671 0-1.342.03-1.983.06-.031-.182-.153-.426-.305-.701l-2.685-4.424c-.763-1.282-1.404-2.258-1.953-2.99-.275-.366-.519-.641-.763-.824l.153-.427c1.007.03 1.769-.061 2.258-.305.488-.245.945-.672 1.281-1.282.336-.61.519-1.312.519-2.044 0-.763-.183-1.404-.549-1.922a2.923 2.923 0 00-1.374-1.068c-.335-.123-.976-.184-1.891-.184a7.82 7.82 0 00-1.19.092c-.03.305-.061.976-.061 2.014-.061 2.35-.061 3.936-.061 4.73 0 1.25 0 2.562.03 3.966.03 1.708.061 2.685.061 2.929.03.457.061.763.153.915a.81.81 0 00.152.183c.061.061.183.092.367.122.152.03.64.061 1.464.061v1.099c-1.434-.061-2.868-.061-4.333-.061-1.312 0-2.501.03-3.63.06v-1.098c.945-.03 1.525-.091 1.678-.152.091-.03.183-.061.213-.122.061-.061.092-.183.092-.336.06-.336.091-.824.122-1.465l.091-3.66v-4.639l-.06-2.654c-.031-1.038-.062-1.678-.153-1.892a.41.41 0 00-.183-.213c-.153.03-.794-.062-1.831-.123zm26.669-1.038v1.098c-.854.03-1.343.061-1.495.092a.688.688 0 00-.336.152.541.541 0 00-.152.214c-.061.152-.092.427-.122.824-.031.213-.031.64-.031 1.22-.03 2.044-.061 3.173-.061 3.326v5.034l.031 2.289c0 .854.03 1.403.122 1.678a.44.44 0 00.183.275c.091.06.213.122.366.152.152.03.671.061 1.495.092v1.098c-1.373-.061-2.807-.061-4.363-.061-1.343 0-2.533.03-3.601.061v-1.098c.855-.03 1.373-.061 1.495-.092.183-.03.306-.091.367-.152a.496.496 0 00.122-.214c.03-.092.061-.488.091-1.19a45.94 45.94 0 00.092-2.777v-5.217c0-1.648 0-2.716-.031-3.204-.03-1.068-.091-1.709-.152-1.983a.463.463 0 00-.122-.244c-.061-.061-.153-.092-.306-.153-.152-.06-.671-.06-1.586-.091v-1.13c1.037.062 2.258.062 3.631.062 1.556 0 2.99 0 4.363-.061zm1.617 1.038v-1.037l3.692.091 5.584-.121c1.098 0 1.952.121 2.593.335.641.214 1.19.64 1.648 1.22.458.58.671 1.374.671 2.289 0 .946-.213 1.83-.671 2.624-.427.824-1.129 1.465-2.044 1.983a6.008 6.008 0 01-2.991.794c-.274 0-.518 0-.793-.031-.244-.03-.519-.061-.763-.122-.091-.244-.244-.519-.457-.885l.274-.274c.183.06.366.091.519.122.153.03.305.03.458.03.823 0 1.464-.274 2.013-.854.519-.58.794-1.404.794-2.502 0-1.13-.275-2.014-.824-2.563-.549-.55-1.312-.854-2.288-.854-.458 0-.977.06-1.557.152-.03.519-.061 1.282-.061 2.288l-.03 2.441v4.73c0 1.16.03 2.38.061 3.63.03.733.061 1.19.152 1.374a.412.412 0 00.184.213.962.962 0 00.427.153l1.678.122v1.098c-2.136-.06-3.753-.06-4.821-.06-1.19 0-2.319.03-3.387.06v-1.098c.916-.03 1.495-.092 1.739-.214a.518.518 0 00.183-.183c.061-.122.092-.427.153-.915.092-1.343.153-2.807.153-4.455v-4.424l-.061-2.35c-.031-1.006-.031-1.647-.062-1.891-.03-.244-.061-.427-.122-.55a.509.509 0 00-.183-.183c-.091-.06-.213-.091-.427-.152l-1.434-.03zm14.736 12.843c.55 0 1.007.183 1.373.58.367.366.58.854.58 1.372 0 .55-.183 1.007-.58 1.404-.396.397-.854.58-1.373.58a1.887 1.887 0 01-1.403-.58 1.888 1.888 0 01-.58-1.404c0-.549.183-1.006.58-1.373.366-.396.854-.58 1.403-.58zm4.243-12.843v-1.037c.183 0 .854.03 2.013.061.55.03 1.343.03 2.38.03.885 0 1.617-.03 2.258-.06 1.038-.031 1.892-.062 2.563-.062 1.312 0 2.289.092 2.929.275.641.183 1.221.58 1.679 1.16.457.58.701 1.312.701 2.166a4.348 4.348 0 01-.946 2.746c-.64.824-1.586 1.495-2.898 1.953.213.366.457.763.702 1.16.274.396.427.64.457.7.061.092.092.153.153.245l1.953 2.93c.518.762.793 1.19.823 1.25.641.824 1.007 1.312 1.16 1.465.152.152.274.244.427.305.122.06.397.091.793.091v1.038c-1.281-.03-2.227-.061-2.776-.061-.672 0-1.343.03-1.984.06-.03-.182-.152-.426-.305-.701l-2.685-4.424c-.762-1.282-1.403-2.258-1.952-2.99-.275-.366-.519-.641-.763-.824l.152-.427c1.007.03 1.77-.061 2.258-.305.488-.245.946-.672 1.282-1.282.335-.61.518-1.312.518-2.044 0-.763-.183-1.404-.549-1.922a2.92 2.92 0 00-1.373-1.068c-.335-.123-.976-.184-1.892-.184-.396 0-.793.031-1.19.092-.03.305-.061.976-.061 2.014-.061 2.35-.061 3.936-.061 4.73 0 1.25 0 2.562.031 3.966.03 1.708.061 2.685.061 2.929.03.457.061.763.153.915.03.061.091.122.152.183s.183.092.366.122c.153.03.641.061 1.465.061v1.099c-1.434-.061-2.868-.061-4.333-.061-1.312 0-2.502.03-3.631.06v-1.098c.946-.03 1.526-.091 1.678-.152.092-.03.183-.061.214-.122.061-.061.091-.183.091-.336.061-.336.092-.824.123-1.465l.091-3.66v-4.639l-.061-2.654c-.03-1.038-.061-1.678-.153-1.892-.03-.091-.091-.152-.183-.213-.183.03-.793-.062-1.83-.123zm18.153-.001v-1.037l4.058.06 1.678-.03 1.678-.03h.458v1.037c-.915 0-1.465.092-1.709.244-.122.061-.213.214-.244.428-.122.518-.183 1.647-.183 3.417v4.363c0 1.526.031 2.471.061 2.838.061.793.275 1.403.58 1.891.305.489.793.855 1.465 1.16.64.305 1.495.457 2.501.457 1.16 0 2.075-.183 2.777-.58.702-.396 1.19-.915 1.465-1.555.305-.641.427-1.831.427-3.631V15.445c-.031-1.037-.092-1.678-.183-1.892a.669.669 0 00-.275-.305c-.274-.152-.885-.213-1.8-.244v-1.037c1.495.06 2.41.091 2.685.091h.336l2.776-.06v1.037c-.763 0-1.251.06-1.464.183-.092.06-.183.183-.244.396-.062.214-.123 1.038-.184 2.533a92.146 92.146 0 00-.091 3.54v2.928c0 .763-.061 1.526-.153 2.32-.091.793-.335 1.494-.671 2.044-.336.58-.793 1.068-1.403 1.525-.611.458-1.312.793-2.136 1.038-.824.244-1.77.335-2.868.335-1.282 0-2.441-.183-3.54-.518-.793-.245-1.464-.58-1.953-1.007a4.537 4.537 0 01-1.159-1.404 4.488 4.488 0 01-.488-1.495c-.031-.305-.061-1.098-.061-2.44v-5.554c0-1.16-.031-2.227-.061-3.143-.031-.366-.061-.64-.153-.793-.03-.092-.152-.214-.305-.336l-1.617-.183zM8.146 41.92s-.66-.136-1.144-.111c.61-.15 1.156-.436 1.392-.61-.758.075-1.019.137-1.305.286.845-.348 1.393-.534 1.591-.795.2-.274-.77 0-.77 0s.857-.224.907-.485c-.26-.025-.534.174-.534.174s.696-.36.77-.585c-.397.063-.746 0-.746 0s.759-.062.846-.323c.087-.261-.423-.087-.423-.087s1.219-.373 1.902-.224c.684.15-1.355 1.629-1.355 1.629l-.56.858-.571.273z" fill="currentColor"/><path d="M30.897 39.262s.66.136 1.144.112c-.61.149-1.156.435-1.392.609.758-.075 1.02-.137 1.305-.286-.845.348-1.393.534-1.591.796-.2.273.77 0 .77 0s-.857.223-.907.484c.26.025.535-.173.535-.173s-.697.36-.771.584c.398-.062.746 0 .746 0s-.759.062-.846.323c-.087.261.423.087.423.087s-.66.41-1.803-.05c-.647-.26 1.256-1.355 1.256-1.355l.56-.858.571-.273zM34.266.196c.112-.162.36-.062.336.124-.36 2.96-1.418 6.205-4.302 8.231-3.17 2.226-9.437 3.444-9.238 8.244.161 3.692 1.168 6.888 2.15 9.387.05.124-.049.273-.186.248-.808-.099-1.541-.447-2.026-.945a1.796 1.796 0 00-1.306-.559c-.497 0-.957.199-1.305.56-.597.621-1.555.982-2.574.982a.183.183 0 01-.174-.236c.77-2.325 2.076-6.503 2.076-8.517 0-2.897.36-3.606-2.375-5.297-2.735-1.69-6.316-3.096-7.795-4.886C6.142 5.853 4.115 3.578 4.837.146c.037-.186.31-.199.36-.012.36 1.318.883 2.163 2.238 2.536 1.579.435 4.762-.273 7.46 1.517 2.437 1.616 3.966 3.63 4.687 5.458.062.162.299.15.348-.025.771-2.872 2.238-4.277 4.364-5.545 2.263-1.355 5.185-.597 6.528-1.193 1.131-.498 2.586-1.418 3.444-2.686z" fill="currentColor"/><path d="M24.742 3.02c-.012.012-.025.024-.025.037-.149.161-.298.26-.46.336-.124.05-.26.074-.398.074.013-.012.038-.025.05-.037.274-.162.547-.299.833-.41zm3.917-.524s-.025-.012-.063-.037a.849.849 0 00-.099-.037h.112l.012.012a.637.637 0 01.038.062zm-8.157 1.417l-.087 2.685c-.286.436-.535.92-.758 1.468a3.975 3.975 0 00-.237-.386l-.124-3.767c.199 0 .398-.013.597-.013.199 0 .41.013.609.013zm15.32 18.364c-.05.336-.112.672-.175 1.007l-12.794-.41c-.012-.062-.037-.124-.05-.186l13.018-.41zm-19.858.373c-.025.086-.05.16-.075.248l-11.725.373c-.062-.336-.124-.66-.174-1.007l11.974.385zm16.96-12.098l-10.643 9.996c-.012-.087-.037-.162-.05-.249l9.997-10.643c.236.286.472.585.696.896zM16.75 19.43c-.026.112-.038.224-.063.336l-9.81-9.2c.224-.312.46-.61.709-.896l9.163 9.76zm.22-3.159l-1.205-2.685c1.106.808 1.218 1.318 1.206 2.685zm18.702.585l-13.117 4.923c-.013-.062-.025-.124-.037-.174L35.436 15.8c.087.348.174.696.236 1.057zm-20.254 7.609c-.037.124-.086.26-.124.385l-1.84.833c-.075-.062-.15-.136-.224-.199-.05-.05-.1-.1-.149-.136l2.338-.883zm9.15-11.973l-2.636 5.819c-.025-.236-.05-.473-.062-.696l1.654-4.352c.31-.274.671-.522 1.044-.77zM26.41 25.25a1.13 1.13 0 00-.262.224.324.324 0 01-.1.087l-2.722-1.231c-.037-.1-.062-.2-.1-.299l3.184 1.219zm-10.048-4.08c-.025.074-.038.161-.063.236L4.14 16.793c.075-.36.15-.709.25-1.057l11.973 5.434zm.411-16.523c-.136-.112-.273-.236-.422-.348.111-.025.236-.05.348-.074l.074.422zm19.212 15.342v.012l-13.279 2.3c-.012-.062-.037-.111-.05-.173l13.304-3.171c.012.336.025.684.025 1.032zm-20.271 3.517c-.024.1-.062.199-.087.298L6.24 26.042a2.98 2.98 0 01-.833-.621l-.1-.112 10.407-1.803zM28.66 10.354l-6.552 9.287c-.025-.124-.037-.248-.062-.373l4.998-8.131c.162-.075.323-.162.485-.236.398-.175.77-.361 1.131-.547zm-3.382 15.728a4.52 4.52 0 01-.435.174l-1.082-.77c-.062-.15-.112-.311-.174-.46l1.69 1.056zm-8.728-5.669c-.026.087-.038.174-.063.261L5.11 13.687c.15-.348.299-.684.473-1.007l10.966 7.733zm.398-2.326c-.013.162-.025.336-.05.522l-5.396-7.472c.199.112.398.211.597.323.335.174.684.36 1.02.547l3.829 6.08zm17.666-4.574l-12.21 7.684c-.012-.062-.025-.137-.05-.2l11.763-8.491c.186.323.348.659.497 1.007zM14.92 25.982a.956.956 0 00-.037.373 2.355 2.355 0 01-.447-.137l.522-.335a.418.418 0 01-.038.1zm20.031-.769l-.248.274c-.15.174-.423.335-.771.472l-10.88-2.474a1.924 1.924 0 01-.062-.212l11.961 1.94zm-18.786-3.285c-.025.074-.037.161-.062.236L3.83 20.187v-.199c0-.286.012-.572.025-.845l12.309 2.785z" fill="currentColor"/></symbol><symbol fill="none" viewBox="0 0 18 18" id="moon" xmlns="http://www.w3.org/2000/svg"><path d="M10.933 1.753l.642.766A1 1 0 0011.19.787l-.257.966zm2.883 12.993l.643.766a1 1 0 00-.385-1.732l-.258.966zM9 1.5v1c.58 0 1.14.077 1.676.22l.257-.967.257-.966A8.508 8.508 0 009 .5v1zm1.933.253L10.29.987A8.483 8.483 0 007.25 7.5h2c0-2 .902-3.787 2.325-4.981l-.642-.766zM8.25 7.5h-1c0 3.938 2.678 7.246 6.31 8.213l.256-.967.258-.966A6.501 6.501 0 019.25 7.5h-1zm5.566 7.246l-.642-.766A6.467 6.467 0 019 15.5v2c2.079 0 3.983-.75 5.46-1.988l-.644-.766zM9 16.5v-1A6.5 6.5 0 012.5 9h-2A8.5 8.5 0 009 17.5v-1zM1.5 9h1A6.5 6.5 0 019 2.5v-2A8.5 8.5 0 00.5 9h1z" fill="currentColor"/></symbol><symbol fill="none" viewBox="0 0 24 25" id="people" xmlns="http://www.w3.org/2000/svg"><path d="M18 8.139a.605.605 0 00-.19 0 2.573 2.573 0 01-2.48-2.58c0-1.43 1.15-2.58 2.58-2.58a2.58 2.58 0 012.58 2.58A2.589 2.589 0 0118 8.139zm-1.03 7.28c1.37.23 2.88-.01 3.94-.72 1.41-.94 1.41-2.48 0-3.42-1.07-.71-2.6-.95-3.97-.71M5.97 8.139c.06-.01.13-.01.19 0a2.573 2.573 0 002.48-2.58c0-1.43-1.15-2.58-2.58-2.58a2.58 2.58 0 00-2.58 2.58c.01 1.4 1.11 2.53 2.49 2.58zM7 15.419c-1.37.23-2.88-.01-3.94-.72-1.41-.94-1.41-2.48 0-3.42 1.07-.71 2.6-.95 3.97-.71M12 15.61a.605.605 0 00-.19 0 2.573 2.573 0 01-2.48-2.58c0-1.43 1.15-2.58 2.58-2.58a2.58 2.58 0 012.58 2.58c-.01 1.4-1.11 2.54-2.49 2.58zm-2.91 3.15c-1.41.94-1.41 2.48 0 3.42 1.6 1.07 4.22 1.07 5.82 0 1.41-.94 1.41-2.48 0-3.42-1.59-1.06-4.22-1.06-5.82 0z" stroke="currentColor" stroke-width="2" stroke-linecap="round" stroke-linejoin="round"/></symbol><symbol fill="none" viewBox="0 0 24 25" id="phone" xmlns="http://www.w3.org/2000/svg"><path fill-rule="evenodd" clip-rule="evenodd" d="M9.98 11.473a1.2 1.2 0 00.82-1.139v-3.6a3.6 3.6 0 00-3.6-3.6H3.6a1.2 1.2 0 00-1.2 1.2c0 9.426 8.574 18 18 18a1.2 1.2 0 001.2-1.2v-3.6a3.6 3.6 0 00-3.6-3.6h-3.6a1.2 1.2 0 00-1.139.82l-.896 2.69a17.365 17.365 0 01-4.788-4.647l-.287-.428 2.69-.896zm5.285 4.861H18a1.2 1.2 0 011.2 1.2v2.346a14.428 14.428 0 01-4.196-1.046l-.5-.217.76-2.283zm-10.41-10.8H7.2a1.2 1.2 0 011.2 1.2V9.47l-2.283.761a14.557 14.557 0 01-1.263-4.696z" fill="currentColor"/></symbol><symbol fill="none" viewBox="0 0 24 25" id="ranking" xmlns="http://www.w3.org/2000/svg"><path d="M13.734 4.361l1.76 3.37c.24.46.88.92 1.414.996l3.188.51c2.04.332 2.52 1.737 1.053 3.14l-2.48 2.375c-.414.396-.654 1.175-.52 1.736l.706 2.949c.56 2.323-.733 3.23-2.88 2.017l-2.988-1.698c-.547-.306-1.427-.306-1.974 0l-2.987 1.698c-2.148 1.213-3.441.306-2.881-2.017l.707-2.949c.133-.549-.107-1.327-.52-1.736L2.85 12.378c-1.467-1.404-.987-2.821 1.054-3.14l3.187-.511c.534-.09 1.174-.536 1.414-.996l1.76-3.37c.947-1.825 2.52-1.825 3.468 0z" stroke="currentColor" stroke-width="2" stroke-linecap="round" stroke-linejoin="round"/></symbol><symbol fill="none" viewBox="0 0 18 18" id="sun" xmlns="http://www.w3.org/2000/svg"><g clip-path="url(#kclip0_2760_6464)"><path d="M8.9 1v1.455m0 13.09V17M3.24 3.342l1.033 1.033m9.25 9.25l1.034 1.033M.899 9h1.455m13.09 0H16.9M3.241 14.658l1.033-1.032m9.25-9.251l1.034-1.033M12.536 9a3.636 3.636 0 11-7.273 0 3.636 3.636 0 017.273 0z" stroke="currentColor" stroke-width="2" stroke-linecap="round" stroke-linejoin="round"/></g><defs><clipPath id="kclip0_2760_6464"><path fill="currentColor" d="M0 0h18v18H0z"/></clipPath></defs></symbol><symbol fill="none" viewBox="0 0 32 32" id="telegram" xmlns="http://www.w3.org/2000/svg"><path d="M16 0c8.837 0 16 7.163 16 16s-7.163 16-16 16S0 24.837 0 16 7.163 0 16 0zm7.672 10.046c.136-1.603-1.489-.959-1.512-.95 0 0-3.572 1.52-4.627 1.995a3553.661 3553.661 0 01-10.675 4.56c-1.855.75-.805 1.454-.779 1.471 0 0 1.604.57 2.979.998 1.374.427 2.107-.048 2.107-.048a398.23 398.23 0 006.459-4.511c2.29-1.615 1.741-.285 1.191.285a177.92 177.92 0 01-4.81 4.749c-.733.664-.367 1.234-.046 1.52 1.191 1.044 4.445 3.181 4.628 3.324.23.19 1.511 1.045 2.29.855.77-.188.868-1.257.87-1.282 0 0 .596-3.895 1.146-7.456.366-2.517.733-4.845.779-5.51z" fill="currentColor"/></symbol><symbol fill="none" viewBox="0 0 32 32" id="whatsapp" xmlns="http://www.w3.org/2000/svg"><path d="M0 31.526l2.228-8.277A15.294 15.294 0 01.62 12.653c.76-3.61 2.8-6.825 5.744-9.057a15.394 15.394 0 0120.09 1.298 15.3 15.3 0 011.56 20.02 15.37 15.37 0 01-9.003 5.847 15.402 15.402 0 01-10.643-1.466L0 31.525zm8.771-5.328l.517.306a12.446 12.446 0 0015.043-1.826 12.362 12.362 0 002.077-14.972 12.41 12.41 0 00-5.995-5.288 12.45 12.45 0 00-7.985-.543 12.422 12.422 0 00-6.66 4.43 12.368 12.368 0 00-2.567 7.56 12.225 12.225 0 001.816 6.422l.325.534-1.246 4.619 4.675-1.242z" fill="currentColor"/><path fill-rule="evenodd" clip-rule="evenodd" d="M21.33 17.99a2.563 2.563 0 00-2.192-.5c-.57.237-.939 1.13-1.307 1.576a.544.544 0 01-.701.157 9.93 9.93 0 01-4.965-4.243.594.594 0 01.079-.822c.41-.406.713-.909.877-1.461a3.178 3.178 0 00-.403-1.75 4.094 4.094 0 00-1.272-1.916 1.758 1.758 0 00-1.886.289 3.868 3.868 0 00-1.342 3.062c.002.324.043.647.123.962.204.756.517 1.478.93 2.143.298.51.623 1.004.973 1.479a14.94 14.94 0 004.22 3.902 12.72 12.72 0 002.63 1.25c.958.434 2.016.6 3.061.482a3.68 3.68 0 002.772-2.056c.151-.328.198-.695.132-1.05-.158-.726-1.132-1.154-1.728-1.504z" fill="currentColor"/></symbol></svg>