<svg width="178" height="42" viewBox="0 0 178 42" fill="none" xmlns="http://www.w3.org/2000/svg">
<path d="M35.2481 25.9824C33.7064 30.0357 29.8645 33.2186 25.836 34.8847C25.836 34.8101 25.836 34.7355 25.8236 34.6484C25.7987 34.4246 25.7366 34.1884 25.6495 33.9397V33.9149C25.5252 33.604 25.3511 33.3056 25.1398 33.0321C24.8911 32.7213 24.5803 32.4602 24.2694 32.2737C23.9337 32.0747 23.5856 31.9628 23.2499 31.9131C23.2126 31.9131 23.1628 31.9007 23.1131 31.9007C23.1007 31.9007 23.1007 31.8882 23.0882 31.8882C22.9515 31.8136 22.7898 31.739 22.6033 31.6769C22.3671 31.6023 22.1309 31.5525 21.8822 31.5401C21.82 31.5401 21.7579 31.5401 21.6957 31.5277H21.6335C21.5714 31.5277 21.4843 31.5277 21.36 31.5401C21.2854 31.5525 21.2108 31.5525 21.1362 31.565L21.0119 31.5898C20.987 31.5898 20.9746 31.5898 20.9621 31.6023L20.8254 31.6396C20.7135 31.6769 20.6016 31.7017 20.5021 31.739C20.4026 31.7763 20.328 31.8012 20.2907 31.8261L20.2783 31.8385C20.241 31.8509 20.2161 31.8758 20.1788 31.8882L20.0918 31.938C20.0172 31.9753 19.9177 32.0374 19.8058 32.1245C19.7312 32.1866 19.6566 32.2364 19.5945 32.2985L19.3334 32.2737C19.3085 32.2612 19.2961 32.2364 19.2712 32.2239L19.2463 32.2115C19.1966 32.1742 19.122 32.1245 19.035 32.0747L18.8858 31.9877C18.7863 31.938 18.6868 31.9007 18.5998 31.8634L18.5749 31.8509C18.5128 31.8261 18.4382 31.8012 18.3387 31.7639C17.7667 31.5898 17.1575 31.565 16.6353 31.7142C16.4488 31.7639 16.2872 31.8385 16.1255 31.9131H16.1131H16.0758C15.9142 31.9255 15.765 31.9504 15.6033 31.9753C15.2925 32.0499 14.6833 32.2488 14.0989 32.8083L14.0865 32.8207C13.6016 33.3056 13.3032 33.8651 13.2161 34.4495C13.1788 34.4992 13.1415 34.549 13.0918 34.6236C9.3369 33.0072 6.34045 29.6751 4.88574 25.8705C5.58201 26.6538 6.75075 27.1635 8.06869 27.1635C9.3369 27.1635 10.4683 26.6911 11.177 25.9451C11.5998 25.4975 12.2961 25.4975 12.7188 25.9451C13.4275 26.6786 14.5589 27.1635 15.8271 27.1635C17.0953 27.1635 18.2268 26.6911 18.9355 25.9451C19.3582 25.4975 20.0545 25.4975 20.4772 25.9451C21.1859 26.6786 22.3174 27.1635 23.5856 27.1635C24.8538 27.1635 25.9852 26.6911 26.6939 25.9451C27.1167 25.4975 27.8129 25.4975 28.2357 25.9451C28.9444 26.6786 30.0758 27.1635 31.344 27.1635C32.6495 27.2133 34.5518 26.7657 35.2481 25.9824Z" fill="#1A0B03"/>
<path d="M39.3646 21.4575C39.5262 21.6191 39.5884 21.818 39.6133 21.9672C39.6381 22.1164 39.6133 22.2283 39.6133 22.2283C39.6133 22.2283 39.6754 22.1537 39.7376 22.0045C39.7998 21.8553 39.8744 21.6315 39.8868 21.3207C39.9117 20.8358 39.7998 20.4752 39.5138 20.2266H37.3877C37.4747 20.3385 37.6115 20.4379 37.7731 20.525C38.084 20.6742 38.4197 20.8482 38.7056 21.0099C38.8548 21.0969 38.9916 21.1715 39.1035 21.2461C39.2154 21.3331 39.3024 21.4077 39.3646 21.4575Z" fill="#1A0B03"/>
<path d="M39.1399 23.4203C39.2891 23.5943 39.3264 23.8057 39.3389 23.9549C39.3513 24.1165 39.314 24.216 39.314 24.216C39.314 24.216 39.3762 24.1538 39.4508 24.0046C39.5254 23.8679 39.6248 23.6441 39.6746 23.3332C39.7243 23.0224 39.6994 22.7613 39.6248 22.5499C39.5875 22.438 39.5254 22.3386 39.4508 22.2515C39.3762 22.1645 39.2643 22.0775 39.1524 22.0029C38.8291 21.8039 38.282 21.5801 37.7971 21.1698C37.6728 21.0704 37.5484 20.8714 37.449 20.7222C37.3619 20.5606 37.2998 20.4238 37.2998 20.4238C37.2998 20.4238 37.25 20.573 37.2003 20.772C37.1754 20.8714 37.1506 20.9833 37.1381 21.0952C37.1257 21.2071 37.1133 21.319 37.1133 21.4185C37.1257 21.605 37.1754 21.7666 37.2625 21.9158C37.3495 22.065 37.4738 22.2018 37.6604 22.3137C37.9463 22.5002 38.2696 22.6991 38.5431 22.8856C38.6799 22.9851 38.8042 23.0721 38.9161 23.1592C39.0032 23.2711 39.0902 23.3581 39.1399 23.4203Z" fill="#1A0B03"/>
<path d="M37.6126 22.9852C37.5007 22.8733 37.3888 22.6619 37.3142 22.5003C37.2396 22.3262 37.1899 22.1895 37.1899 22.1895C37.1899 22.1895 37.1153 22.3387 37.0531 22.5252C37.0158 22.6246 36.9909 22.7365 36.9661 22.8484C36.9412 22.9603 36.9163 23.0722 36.9163 23.1717C36.9039 23.3831 36.9412 23.5696 37.0531 23.7561L39.1295 24.1788C39.0673 24.0918 38.9803 24.0172 38.8808 23.9426C38.57 23.7188 38.0478 23.4452 37.6126 22.9852Z" fill="#1A0B03"/>
<path d="M38.7183 25.3473C38.8426 25.5463 38.8675 25.7452 38.8551 25.9068C38.8551 25.9814 38.8426 26.056 38.8302 26.0933C38.8178 26.1431 38.8053 26.1679 38.8053 26.1679C38.8053 26.1679 38.8302 26.1555 38.8551 26.1182C38.8799 26.0933 38.9297 26.0436 38.967 25.969C39.054 25.8322 39.1659 25.6333 39.2529 25.3225C39.2902 25.2106 39.3027 25.0862 39.3151 24.9868C39.3275 24.8749 39.3275 24.7754 39.3151 24.6884C39.2902 24.5019 39.2281 24.3278 39.1037 24.1786L37.0273 23.7559C37.1019 23.8926 37.2014 24.0045 37.3382 24.1289C37.8852 24.5392 38.5442 25.0614 38.7183 25.3473Z" fill="#1A0B03"/>
<path d="M38.1093 27.2128C38.2088 27.4242 38.2212 27.6231 38.1964 27.7848C38.1715 27.934 38.1218 28.0334 38.1218 28.0334C38.1218 28.0334 38.1466 28.021 38.1715 27.9961C38.2088 27.9713 38.2461 27.9215 38.2958 27.8594C38.3953 27.735 38.5321 27.5361 38.644 27.2501C38.7061 27.1009 38.731 26.9641 38.7559 26.8398C38.7683 26.7155 38.7683 26.5911 38.7559 26.4668C38.7186 26.2306 38.6067 26.0316 38.3953 25.8327C38.1218 25.584 37.6369 25.2483 37.239 24.751C37.1395 24.6267 37.0525 24.4153 36.9903 24.2412C36.9282 24.0672 36.9033 23.918 36.9033 23.918C36.9033 23.918 36.8163 24.0547 36.7292 24.2412C36.6795 24.3283 36.6422 24.4402 36.6049 24.5521C36.5676 24.664 36.5303 24.7634 36.5179 24.8753C36.493 25.0494 36.5054 25.2235 36.5676 25.3975C36.6173 25.5592 36.7168 25.7208 36.8784 25.87C37.1271 26.1062 37.4006 26.3673 37.6244 26.616C37.7363 26.7403 37.8482 26.8523 37.9228 26.9517C38.0099 27.0512 38.072 27.1382 38.1093 27.2128Z" fill="#1A0B03"/>
<path d="M36.7045 26.479C36.6174 26.3422 36.5553 26.1184 36.518 25.9444C36.4807 25.7579 36.4558 25.6211 36.4558 25.6211C36.4558 25.6211 36.3563 25.7454 36.2569 25.9195C36.2071 26.0065 36.1574 26.106 36.0952 26.2055C36.0455 26.3049 35.9958 26.4168 35.9709 26.5163C35.946 26.6158 35.9336 26.7152 35.9336 26.8147C35.9336 26.9142 35.946 27.0136 35.9833 27.1131L37.9354 27.9461C37.8856 27.8467 37.8235 27.7596 37.7489 27.6726C37.5002 27.3991 37.0402 27.0261 36.7045 26.479Z" fill="#1A0B03"/>
<path d="M37.3131 29.0175C37.4001 29.2289 37.3752 29.4403 37.3379 29.5895C37.3255 29.6641 37.2882 29.7262 37.2758 29.7635C37.2509 29.8008 37.2385 29.8257 37.2385 29.8257C37.2385 29.8257 37.2633 29.8133 37.3006 29.7884C37.3379 29.7635 37.3877 29.7262 37.4498 29.6765C37.5617 29.5646 37.7109 29.3781 37.8601 29.1046C37.972 28.8932 38.0342 28.6818 38.0466 28.4953C38.0591 28.3088 38.0342 28.1223 37.9472 27.9483L35.9951 27.1152C36.0324 27.252 36.107 27.4012 36.2314 27.538C36.4552 27.7991 36.6914 28.085 36.9028 28.3461C37.0893 28.6197 37.2509 28.8559 37.3131 29.0175Z" fill="#1A0B03"/>
<path d="M36.3299 30.7345C36.392 30.9583 36.3547 31.1573 36.305 31.3065C36.2428 31.4557 36.1682 31.5427 36.1682 31.5427C36.1682 31.5427 36.2553 31.5054 36.3796 31.4184C36.5039 31.3189 36.678 31.1573 36.8396 30.8962C37.0137 30.6351 37.1007 30.3864 37.1132 30.1502C37.1256 29.9139 37.051 29.6901 36.8894 29.4539C36.678 29.1555 36.2553 28.7203 35.9693 28.1484C35.932 28.0738 35.9071 27.9868 35.8823 27.8873C35.8574 27.7878 35.845 27.6884 35.8325 27.6013C35.8077 27.4148 35.8077 27.2656 35.8077 27.2656C35.8077 27.2656 35.6958 27.3775 35.5714 27.5516C35.4595 27.7257 35.2979 27.9246 35.2357 28.1235C35.2109 28.2106 35.186 28.2976 35.1736 28.3846C35.1736 28.4219 35.1611 28.4717 35.1611 28.509C35.1611 28.5463 35.1611 28.596 35.1611 28.6333C35.1736 28.8074 35.2482 28.9814 35.3725 29.1555C35.5714 29.4415 35.7828 29.7523 35.9569 30.0383C36.1558 30.3118 36.2801 30.5729 36.3299 30.7345Z" fill="#1A0B03"/>
<path d="M35.0996 29.7253C35.0375 29.5761 35.0375 29.3523 35.025 29.1658C35.025 28.9793 35.025 28.8301 35.025 28.8301C35.025 28.8301 34.9007 28.942 34.7639 29.0912C34.7018 29.1658 34.6147 29.2528 34.5526 29.3398C34.478 29.4269 34.4158 29.5263 34.3785 29.6134C34.3412 29.7128 34.3039 29.7999 34.2915 29.8993C34.2666 29.9988 34.2666 30.0983 34.2666 30.1978L36.0073 31.4162C35.9824 31.3168 35.9327 31.2173 35.8829 31.1054C35.7959 30.9438 35.6591 30.7448 35.5099 30.521C35.3607 30.2848 35.2115 30.0237 35.0996 29.7253Z" fill="#1A0B03"/>
<path d="M35.1864 32.3385C35.2237 32.5623 35.174 32.7736 35.0994 32.898C35.0248 33.0347 34.9502 33.1093 34.9502 33.1093C34.9502 33.1093 35.0372 33.0845 35.174 32.9974C35.3107 32.9228 35.4972 32.7612 35.6837 32.525C35.9946 32.1395 36.0941 31.779 35.9946 31.406L34.2539 30.1875C34.2663 30.3367 34.3161 30.4859 34.4031 30.66C34.7512 31.2816 35.1242 31.9903 35.1864 32.3385Z" fill="#1A0B03"/>
<path d="M33.8804 33.8136C33.8928 33.9255 33.8804 34.0374 33.8431 34.1244C33.8182 34.2114 33.7685 34.2985 33.7312 34.3606C33.6442 34.485 33.5571 34.5596 33.5571 34.5596C33.5571 34.5596 33.6442 34.5471 33.7934 34.4725C33.868 34.4352 33.955 34.3855 34.0545 34.3233C34.1539 34.2487 34.2534 34.1617 34.3529 34.0498C34.5642 33.826 34.7134 33.6146 34.7632 33.3784C34.8129 33.1546 34.788 32.9184 34.6761 32.6573C34.6015 32.4832 34.4896 32.2843 34.3653 32.0356C34.241 31.7869 34.1166 31.5134 34.042 31.2026C34.0172 31.128 34.0172 31.0285 34.0172 30.929C34.0172 30.8296 34.0296 30.7301 34.0296 30.6306C34.042 30.4441 34.0669 30.2949 34.0669 30.2949C34.0669 30.2949 33.9426 30.3944 33.7809 30.5312C33.6193 30.6679 33.4328 30.842 33.3333 31.0161C33.2463 31.1777 33.1841 31.3393 33.1593 31.501C33.1468 31.675 33.1717 31.8615 33.2587 32.0605C33.3209 32.2221 33.3955 32.3837 33.4701 32.5454C33.5323 32.707 33.5944 32.8686 33.6566 33.0303C33.7934 33.366 33.868 33.6395 33.8804 33.8136Z" fill="#1A0B03"/>
<path d="M32.8735 32.5722C32.8486 32.4106 32.8735 32.1868 32.9108 32.0127C32.9481 31.8262 32.9854 31.6895 32.9854 31.6895C32.9854 31.6895 32.9481 31.7143 32.8983 31.7392C32.8486 31.7765 32.774 31.8262 32.687 31.8884C32.5129 32.0003 32.314 32.1619 32.1896 32.336C32.1275 32.423 32.0777 32.5101 32.0404 32.5971C32.0031 32.6841 31.9783 32.7836 31.9658 32.8831L33.433 34.4248C33.4205 34.3253 33.4081 34.2134 33.3708 34.0891C33.3086 33.915 33.2216 33.6912 33.1221 33.4426C33.0227 33.1815 32.9232 32.8955 32.8735 32.5722Z" fill="#1A0B03"/>
<path d="M32.4379 35.1601C32.4379 35.3963 32.326 35.5704 32.239 35.6947C32.1395 35.819 32.0525 35.8812 32.0525 35.8812C32.0525 35.8812 32.1395 35.8812 32.3011 35.819C32.4503 35.7693 32.6741 35.6698 32.8979 35.4585C33.0844 35.2968 33.2212 35.1352 33.3207 34.9736C33.4077 34.7995 33.445 34.6254 33.4326 34.4265L31.9654 32.8848C31.953 33.034 31.9654 33.1956 32.0152 33.3697C32.04 33.4567 32.0649 33.5313 32.0898 33.6183C32.1146 33.7054 32.1395 33.7924 32.1644 33.867C32.2141 34.0411 32.2638 34.2027 32.3011 34.3643C32.3882 34.7 32.4503 34.986 32.4379 35.1601Z" fill="#1A0B03"/>
<path d="M30.8699 36.3403C30.8451 36.5766 30.7207 36.7382 30.6088 36.8501C30.4969 36.962 30.3975 37.0117 30.3975 37.0117C30.3975 37.0117 30.4845 37.0117 30.6461 36.9744C30.7207 36.9496 30.8202 36.9247 30.9321 36.875C30.9818 36.8501 31.044 36.8252 31.1062 36.7879C31.1683 36.7506 31.2305 36.7133 31.2927 36.6636C31.5413 36.4771 31.7278 36.303 31.8273 36.0917C31.9268 35.8803 31.9516 35.6441 31.8895 35.3581C31.8149 34.9975 31.6035 34.4505 31.5662 33.8039C31.5538 33.6423 31.6035 33.4185 31.6657 33.2444C31.6905 33.1574 31.7154 33.0828 31.7403 33.0206C31.7651 32.9585 31.7776 32.9336 31.7776 32.9336C31.7776 32.9336 31.7403 32.946 31.6781 32.9833C31.6159 33.0082 31.5413 33.0579 31.4419 33.1077C31.2554 33.2071 31.044 33.3439 30.9072 33.5055C30.6586 33.7666 30.5342 34.0899 30.6337 34.5251C30.758 35.1965 30.9072 36.0046 30.8699 36.3403Z" fill="#1A0B03"/>
<path d="M30.1241 34.9216C30.1241 34.76 30.1987 34.5486 30.2733 34.3746C30.3106 34.2875 30.3479 34.2129 30.3728 34.1632C30.3976 34.1135 30.4101 34.0762 30.4101 34.0762C30.4101 34.0762 30.3728 34.0886 30.3106 34.1135C30.2484 34.1383 30.1614 34.1632 30.0619 34.2129C29.8754 34.2875 29.6516 34.4119 29.49 34.5486C29.3284 34.6854 29.2165 34.847 29.1543 35.046L30.2733 36.8488C30.2857 36.7494 30.2857 36.6375 30.2733 36.5131C30.2484 36.3266 30.1987 36.0904 30.1614 35.8293C30.1365 35.6925 30.1241 35.5557 30.1117 35.4065C30.1241 35.2449 30.1241 35.0833 30.1241 34.9216Z" fill="#1A0B03"/>
<path d="M29.1938 37.3732C29.1441 37.597 29.0073 37.7586 28.883 37.8581C28.7586 37.9575 28.6592 38.0073 28.6592 38.0073C28.6592 38.0073 28.7462 38.0197 28.9078 37.9948C28.9824 37.9824 29.0819 37.9575 29.1938 37.9202C29.256 37.9078 29.3057 37.8829 29.3679 37.8581C29.4052 37.8456 29.4301 37.8332 29.4674 37.8208C29.5047 37.8083 29.5295 37.7835 29.5668 37.771C29.7782 37.6467 29.9523 37.5224 30.0766 37.3732C30.1388 37.2986 30.1885 37.224 30.2258 37.1369C30.2631 37.0499 30.288 36.9629 30.3004 36.8634L29.1814 35.0605C29.1316 35.1973 29.1192 35.3714 29.1316 35.5455C29.1938 36.2044 29.2684 37.0375 29.1938 37.3732Z" fill="#1A0B03"/>
<path d="M28.9699 35.0742C28.9699 35.0742 28.945 35.1115 28.9201 35.1613C28.8953 35.211 28.8455 35.2856 28.8082 35.3602C28.7212 35.5218 28.6217 35.7208 28.6093 35.8948C28.5969 35.9694 28.5844 36.0565 28.5844 36.1311C28.5844 36.2057 28.572 36.2803 28.572 36.3549C28.572 36.5041 28.572 36.6408 28.572 36.7776C28.5844 37.0511 28.6093 37.2874 28.6093 37.4739C28.6093 37.6231 28.5969 37.7474 28.5596 37.8593C28.5223 37.9836 28.4725 38.0831 28.3979 38.1701C28.2736 38.3193 28.112 38.4437 27.9006 38.568C27.7638 38.4934 27.5898 38.4064 27.3535 38.3442C27.3784 38.3069 27.3908 38.2572 27.4157 38.2074C27.4778 38.0458 27.5027 37.7598 27.5276 37.4241C27.54 37.0884 27.5524 36.7154 27.5524 36.3797C27.5524 36.2678 27.5649 36.1684 27.5897 36.0813C27.6146 35.9943 27.6395 35.9073 27.6892 35.8327C27.7762 35.6835 27.8882 35.5591 28.0374 35.4472C28.0747 35.4224 28.1244 35.3851 28.1741 35.3602C28.2239 35.3353 28.2736 35.3105 28.3233 35.2856C28.4228 35.2359 28.5347 35.1986 28.6342 35.1613C28.7336 35.1364 28.8207 35.1115 28.8828 35.0867C28.9326 35.0867 28.9699 35.0742 28.9699 35.0742Z" fill="#1A0B03"/>
<path d="M27.4167 35.9062C27.4167 35.9062 27.3297 36.0182 27.2178 36.1674C27.1183 36.3166 27.0064 36.5155 26.9567 36.6771C26.795 37.2988 26.8323 37.8832 26.8075 38.2562V38.2686C26.7826 38.2686 26.7577 38.2686 26.7329 38.2686L26.621 38.2562L26.0117 36.6025C26.1112 36.416 26.2604 36.2917 26.4345 36.1798C26.621 36.0803 26.8572 36.0057 27.0561 35.9684C27.2675 35.9311 27.4167 35.9062 27.4167 35.9062Z" fill="#1A0B03"/>
<path d="M26.6216 38.2564L26.3232 38.2316C26.261 38.1818 26.1988 38.1321 26.1118 38.0824C25.9999 38.0078 25.8756 37.958 25.7637 37.9083C25.801 37.6348 25.8258 37.3488 25.8631 37.0753C25.888 36.8888 25.9377 36.7396 26.0123 36.6152L26.6216 38.2564Z" fill="#1A0B03"/>
<path d="M25.8011 36.5898C25.8011 36.5898 25.7016 36.6893 25.5773 36.8385C25.4654 36.9753 25.3286 37.1618 25.2664 37.3234C25.2167 37.4726 25.167 37.6218 25.1297 37.7586C25.0924 37.7586 25.0426 37.7586 24.9929 37.7586L24.9805 37.7337C25.0178 37.6715 25.0551 37.6094 25.0924 37.5348C25.1172 37.4975 25.1297 37.4477 25.1545 37.398C25.167 37.3607 25.1918 37.3234 25.2043 37.2861C25.2789 37.0996 25.3286 36.8882 25.3659 36.652C25.3659 36.6396 25.3659 36.6271 25.3659 36.6271C25.3908 36.6271 25.4032 36.6271 25.4281 36.6147C25.6394 36.5898 25.8011 36.5898 25.8011 36.5898Z" fill="#1A0B03"/>
<path d="M20.0285 37.4577C20.0036 37.4702 19.9912 37.4826 19.9912 37.495C19.9415 37.4826 19.8793 37.4577 19.8047 37.4453C19.8544 37.4453 19.9042 37.4577 19.9539 37.4577C19.9788 37.4453 20.0036 37.4577 20.0285 37.4577Z" fill="#1A0B03"/>
<path d="M13.8408 37.8574V37.8822C13.6916 37.9071 13.4678 37.9817 13.2191 38.1185C13.1569 38.1558 13.0948 38.1931 13.045 38.2304C12.9829 38.2677 12.9331 38.305 12.8834 38.3547H12.871C12.8212 38.392 12.7839 38.4417 12.7342 38.5039C12.6347 38.479 12.5228 38.479 12.4234 38.479C12.3612 38.479 12.299 38.479 12.2493 38.4915C12.1747 38.4915 12.1125 38.5039 12.0379 38.5163H12.0255C11.9882 38.5163 11.9633 38.5288 11.926 38.5412C11.6774 38.4169 11.5157 38.2925 11.4038 38.1931C11.3417 38.1433 11.3044 38.0936 11.2795 38.0563C11.2546 38.0314 11.2422 38.0066 11.2422 38.0066C11.2422 38.0066 11.2671 38.019 11.3044 38.0439C11.3417 38.0687 11.4038 38.0812 11.4909 38.106C11.6401 38.1309 11.8514 38.1433 12.0628 38.0439C12.2244 37.9693 12.4482 37.8076 12.6969 37.5838C12.9083 37.3973 13.1445 37.186 13.3683 36.9746C13.3807 37.0243 13.3932 37.0865 13.4056 37.1238C13.418 37.1611 13.4305 37.1984 13.4429 37.2481C13.4553 37.2854 13.4678 37.3103 13.4926 37.36C13.5921 37.5465 13.704 37.7206 13.8408 37.8574Z" fill="#1A0B03"/>
<path d="M13.3158 36.2764C13.3158 36.351 13.3158 36.4256 13.3158 36.5127C13.1541 36.55 12.9925 36.5873 12.8806 36.6494C12.3211 36.9603 11.9232 37.3954 11.6248 37.6317C11.5254 37.7063 11.4383 37.7684 11.3389 37.8057L12.2714 35.9034C12.3211 35.891 12.3708 35.8786 12.4206 35.8786C12.4703 35.8786 12.52 35.8661 12.5698 35.8786C12.6692 35.8786 12.7687 35.9034 12.8682 35.9283C13.0174 35.978 13.179 36.0651 13.3282 36.1521C13.3158 36.1894 13.3158 36.2391 13.3158 36.2764Z" fill="#1A0B03"/>
<path d="M10.3062 37.1352C10.0824 37.2098 9.88348 37.1849 9.73428 37.1352C9.58508 37.0855 9.49805 37.0109 9.49805 37.0109C9.49805 37.0109 9.53535 37.0979 9.63481 37.2222C9.73428 37.3466 9.92078 37.5082 10.1819 37.6574C10.2938 37.7196 10.3933 37.7693 10.4927 37.8066C10.5922 37.8439 10.6917 37.8688 10.7911 37.8812C10.9776 37.9061 11.1641 37.8812 11.3382 37.8066L12.2707 35.9043C12.1215 35.9416 11.9847 36.0038 11.8355 36.1157C11.562 36.327 11.2636 36.5508 10.9901 36.7498C10.7165 36.9363 10.4679 37.0855 10.3062 37.1352Z" fill="#1A0B03"/>
<path d="M8.65218 36.065C8.42838 36.1147 8.21701 36.0774 8.08025 36.0028C7.94348 35.9407 7.85645 35.8661 7.85645 35.8661C7.85645 35.8661 7.88131 35.9531 7.96835 36.0899C7.99321 36.1272 8.01808 36.1645 8.04295 36.2018C8.08025 36.2391 8.11755 36.2764 8.15485 36.3261C8.24188 36.4131 8.34135 36.5002 8.46568 36.5872C8.59002 36.6742 8.71435 36.7488 8.83868 36.7986C8.96302 36.8483 9.07492 36.8732 9.19925 36.8856C9.43549 36.9105 9.65929 36.8483 9.89552 36.6991C10.2064 36.5002 10.654 36.1023 11.2383 35.8536C11.3129 35.8163 11.4 35.8039 11.4994 35.779C11.5989 35.7666 11.6984 35.7542 11.7978 35.7417C11.9843 35.7293 12.1335 35.7293 12.1335 35.7293C12.1335 35.7293 12.0216 35.6174 11.86 35.4806C11.8227 35.4433 11.773 35.4185 11.7357 35.3812C11.6984 35.3439 11.6486 35.3066 11.5989 35.2817C11.5119 35.2195 11.4124 35.1574 11.3129 35.1201C10.9772 34.9957 10.6415 34.9709 10.2685 35.2071C10.1193 35.2941 9.97012 35.3936 9.82092 35.4806C9.67172 35.5801 9.51009 35.6671 9.37332 35.7417C9.07492 35.9158 8.81382 36.0277 8.65218 36.065Z" fill="#1A0B03"/>
<path d="M9.72212 34.884C9.88376 34.8343 10.0951 34.8343 10.2816 34.8343C10.4681 34.8343 10.6173 34.8591 10.6173 34.8591C10.6173 34.8591 10.5179 34.7348 10.3687 34.5856C10.2195 34.4364 10.0454 34.2623 9.85889 34.1629C9.77186 34.1131 9.67239 34.0758 9.57292 34.051C9.47345 34.0261 9.38642 34.0137 9.27452 34.0137L7.98145 35.7046C8.08091 35.6797 8.19281 35.6424 8.29228 35.5927C8.61555 35.4311 9.11289 35.0829 9.72212 34.884Z" fill="#1A0B03"/>
<path d="M7.09802 34.8492C6.86179 34.8741 6.67528 34.8119 6.53852 34.7373C6.40175 34.6627 6.32715 34.5756 6.32715 34.5756C6.32715 34.5756 6.35202 34.6627 6.42662 34.8119C6.46392 34.8865 6.51365 34.9735 6.58825 35.0606C6.66285 35.1476 6.76232 35.2471 6.87422 35.3465C7.23479 35.6698 7.59536 35.7941 7.96836 35.7195L9.27387 34.041C9.12467 34.041 8.96303 34.0907 8.8014 34.1653C8.63976 34.2399 8.47813 34.3145 8.31649 34.4016C8.15486 34.4762 7.99323 34.5508 7.84402 34.613C7.54562 34.7249 7.27209 34.8243 7.09802 34.8492Z" fill="#1A0B03"/>
<path d="M5.69477 33.4655C5.58287 33.4655 5.47097 33.4531 5.38394 33.4158C5.2969 33.3785 5.2223 33.3412 5.16013 33.2914C5.0358 33.2044 4.97363 33.1049 4.97363 33.1049C4.97363 33.1049 4.98607 33.192 5.04823 33.3412C5.0731 33.4158 5.12283 33.5028 5.185 33.6023C5.24717 33.7017 5.3342 33.8012 5.4461 33.9255C5.86884 34.3856 6.29157 34.5223 6.82621 34.3234C7.00028 34.2612 7.21165 34.1493 7.46031 34.0499C7.70898 33.938 7.99495 33.8385 8.31822 33.7639C8.47985 33.7266 8.70365 33.7515 8.87772 33.7763C9.06422 33.8012 9.20099 33.8261 9.20099 33.8261C9.20099 33.8261 9.11396 33.6893 8.97719 33.5401C8.85286 33.3785 8.69122 33.1795 8.51715 33.0676C8.35552 32.9682 8.20632 32.8936 8.03225 32.8687C7.85818 32.8438 7.67168 32.8687 7.47275 32.9433C7.14948 33.0676 6.80134 33.192 6.47808 33.2914C6.14237 33.4033 5.86884 33.4655 5.69477 33.4655Z" fill="#1A0B03"/>
<path d="M6.97608 32.5236C7.13771 32.5112 7.36151 32.5485 7.53558 32.5982C7.62261 32.6231 7.70965 32.6355 7.75938 32.6604C7.82155 32.6728 7.84642 32.6852 7.84642 32.6852C7.84642 32.6852 7.83398 32.6479 7.79668 32.5982C7.75938 32.536 7.72208 32.4614 7.65991 32.3744C7.54801 32.2003 7.39881 31.989 7.23718 31.8646C7.07554 31.7279 6.90148 31.6408 6.70254 31.6035L5.09863 32.9836C5.21053 32.9836 5.31 32.9712 5.43434 32.9339C5.6084 32.8842 5.8322 32.7971 6.09331 32.7225C6.36684 32.6479 6.66524 32.5609 6.97608 32.5236Z" fill="#1A0B03"/>
<path d="M4.42602 31.9625C4.31412 31.9501 4.20222 31.9252 4.12762 31.8755C4.04059 31.8382 3.96599 31.776 3.91625 31.7263C3.80435 31.6268 3.74219 31.5273 3.74219 31.5273C3.74219 31.5273 3.74219 31.6144 3.79192 31.776C3.84165 31.9252 3.92869 32.149 4.12762 32.3977C4.27682 32.5966 4.42602 32.7334 4.58766 32.8328C4.74929 32.9323 4.93579 32.9821 5.1223 32.9696L6.7262 31.6019C6.577 31.5771 6.41537 31.5895 6.22887 31.6268C5.5699 31.8009 4.77416 31.9874 4.42602 31.9625Z" fill="#1A0B03"/>
<path d="M3.32138 30.3372C3.09758 30.2999 2.93594 30.1631 2.82404 30.0512C2.71214 29.9393 2.67484 29.8398 2.67484 29.8398C2.67484 29.8398 2.66241 29.9269 2.69971 30.0885C2.71214 30.1631 2.73701 30.2626 2.78674 30.3745C2.82404 30.4864 2.88621 30.6107 2.97324 30.735C3.14731 30.9962 3.32138 31.1827 3.52031 31.307C3.73168 31.4189 3.96792 31.4562 4.24145 31.4065C4.42795 31.3816 4.65175 31.3194 4.92529 31.2573C5.06206 31.2324 5.19882 31.2075 5.34802 31.1827C5.49722 31.1578 5.65886 31.1453 5.82049 31.1453C5.98213 31.1453 6.1935 31.2075 6.36756 31.2697C6.4546 31.307 6.5292 31.3319 6.59136 31.3567C6.6411 31.3816 6.6784 31.394 6.6784 31.394C6.6784 31.394 6.61623 31.2448 6.5292 31.0583C6.44216 30.8718 6.3054 30.648 6.16863 30.5112C5.91996 30.2501 5.60913 30.1134 5.17396 30.1755C4.47769 30.2874 3.65708 30.3993 3.32138 30.3372Z" fill="#1A0B03"/>
<path d="M4.77483 29.6637C4.93647 29.6761 5.14784 29.7632 5.30947 29.8378C5.3965 29.8751 5.45867 29.9124 5.52084 29.9497C5.57057 29.9745 5.60787 29.9994 5.60787 29.9994C5.60787 29.9994 5.60787 29.987 5.59544 29.9745C5.59544 29.9621 5.58301 29.9372 5.57057 29.8999C5.54571 29.8378 5.52084 29.7507 5.48354 29.6513C5.44624 29.5518 5.40894 29.4523 5.34677 29.3529C5.29704 29.2534 5.23487 29.1539 5.1727 29.0793C5.04837 28.9177 4.88673 28.7934 4.70023 28.7188L2.84766 29.7383C2.94712 29.7632 3.05902 29.7632 3.18336 29.7507C3.36986 29.7383 3.60609 29.701 3.87963 29.6761C4.14073 29.6513 4.43913 29.6388 4.77483 29.6637Z" fill="#1A0B03"/>
<path d="M2.38749 28.6071C2.16368 28.5449 2.01448 28.3957 1.92745 28.2714C1.82798 28.1471 1.79068 28.0352 1.79068 28.0352C1.79068 28.0352 1.77825 28.1222 1.79068 28.2838C1.80312 28.4455 1.85285 28.6817 1.98962 28.9552C2.10152 29.179 2.22585 29.3531 2.36262 29.4774C2.43722 29.5396 2.51182 29.6018 2.58642 29.6391C2.67345 29.6764 2.76049 29.7137 2.85995 29.7261L4.71253 28.6941C4.63793 28.6693 4.56333 28.6444 4.48873 28.632C4.41413 28.6195 4.3271 28.6195 4.22763 28.6195C3.89193 28.632 3.51893 28.6568 3.18322 28.6568C2.83509 28.6693 2.53669 28.6568 2.38749 28.6071Z" fill="#1A0B03"/>
<path d="M1.6276 26.7779C1.41623 26.6909 1.27947 26.5293 1.19243 26.4049C1.1054 26.2682 1.08053 26.1562 1.08053 26.1562C1.08053 26.1562 1.05566 26.2433 1.05566 26.4049C1.05566 26.5666 1.08053 26.8028 1.18 27.1012C1.4038 27.6856 1.71463 27.984 2.299 28.0088C2.48551 28.0213 2.72174 28.0088 2.99528 28.0088C3.13204 28.0088 3.26881 28.0088 3.41801 28.0213C3.56721 28.0337 3.71641 28.0586 3.87805 28.0834C4.03968 28.1083 4.23862 28.2202 4.40025 28.3197C4.56188 28.4191 4.67378 28.5062 4.67378 28.5062C4.67378 28.5062 4.64892 28.3445 4.59918 28.1456C4.54945 27.9467 4.46242 27.7104 4.35052 27.5364C4.16401 27.2255 3.86561 27.039 3.44288 27.0142C3.10718 26.9893 2.72174 26.9769 2.39847 26.9396C2.23684 26.9271 2.0752 26.9023 1.93844 26.8774C1.8141 26.8401 1.7022 26.8152 1.6276 26.7779Z" fill="#1A0B03"/>
<path d="M3.18356 26.4195C3.3452 26.4693 3.5317 26.5936 3.6809 26.7055C3.8301 26.8174 3.92957 26.9169 3.92957 26.9169C3.92957 26.9169 3.91713 26.7552 3.89227 26.5563C3.87983 26.4568 3.85497 26.3449 3.81767 26.233C3.78036 26.1211 3.7555 26.0092 3.70576 25.9222C3.6063 25.7357 3.48196 25.5865 3.3079 25.4746L1.28125 26.1087C1.38072 26.146 1.49262 26.1833 1.60452 26.1957C1.97752 26.2455 2.57432 26.233 3.18356 26.4195Z" fill="#1A0B03"/>
<path d="M1.05473 24.8902C0.8558 24.7783 0.731465 24.6166 0.669298 24.4674C0.607131 24.3307 0.582265 24.2188 0.582265 24.2188C0.582265 24.2188 0.544965 24.3058 0.532531 24.4674C0.520098 24.6291 0.520098 24.8653 0.594698 25.1637C0.656865 25.3999 0.743899 25.5989 0.855799 25.7481C0.9677 25.8973 1.10447 26.0216 1.27854 26.0962L3.30518 25.4621C3.18085 25.3875 3.03165 25.3253 2.84514 25.288C2.50944 25.2383 2.13644 25.1761 1.81317 25.1015C1.65154 25.0642 1.50234 25.0269 1.36557 24.9896C1.24124 24.9772 1.12933 24.9275 1.05473 24.8902Z" fill="#1A0B03"/>
<path d="M0.695639 22.9653C0.509138 22.8409 0.397237 22.6544 0.347504 22.5052C0.322637 22.4306 0.310203 22.3685 0.29777 22.3187C0.285337 22.269 0.285337 22.2441 0.285337 22.2441C0.285337 22.2441 0.272903 22.269 0.26047 22.3063C0.248036 22.3436 0.22317 22.4058 0.210737 22.4804C0.173436 22.642 0.161003 22.8782 0.198303 23.1891C0.210736 23.2637 0.22317 23.3383 0.235603 23.4129C0.248036 23.4875 0.272903 23.5496 0.29777 23.6118C0.347504 23.7361 0.397237 23.848 0.471838 23.9351C0.546438 24.0221 0.633472 24.1091 0.732939 24.1713C0.832406 24.2335 0.956741 24.2832 1.09351 24.3205C1.45408 24.4076 2.05088 24.4573 2.63525 24.7184C2.78445 24.7806 2.95852 24.9173 3.09529 25.0541C3.23205 25.1784 3.33152 25.2903 3.33152 25.2903C3.33152 25.2903 3.34395 25.1287 3.33152 24.9298C3.31909 24.8303 3.31909 24.7184 3.29422 24.6065C3.28179 24.4946 3.25692 24.3827 3.21962 24.2832C3.15745 24.1092 3.05799 23.9724 2.93365 23.848C2.80932 23.7361 2.64768 23.6367 2.43632 23.5869C1.76491 23.3756 0.969174 23.1518 0.695639 22.9653Z" fill="#1A0B03"/>
<path d="M2.27407 22.9272C2.41084 23.0018 2.58491 23.1634 2.69681 23.3002C2.82114 23.4369 2.90817 23.5613 2.90817 23.5613C2.90817 23.5613 2.93304 23.3996 2.94547 23.2007C2.94547 23.1012 2.94547 22.9769 2.94547 22.865C2.94547 22.7531 2.93304 22.6412 2.90817 22.5417C2.85844 22.3428 2.75897 22.1687 2.60977 22.0195L0.496094 22.2309C0.583128 22.2931 0.682595 22.3428 0.794495 22.3801C1.14263 22.5044 1.727 22.6163 2.27407 22.9272Z" fill="#1A0B03"/>
<path d="M0.522203 20.998C0.348135 20.8488 0.261101 20.6623 0.223801 20.5131C0.186501 20.3639 0.186501 20.252 0.186501 20.252C0.186501 20.252 0.136768 20.3266 0.0870339 20.4758C0.0373003 20.625 0 20.8612 0 21.172C0 21.2964 0.0248667 21.4083 0.0373001 21.5077C0.0621669 21.6072 0.0870338 21.7067 0.124334 21.7937C0.198934 21.9678 0.310835 22.1045 0.472469 22.2164L2.58615 22.0051C2.48668 21.9056 2.34991 21.8186 2.17585 21.744C1.55418 21.5077 0.770871 21.2093 0.522203 20.998Z" fill="#1A0B03"/>
<path d="M0.534254 19.0189C0.372619 18.8573 0.310452 18.6583 0.285585 18.5091C0.260719 18.3599 0.285585 18.248 0.285585 18.248C0.285585 18.248 0.223418 18.3226 0.161251 18.4718C0.0990844 18.621 0.0244839 18.8448 0.0120505 19.1557C-0.000382953 19.4665 0.0369175 19.7276 0.148818 19.939C0.198552 20.0385 0.273152 20.1379 0.360186 20.225C0.44722 20.312 0.55912 20.3742 0.683455 20.4363C1.01916 20.598 1.59109 20.7596 2.1133 21.1326C2.25006 21.2196 2.39926 21.3937 2.49873 21.5553C2.61063 21.7045 2.68523 21.8289 2.68523 21.8289C2.68523 21.8289 2.72253 21.6672 2.7474 21.4683C2.75983 21.3688 2.77227 21.2569 2.77227 21.1326C2.7847 21.0207 2.7847 20.9088 2.75983 20.7969C2.73497 20.6228 2.6728 20.4612 2.5609 20.312C2.46143 20.1752 2.32466 20.0509 2.12573 19.9514C1.81489 19.8022 1.47919 19.6282 1.19322 19.4665C1.04402 19.3795 0.907256 19.3049 0.795355 19.2303C0.683454 19.1557 0.596421 19.0811 0.534254 19.0189Z" fill="#1A0B03"/>
<path d="M2.10169 19.3047C2.22603 19.4042 2.35036 19.6031 2.44983 19.7647C2.53686 19.9264 2.59903 20.0631 2.59903 20.0631C2.59903 20.0631 2.64876 19.9139 2.6985 19.715C2.72336 19.6155 2.74823 19.5036 2.76067 19.3917C2.7731 19.2798 2.78553 19.1679 2.78553 19.0685C2.7731 18.8571 2.71093 18.6706 2.59903 18.4965L0.485352 18.2852C0.559952 18.3598 0.646986 18.4344 0.758887 18.4965C1.06972 18.6706 1.61679 18.8944 2.10169 19.3047Z" fill="#1A0B03"/>
<path d="M0.760297 17.0692C0.611096 16.8951 0.573796 16.6837 0.561362 16.5345C0.548929 16.3729 0.586229 16.2734 0.586229 16.2734C0.586229 16.2734 0.524062 16.3356 0.449461 16.4724C0.374861 16.6091 0.275394 16.8329 0.22566 17.1438C0.15106 17.6287 0.22566 17.9892 0.486762 18.2752L2.60044 18.4866C2.51341 18.3622 2.40151 18.2503 2.25231 18.1509C1.96634 17.9644 1.64307 17.7654 1.36953 17.5789C1.23277 17.4795 1.10843 17.3924 0.996532 17.3054C0.897064 17.2184 0.81003 17.1313 0.760297 17.0692Z" fill="#1A0B03"/>
<path d="M1.18053 15.1429C1.05619 14.9439 1.03132 14.745 1.04376 14.5834C1.04376 14.5088 1.05619 14.4342 1.06863 14.3969C1.08106 14.3471 1.09349 14.3223 1.09349 14.3223C1.09349 14.3223 1.06863 14.3347 1.04376 14.372C1.01889 14.3969 0.969158 14.4466 0.931858 14.5212C0.844824 14.658 0.732924 14.8693 0.64589 15.1677C0.621023 15.2423 0.608589 15.3169 0.596156 15.3915C0.583723 15.4661 0.583722 15.5283 0.571289 15.5905C0.571289 15.7272 0.583722 15.8391 0.608589 15.951C0.633456 16.0629 0.68319 16.1748 0.75779 16.2619C0.832391 16.3613 0.919425 16.4484 1.03133 16.5354C1.32973 16.7592 1.85193 17.0452 2.2871 17.5052C2.399 17.6171 2.5109 17.8285 2.5855 17.9901C2.6601 18.1642 2.70983 18.301 2.70983 18.301C2.70983 18.301 2.78444 18.1518 2.8466 17.9652C2.8839 17.8658 2.90877 17.7539 2.93364 17.642C2.9585 17.5301 2.98337 17.4182 2.98337 17.3187C2.98337 17.1322 2.9585 16.9706 2.8839 16.8089C2.8093 16.6473 2.6974 16.4981 2.53577 16.3738C2.01356 15.951 1.35459 15.4288 1.18053 15.1429Z" fill="#1A0B03"/>
<path d="M2.66233 15.7251C2.7618 15.8494 2.84884 16.0608 2.911 16.2349C2.97317 16.4089 2.99804 16.5457 2.99804 16.5457C2.99804 16.5457 3.08507 16.4089 3.1721 16.2224C3.22184 16.1354 3.25914 16.0235 3.29644 15.9116C3.33374 15.7997 3.37104 15.7002 3.38347 15.5883C3.40834 15.377 3.39591 15.178 3.30887 14.9915L1.28223 14.3574C1.33196 14.4445 1.41899 14.5315 1.50603 14.6185C1.77956 14.8921 2.26447 15.2278 2.66233 15.7251Z" fill="#1A0B03"/>
<path d="M1.79081 13.2601C1.69134 13.0487 1.67891 12.8498 1.70377 12.6881C1.72864 12.5389 1.77837 12.4395 1.77837 12.4395C1.77837 12.4395 1.75351 12.4519 1.72864 12.4768C1.69134 12.5016 1.65404 12.5514 1.60431 12.6135C1.50484 12.7379 1.36807 12.9368 1.25617 13.2228C1.2313 13.2849 1.21887 13.3347 1.194 13.3844C1.18157 13.4341 1.16914 13.4963 1.1567 13.546C1.13184 13.6455 1.13184 13.7574 1.13184 13.8444C1.13184 14.0309 1.18157 14.205 1.28104 14.3666L3.30768 15.0007C3.25795 14.864 3.15848 14.7272 3.03415 14.6029C2.78548 14.3666 2.51194 14.1055 2.28814 13.8569C2.17624 13.7325 2.06434 13.6206 1.98974 13.5212C1.89027 13.4341 1.82811 13.3347 1.79081 13.2601Z" fill="#1A0B03"/>
<path d="M2.58682 11.4703C2.49979 11.2589 2.52466 11.0475 2.56196 10.8983C2.57439 10.8237 2.61169 10.7616 2.62413 10.7243C2.64899 10.687 2.66142 10.6621 2.66142 10.6621C2.66142 10.6621 2.63656 10.6745 2.59926 10.6994C2.56196 10.7243 2.51222 10.7616 2.45006 10.8113C2.33816 10.9232 2.18896 11.1097 2.03975 11.3832C2.00245 11.4578 1.97759 11.52 1.94029 11.5822C1.91542 11.6443 1.89055 11.7189 1.87812 11.7811C1.85325 11.9054 1.84082 12.0298 1.84082 12.1541C1.85325 12.3904 1.94029 12.6017 2.12679 12.8255C2.37546 13.1115 2.82306 13.4845 3.17119 14.0316C3.25823 14.1683 3.32039 14.3921 3.3577 14.5662C3.395 14.7527 3.41986 14.8895 3.41986 14.8895C3.41986 14.8895 3.51933 14.7651 3.6188 14.5911C3.66853 14.504 3.71826 14.4046 3.78043 14.3051C3.83016 14.2056 3.8799 14.0937 3.90477 13.9943C3.94207 13.8202 3.9545 13.6461 3.9172 13.4721C3.8799 13.298 3.8053 13.1364 3.6561 12.9747C3.4323 12.7136 3.19606 12.4277 2.98469 12.1665C2.81063 11.8557 2.66142 11.6195 2.58682 11.4703Z" fill="#1A0B03"/>
<path d="M3.91595 12.3441C3.95325 12.4187 3.97812 12.5058 4.00299 12.6052C4.02785 12.7047 4.04029 12.8042 4.05272 12.8912C4.07759 13.0777 4.07759 13.2269 4.07759 13.2269C4.07759 13.2269 4.18949 13.115 4.31382 12.9409C4.42572 12.7669 4.58736 12.5679 4.64952 12.369C4.71169 12.1701 4.73656 11.9711 4.69926 11.7722L2.84668 10.7402C2.88398 10.8397 2.93371 10.9392 3.00831 11.0386C3.21968 11.3495 3.62998 11.7722 3.91595 12.3441Z" fill="#1A0B03"/>
<path d="M3.56982 9.75934C3.50765 9.53554 3.54495 9.33661 3.59469 9.18741C3.65685 9.0382 3.73146 8.95117 3.73146 8.95117C3.73146 8.95117 3.64442 8.98847 3.52009 9.07551C3.39575 9.17497 3.22169 9.33661 3.06005 9.59771C2.99788 9.69717 2.93572 9.79664 2.89842 9.89611C2.86112 9.99558 2.82382 10.095 2.81138 10.1821C2.77408 10.3686 2.78652 10.5551 2.86112 10.7291L4.71369 11.7611C4.68883 11.6119 4.62666 11.4627 4.51476 11.3135C4.31583 11.0275 4.10446 10.7167 3.93039 10.4307C3.75632 10.1821 3.61955 9.92098 3.56982 9.75934Z" fill="#1A0B03"/>
<path d="M4.71195 8.15564C4.67465 7.93184 4.72439 7.72047 4.79899 7.59613C4.87359 7.45937 4.94819 7.38477 4.94819 7.38477C4.94819 7.38477 4.86115 7.40963 4.72439 7.49667C4.58762 7.57127 4.40112 7.7329 4.21462 7.96914C4.11515 8.09347 4.04055 8.20537 3.97838 8.3297C3.92865 8.45404 3.89135 8.56594 3.86648 8.67784C3.82918 8.91407 3.87891 9.13787 4.01568 9.38654C4.10272 9.54818 4.23948 9.74711 4.38868 9.97091C4.53789 10.2071 4.68709 10.4682 4.79899 10.7666C4.86115 10.9158 4.86115 11.1397 4.87359 11.3262C4.87359 11.5127 4.87359 11.6619 4.87359 11.6619C4.87359 11.6619 4.99792 11.55 5.13469 11.4008C5.19686 11.3262 5.28389 11.2391 5.34606 11.1521C5.42066 11.065 5.48282 10.9656 5.52012 10.8785C5.55742 10.7915 5.58229 10.7169 5.60716 10.6299C5.63203 10.5428 5.64446 10.4682 5.64446 10.3812C5.64446 10.2071 5.59472 10.0331 5.49526 9.83414C5.14712 9.21247 4.77412 8.49134 4.71195 8.15564Z" fill="#1A0B03"/>
<path d="M5.8449 9.28579C5.86977 9.36039 5.86977 9.45985 5.86977 9.55932C5.86977 9.65879 5.85733 9.75826 5.85733 9.84529C5.8449 10.0318 5.82003 10.181 5.82003 10.181C5.82003 10.181 5.94437 10.0815 6.106 9.94476C6.26763 9.80799 6.45414 9.63392 6.5536 9.45986C6.65307 9.27335 6.72767 9.09929 6.72767 8.88792L5.11133 7.50781C5.12376 7.60728 5.16106 7.71918 5.21079 7.83108C5.2854 8.00515 5.3973 8.20408 5.52163 8.45275C5.63353 8.68899 5.75786 8.97495 5.8449 9.28579Z" fill="#1A0B03"/>
<path d="M6.72918 8.88674L5.11284 7.50663C5.07554 7.32013 5.10041 7.13363 5.17501 6.95956C5.24961 6.78549 5.37394 6.61142 5.53558 6.43736C5.57288 6.40006 5.59774 6.37519 5.63504 6.33789C5.77181 6.53682 5.92101 6.72333 6.05778 6.90983C6.09508 7.05903 6.15725 7.24553 6.21941 7.44446C6.28158 7.6061 6.34375 7.76773 6.40591 7.92936C6.46808 8.091 6.54268 8.26507 6.61728 8.41427C6.69188 8.5759 6.72918 8.73754 6.72918 8.88674Z" fill="#1A0B03"/>
<path d="M7.38751 8.4758C7.32534 8.52554 7.27561 8.56284 7.21344 8.60014C7.12641 8.6623 7.05181 8.71204 7.00207 8.74934C6.93991 8.78664 6.91504 8.8115 6.91504 8.8115C6.91504 8.8115 6.95234 8.67474 6.98964 8.48824C7.01451 8.37634 7.03937 8.23957 7.03937 8.11523C7.15127 8.22713 7.26317 8.35147 7.38751 8.4758Z" fill="#1A0B03"/>
<path d="M13.0784 1.69993C13.0784 1.69993 12.9665 1.73723 12.8422 1.82427C12.7178 1.9113 12.5686 2.0605 12.494 2.27187C12.4816 2.30917 12.4692 2.34647 12.4567 2.3962C12.1583 2.33404 11.8475 2.2843 11.5615 2.247C11.574 2.23457 11.5988 2.2097 11.6113 2.19727C11.748 2.0605 11.9221 1.9486 12.1583 1.84913C12.4443 1.73723 12.6805 1.69993 12.8422 1.6875C12.9914 1.6875 13.0784 1.69993 13.0784 1.69993Z" fill="#1A0B03"/>
<path d="M14.9936 1.10193C14.9936 1.10193 14.8817 1.1268 14.7449 1.2014C14.6081 1.276 14.4465 1.40033 14.347 1.6117C14.3097 1.6863 14.2724 1.7982 14.2476 1.92253C14.2227 2.0593 14.1854 2.2085 14.1605 2.37014C14.1357 2.5442 14.1108 2.71827 14.0859 2.90477C13.7502 2.75557 13.4021 2.64367 13.0664 2.5442C13.0664 2.41987 13.0788 2.3204 13.0788 2.22094C13.0913 2.07173 13.1161 1.9474 13.1659 1.8355C13.2156 1.7236 13.2778 1.62413 13.3524 1.54953C13.514 1.37546 13.7378 1.25113 14.0362 1.15166C14.3346 1.06463 14.5708 1.0522 14.7325 1.06463C14.9065 1.07706 14.9936 1.10193 14.9936 1.10193Z" fill="#1A0B03"/>
<path d="M15.5787 3.35301C15.5166 3.44004 15.442 3.51464 15.3549 3.58924C15.3425 3.57681 15.3176 3.56437 15.3052 3.55194C15.0814 3.40274 14.8576 3.27841 14.6338 3.15407C14.8452 2.55727 14.87 1.9729 14.9446 1.61233C14.9695 1.488 15.0068 1.38853 15.0441 1.28906L15.1809 1.8237L15.5787 3.35301Z" fill="#1A0B03"/>
<path d="M16.2607 1.14342C16.3851 0.94449 16.5591 0.832589 16.6959 0.770422C16.7705 0.745555 16.8327 0.720689 16.8824 0.708255C16.9321 0.695822 16.957 0.695822 16.957 0.695822C16.957 0.695822 16.9321 0.683389 16.8948 0.670955C16.8575 0.658522 16.7954 0.646089 16.7208 0.633655C16.5591 0.608788 16.3229 0.596355 16.0121 0.658522C15.7758 0.708255 15.5769 0.782856 15.4153 0.882323C15.2536 0.98179 15.1293 1.11856 15.0547 1.29262L15.5893 3.34413C15.6764 3.2198 15.7385 3.08303 15.7758 2.89653C15.9126 2.25 16.0867 1.42939 16.2607 1.14342Z" fill="#1A0B03"/>
<path d="M18.2153 0.868668C18.352 0.682168 18.5385 0.595134 18.6877 0.545401C18.7623 0.520534 18.8245 0.5081 18.8742 0.5081C18.924 0.5081 18.9488 0.5081 18.9488 0.5081C18.9488 0.5081 18.924 0.495667 18.8867 0.483234C18.8494 0.4708 18.7872 0.445933 18.7126 0.421067C18.551 0.383766 18.3272 0.346466 18.0163 0.371333C17.9417 0.371333 17.8671 0.383766 17.7925 0.408633C17.7179 0.421066 17.6558 0.445933 17.5936 0.458367C17.4693 0.495667 17.3574 0.557834 17.2579 0.620001C17.0714 0.756768 16.9346 0.943269 16.8476 1.2168C16.7357 1.57737 16.6611 2.16174 16.3751 2.73368C16.3005 2.88288 16.1513 3.05695 16.027 3.18128C15.8902 3.30561 15.7783 3.40508 15.7783 3.40508C15.7783 3.40508 15.94 3.41751 16.1389 3.41751C16.2384 3.41751 16.3627 3.40508 16.4746 3.39265C16.5865 3.38021 16.6984 3.36778 16.7979 3.33048C16.9719 3.26831 17.1211 3.19371 17.2455 3.06938C17.3698 2.94504 17.4693 2.79584 17.5314 2.58448C17.7552 1.92551 18.0163 1.1422 18.2153 0.868668Z" fill="#1A0B03"/>
<path d="M18.1775 2.46209C18.0905 2.59886 17.9289 2.76049 17.7797 2.87239C17.6305 2.9843 17.5186 3.07133 17.5186 3.07133C17.5186 3.07133 17.6802 3.10863 17.8791 3.12106C17.9786 3.1335 18.0905 3.1335 18.2148 3.1335C18.3267 3.1335 18.4386 3.1335 18.5381 3.10863C18.737 3.0589 18.9235 2.97186 19.0727 2.83509L18.9608 0.708984C18.8987 0.796018 18.8365 0.895485 18.7992 1.00739C18.65 1.34309 18.5132 1.92746 18.1775 2.46209Z" fill="#1A0B03"/>
<path d="M20.1821 0.792448C20.3437 0.618381 20.5302 0.54378 20.6794 0.518914C20.8286 0.494047 20.9405 0.494047 20.9405 0.494047C20.9405 0.494047 20.8659 0.444313 20.7167 0.382146C20.5675 0.332413 20.3313 0.270246 20.0204 0.257812C19.5355 0.257812 19.175 0.382146 18.9512 0.692981L19.0631 2.81909C19.175 2.71962 19.262 2.59529 19.3366 2.42122C19.6226 1.79955 19.9583 1.04112 20.1821 0.792448Z" fill="#1A0B03"/>
<path d="M22.1567 0.918061C22.3308 0.76886 22.5298 0.706693 22.679 0.69426C22.8282 0.681826 22.9401 0.706693 22.9401 0.706693C22.9401 0.706693 22.8779 0.644526 22.7287 0.582359C22.5795 0.507759 22.3557 0.433158 22.0448 0.395858C21.734 0.370991 21.4729 0.395858 21.2615 0.482892C21.1496 0.532625 21.0626 0.594792 20.9756 0.669393C20.8885 0.756426 20.8139 0.855894 20.7393 0.980228C20.5653 1.3035 20.3663 1.863 19.9809 2.37277C19.8814 2.4971 19.6949 2.63387 19.5457 2.73334C19.3965 2.8328 19.2598 2.89497 19.2598 2.89497C19.2598 2.89497 19.409 2.9447 19.6203 2.982C19.7198 3.00687 19.8317 3.0193 19.9436 3.03174C20.0555 3.04417 20.1674 3.0566 20.2793 3.04417C20.4534 3.0193 20.6274 2.96957 20.7642 2.8701C20.9134 2.77064 21.0377 2.6463 21.1496 2.44737C21.3113 2.14897 21.4978 1.8257 21.6718 1.53973C21.7589 1.40296 21.8459 1.2662 21.9205 1.15429C22.02 1.06726 22.0821 0.980228 22.1567 0.918061Z" fill="#1A0B03"/>
<path d="M21.7972 2.4709C21.6853 2.59524 21.4864 2.70714 21.3248 2.79417C21.1631 2.88121 21.0264 2.93094 21.0264 2.93094C21.0264 2.93094 21.1756 2.99311 21.3745 3.05527C21.474 3.08014 21.5859 3.11744 21.6978 3.12987C21.8097 3.15474 21.9216 3.16717 22.021 3.16717C22.2324 3.16717 22.4189 3.11744 22.593 3.00554L22.9162 0.904297C22.8416 0.978897 22.767 1.06593 22.6924 1.1654C22.4811 1.4638 22.2324 1.99844 21.7972 2.4709Z" fill="#1A0B03"/>
<path d="M24.0962 1.24009C24.2827 1.10332 24.4817 1.06602 24.6433 1.06602C24.7179 1.06602 24.7925 1.07846 24.8298 1.07846C24.8795 1.09089 24.9044 1.09089 24.9044 1.09089C24.9044 1.09089 24.892 1.07846 24.8547 1.04116C24.8174 1.01629 24.7676 0.978988 24.7055 0.929255C24.5687 0.842221 24.3573 0.742754 24.0465 0.668154C23.8103 0.61842 23.5989 0.61842 23.4 0.643287C23.2135 0.680587 23.0518 0.755188 22.9026 0.879522L22.5918 3.00563C22.7161 2.93103 22.8405 2.81913 22.9399 2.66993C23.1389 2.39639 23.3502 2.08556 23.5616 1.82446C23.773 1.55092 23.9595 1.33956 24.0962 1.24009Z" fill="#1A0B03"/>
<path d="M26.8182 1.70191C26.8182 1.70191 26.7933 1.68948 26.7436 1.67704C26.6939 1.66461 26.6317 1.65218 26.5571 1.63974C26.4079 1.62731 26.1965 1.63974 25.9976 1.75165C25.8484 1.83868 25.637 2.02518 25.4132 2.27385C25.1894 2.51008 24.9532 2.77118 24.7418 3.01985C24.7294 3.03228 24.717 3.04472 24.717 3.05715C24.5678 3.21879 24.4186 3.31825 24.2569 3.39285C24.1326 3.44259 23.9958 3.46745 23.8591 3.46745C23.8218 3.46745 23.7844 3.46745 23.7471 3.46745C23.6477 3.45502 23.5358 3.43015 23.4239 3.39285C23.312 3.35555 23.2001 3.31825 23.113 3.28095C22.9265 3.20635 22.7773 3.11932 22.7773 3.11932C22.7773 3.11932 22.9141 3.08202 23.0882 3.00742C23.2622 2.94525 23.4612 2.84578 23.5855 2.73388C24.0704 2.32358 24.3688 1.81381 24.6175 1.52784C24.804 1.30404 25.0029 1.17971 25.2267 1.12998C25.3386 1.10511 25.463 1.10511 25.5997 1.11754C25.7241 1.12998 25.8733 1.15484 26.0225 1.20458C26.3209 1.30404 26.5198 1.42838 26.6441 1.52784C26.7685 1.62731 26.8182 1.70191 26.8182 1.70191Z" fill="#1A0B03"/>
<path d="M26.744 1.89844L26.4953 2.56984C26.3088 2.59471 26.1347 2.63201 25.9482 2.66931C26.1596 2.44551 26.3337 2.24657 26.4829 2.10981C26.5699 2.01034 26.6569 1.94817 26.744 1.89844Z" fill="#1A0B03"/>
<path d="M28.6607 2.49647C28.6607 2.49647 28.6359 2.48403 28.5986 2.45916C28.5737 2.44673 28.5364 2.4343 28.4991 2.42186C28.4742 2.40943 28.4494 2.40943 28.4121 2.397C28.2629 2.37213 28.0764 2.3597 27.8774 2.44673C27.4423 2.4716 26.9698 2.49647 26.5098 2.57107L26.7584 1.89966C26.9325 1.81263 27.1066 1.76289 27.2931 1.77533C27.3925 1.77533 27.492 1.78776 27.5915 1.81263C27.6412 1.82506 27.6909 1.8375 27.7531 1.86236C27.8028 1.88723 27.865 1.89966 27.9147 1.92453C28.2007 2.04886 28.3872 2.19806 28.5115 2.30996C28.5613 2.3597 28.5986 2.397 28.6234 2.4343L28.6359 2.44673C28.6483 2.4716 28.6607 2.49647 28.6607 2.49647Z" fill="#1A0B03"/>
<path d="M34.9509 7.36996C34.9509 7.36996 34.8888 7.28293 34.7644 7.18346C34.7023 7.13372 34.6277 7.09642 34.5406 7.05912C34.4536 7.02182 34.3417 7.00939 34.2298 7.00939C34.0557 7.00939 33.7698 7.08399 33.4589 7.18346C33.173 7.27049 32.8621 7.38239 32.5762 7.49429C32.9492 7.05912 33.2849 6.57422 33.5833 6.06445C33.72 6.06445 33.8568 6.10175 33.9936 6.16392C34.1676 6.25095 34.3293 6.37529 34.5033 6.56179C34.6153 6.67369 34.6898 6.78559 34.7644 6.88506C34.8266 6.98452 34.8763 7.07156 34.9012 7.14616C34.9385 7.28293 34.9509 7.36996 34.9509 7.36996Z" fill="#1A0B03"/>
<path d="M36.1666 8.94934C36.1666 8.94934 36.1044 8.84987 35.9925 8.7504C35.9303 8.70067 35.8682 8.65093 35.7811 8.6012C35.6941 8.5639 35.5946 8.5266 35.4703 8.51417C35.1222 8.4893 34.3264 8.6758 33.6675 8.84987C33.2323 8.96177 32.9215 8.84987 32.6355 8.62607C32.4739 8.50173 32.3246 8.29037 32.2127 8.1163C32.1754 8.05413 32.1506 8.0044 32.1133 7.95467C32.1506 7.91737 32.1754 7.8925 32.2127 7.8552C32.25 7.86763 32.2998 7.88006 32.3495 7.8925C32.5236 7.94223 32.7474 7.97953 32.909 7.9671C33.2323 7.9298 33.5307 7.84276 33.7794 7.76816C34.0405 7.69356 34.2643 7.60653 34.4383 7.5568C34.7119 7.4822 34.9481 7.49463 35.1719 7.58166C35.3957 7.6687 35.5822 7.84276 35.7687 8.09143C35.9676 8.32767 36.0547 8.5639 36.1044 8.7131C36.1666 8.8623 36.1666 8.94934 36.1666 8.94934Z" fill="#1A0B03"/>
<path d="M34.105 9.33337C33.9433 9.33337 33.7195 9.27121 33.5579 9.20904C33.4709 9.17174 33.3963 9.14687 33.3341 9.122C33.2844 9.09714 33.2471 9.0847 33.2471 9.0847C33.2471 9.0847 33.3092 9.23391 33.3963 9.42041C33.4833 9.60691 33.6201 9.83071 33.7568 9.96748C33.906 10.1167 34.0677 10.2286 34.2666 10.2783L36.0073 9.05984C35.9078 9.0474 35.7959 9.05984 35.6716 9.07227C35.4851 9.09714 35.2613 9.1593 34.9877 9.22147C34.851 9.24634 34.7142 9.27121 34.565 9.29607C34.4158 9.32094 34.2666 9.33337 34.105 9.33337Z" fill="#1A0B03"/>
<path d="M36.579 10.1559C36.8028 10.1932 36.9644 10.33 37.0763 10.4419C37.1882 10.5538 37.2255 10.6533 37.2255 10.6533C37.2255 10.6533 37.2379 10.5662 37.2006 10.4046C37.1882 10.33 37.1633 10.2305 37.1136 10.1186C37.0763 10.0067 37.0141 9.88239 36.9271 9.75806C36.666 9.34775 36.38 9.11152 35.9946 9.07422L34.2539 10.2927C34.4031 10.33 34.5647 10.3424 34.7512 10.3176C35.4226 10.2057 36.2432 10.0938 36.579 10.1559Z" fill="#1A0B03"/>
<path d="M37.523 11.884C37.7468 11.9462 37.896 12.0954 37.983 12.2197C38.0825 12.344 38.1198 12.4559 38.1198 12.4559C38.1198 12.4559 38.1322 12.3689 38.1198 12.2073C38.1074 12.0456 38.0576 11.8094 37.9209 11.5359C37.7841 11.2623 37.6225 11.051 37.436 10.9142C37.3365 10.852 37.237 10.8023 37.1127 10.7774C36.9884 10.7526 36.864 10.7401 36.7272 10.7526C36.5407 10.765 36.3045 10.8023 36.031 10.8272C35.7574 10.852 35.459 10.8645 35.1358 10.8396C34.9741 10.8272 34.7628 10.7401 34.6011 10.6655C34.5141 10.6282 34.4519 10.5909 34.3898 10.5536C34.34 10.5288 34.3027 10.5039 34.3027 10.5039C34.3027 10.5039 34.3027 10.5163 34.3152 10.5288C34.3152 10.5412 34.3276 10.5661 34.34 10.6034C34.3649 10.6655 34.3898 10.7526 34.4271 10.852C34.4644 10.9515 34.5017 11.051 34.5638 11.1504C34.6136 11.2499 34.6757 11.3494 34.7379 11.424C34.8498 11.5607 34.9741 11.6726 35.1358 11.7472C35.2974 11.8218 35.4839 11.8591 35.6953 11.8467C36.031 11.8343 36.404 11.8094 36.7397 11.8218C37.063 11.8218 37.3614 11.8343 37.523 11.884Z" fill="#1A0B03"/>
<path d="M36.0047 12.4091C35.8431 12.3842 35.6442 12.2723 35.4825 12.1728C35.3209 12.0734 35.209 11.9863 35.209 11.9863C35.209 11.9863 35.2339 12.148 35.2836 12.3469C35.3333 12.5458 35.4204 12.7821 35.5323 12.9561C35.6442 13.1302 35.7809 13.267 35.9674 13.3664L37.9195 12.5334C37.82 12.5085 37.7081 12.4837 37.5838 12.4837C37.3973 12.4712 37.161 12.4837 36.8875 12.4837C36.7507 12.4837 36.614 12.4837 36.4648 12.4712C36.328 12.4588 36.1664 12.4339 36.0047 12.4091Z" fill="#1A0B03"/>
<path d="M38.2702 13.7124C38.4815 13.7995 38.6183 13.9611 38.7053 14.0854C38.7924 14.2222 38.8172 14.3341 38.8172 14.3341C38.8172 14.3341 38.8421 14.2471 38.8421 14.0854C38.8421 13.9238 38.8172 13.6876 38.7178 13.3892C38.6307 13.1654 38.5313 12.9789 38.3945 12.8297C38.2702 12.6929 38.121 12.581 37.9345 12.5312L35.9824 13.3643C36.1192 13.4265 36.2684 13.4762 36.4549 13.4886C36.7906 13.5135 37.176 13.5259 37.4993 13.5632C37.6609 13.5757 37.8226 13.6005 37.9593 13.6254C38.0837 13.6503 38.1956 13.6751 38.2702 13.7124Z" fill="#1A0B03"/>
<path d="M38.8409 15.6035C39.0398 15.7154 39.1641 15.8771 39.2263 16.0263C39.2885 16.163 39.3133 16.2749 39.3133 16.2749C39.3133 16.2749 39.3506 16.1879 39.3631 16.0263C39.3755 15.8646 39.3755 15.6284 39.3009 15.33C39.2263 15.0316 39.102 14.7954 38.9403 14.6213C38.8533 14.5343 38.7663 14.4721 38.6544 14.4099C38.5425 14.3602 38.4181 14.3229 38.2814 14.298C37.9084 14.2483 37.324 14.2483 36.7148 14.0618C36.5531 14.0121 36.3666 13.8877 36.2174 13.7758C36.0682 13.6639 35.9688 13.5645 35.9688 13.5645C35.9688 13.5645 35.9812 13.7261 36.006 13.925C36.0185 14.0245 36.0433 14.1364 36.0806 14.2483C36.118 14.3602 36.1428 14.4721 36.1925 14.5591C36.2796 14.7208 36.3791 14.8575 36.5158 14.957C36.5531 14.9819 36.5904 15.0067 36.6277 15.0316C36.665 15.0565 36.7023 15.0689 36.7521 15.0938C36.8391 15.1311 36.9386 15.1559 37.038 15.1684C37.3737 15.2181 37.7467 15.2803 38.07 15.3549C38.2316 15.3922 38.3808 15.4295 38.5176 15.4668C38.6544 15.5165 38.7663 15.5538 38.8409 15.6035Z" fill="#1A0B03"/>
<path d="M37.2623 15.8024C37.1131 15.7402 36.9391 15.591 36.8023 15.4667C36.6655 15.3424 36.5661 15.2305 36.5661 15.2305C36.5661 15.2305 36.5536 15.3921 36.5661 15.591C36.5785 15.6905 36.5785 15.8024 36.6034 15.9143C36.6158 16.0262 36.6407 16.1381 36.678 16.2376C36.7526 16.4365 36.8645 16.5981 37.0261 16.7225L39.1025 16.2997C39.003 16.25 38.9036 16.2127 38.7792 16.1754C38.4435 16.1008 37.8467 16.0511 37.2623 15.8024Z" fill="#1A0B03"/>
<path d="M39.2152 17.5271C39.4017 17.6514 39.5136 17.8379 39.5633 17.9871C39.5882 18.0617 39.6006 18.1239 39.613 18.1736C39.6255 18.2233 39.6255 18.2482 39.6255 18.2482C39.6255 18.2482 39.6379 18.2233 39.6503 18.186C39.6628 18.1487 39.6876 18.0866 39.7001 18.012C39.7374 17.8503 39.7498 17.6141 39.7125 17.3033C39.7001 17.1789 39.6628 17.067 39.6379 16.9676C39.6006 16.8681 39.5633 16.7686 39.5136 16.694C39.4141 16.5324 39.2898 16.3956 39.1281 16.3086L37.0518 16.7313C37.1637 16.8308 37.3129 16.893 37.4869 16.9427C38.1335 17.1168 38.9416 17.3406 39.2152 17.5271Z" fill="#1A0B03"/>
<path d="M39.3901 19.4922C39.5641 19.6414 39.6512 19.8279 39.6885 19.9771C39.7258 20.1263 39.7258 20.2382 39.7258 20.2382C39.7258 20.2382 39.7755 20.1636 39.8252 20.0144C39.875 19.8652 39.9123 19.629 39.9123 19.3181C39.9123 19.2435 39.8998 19.1689 39.8874 19.0943C39.875 19.0197 39.8625 18.9576 39.8501 18.8954C39.8128 18.7711 39.7631 18.6592 39.7009 18.5597C39.5766 18.3608 39.3901 18.2116 39.1165 18.1245C38.7684 18.0002 38.184 17.8883 37.6245 17.5775C37.4878 17.5029 37.3137 17.3412 37.2018 17.2045C37.0775 17.0677 36.9904 16.9434 36.9904 16.9434C36.9904 16.9434 36.9656 17.105 36.9531 17.3039C36.9531 17.4034 36.9531 17.5277 36.9531 17.6396C36.9531 17.7515 36.9656 17.8634 36.9904 17.9629C37.0402 18.137 37.1148 18.2862 37.2391 18.4229C37.351 18.5473 37.5002 18.6592 37.7116 18.7338C38.3581 18.97 39.129 19.2684 39.3901 19.4922Z" fill="#1A0B03"/>
<path d="M37.796 19.3681C37.6593 19.2811 37.5101 19.0946 37.4106 18.9454C37.2987 18.7962 37.2241 18.6719 37.2241 18.6719C37.2241 18.6719 37.1868 18.8335 37.1619 19.0324C37.1495 19.1319 37.1371 19.2438 37.1371 19.3681C37.1246 19.48 37.1246 19.5919 37.1495 19.7038C37.1868 19.9152 37.2614 20.0893 37.3982 20.2509H39.5119C39.4248 20.1887 39.3378 20.1266 39.2259 20.0768C38.8902 19.9028 38.3182 19.7287 37.796 19.3681Z" fill="#1A0B03"/>
<path d="M10.5801 39.646C10.7044 39.4595 10.866 39.3725 10.9904 39.3227C11.1271 39.273 11.2142 39.273 11.2142 39.273C11.2142 39.273 11.2017 39.2606 11.1644 39.2481C11.1271 39.2357 11.0774 39.2108 11.0028 39.1984C10.866 39.1611 10.6547 39.1238 10.3936 39.1487C10.12 39.1611 9.89624 39.2233 9.72217 39.3476C9.53567 39.4595 9.3989 39.646 9.29943 39.9071C9.16267 40.2428 9.01347 40.8147 8.6156 41.337C8.51613 41.4737 8.32963 41.5981 8.15556 41.6975C7.99393 41.797 7.84473 41.8592 7.84473 41.8592C7.84473 41.8592 8.00636 41.9089 8.23016 41.9462C8.45396 41.9835 8.7275 42.0208 8.9513 41.9835C9.34917 41.9213 9.66 41.7348 9.83407 41.3245C10.1325 40.678 10.406 39.9195 10.5801 39.646Z" fill="#1A0B03"/>
<path d="M10.5185 41.2382C10.419 41.375 10.2325 41.5117 10.0709 41.6236C9.98383 41.6734 9.90923 41.7231 9.85949 41.748C9.79733 41.7853 9.77246 41.7977 9.77246 41.7977C9.77246 41.7977 9.80976 41.8101 9.88436 41.8226C9.95896 41.835 10.0584 41.8599 10.1703 41.8723C10.3941 41.8972 10.6801 41.922 10.9039 41.8723C11.1401 41.8226 11.3266 41.7355 11.4883 41.5863L11.2645 39.4727C11.2147 39.5597 11.165 39.6592 11.1277 39.7711C11.0034 40.1192 10.8915 40.6911 10.5185 41.2382Z" fill="#1A0B03"/>
<path d="M12.3356 39.437C12.3853 39.3375 12.4351 39.2629 12.4972 39.2007C12.5594 39.1386 12.6091 39.1013 12.6713 39.064C12.721 39.0391 12.7708 39.0142 12.8081 39.0018C12.8329 38.9894 12.8578 38.9894 12.8578 38.9894C12.8578 38.9894 12.8454 38.9769 12.8205 38.9645C12.7956 38.9521 12.7335 38.9396 12.6713 38.9272C12.6091 38.9148 12.5345 38.9023 12.4351 38.9023C12.3853 38.9023 12.348 38.9023 12.2859 38.9148C12.2361 38.9148 12.174 38.9272 12.1118 38.9396C11.7264 39.0142 11.4404 39.151 11.2539 39.4743L11.4777 41.588C11.5896 41.4761 11.6891 41.3393 11.7512 41.1652C11.8134 41.0036 11.8631 40.8295 11.9253 40.6679C11.975 40.4938 12.0372 40.3322 12.0745 40.1705C12.174 39.8473 12.261 39.5737 12.3356 39.437Z" fill="#1A0B03"/>
<path d="M13.7893 38.9022C13.8141 38.6908 13.9012 38.5416 13.9882 38.4422C14.0255 38.3924 14.0752 38.3551 14.1001 38.3303C14.125 38.3054 14.1498 38.293 14.1498 38.293C14.1498 38.293 14.0628 38.293 13.9385 38.3178C13.8017 38.3427 13.6276 38.3924 13.4287 38.5043C13.379 38.5292 13.3292 38.5541 13.2919 38.5914C13.2546 38.6162 13.2173 38.6411 13.18 38.6784C13.1054 38.7406 13.0557 38.8027 13.0184 38.8773C12.9687 38.9519 12.9438 39.039 12.9189 39.1384C12.9065 39.1882 12.8941 39.2503 12.8816 39.3001C12.8692 39.3622 12.8568 39.4244 12.8443 39.4866C12.8195 39.6606 12.7946 39.8969 12.7449 40.158C12.72 40.2947 12.6827 40.4315 12.633 40.5807C12.5832 40.7175 12.5211 40.8667 12.434 41.0035C12.347 41.1527 12.1729 41.3143 12.0113 41.4386C11.8497 41.5505 11.7129 41.6376 11.7129 41.6376C11.7129 41.6376 11.887 41.6624 12.1232 41.6873C12.2475 41.6873 12.3843 41.6873 12.5086 41.6749C12.5708 41.6749 12.6454 41.6624 12.7076 41.65C12.7697 41.6376 12.8319 41.6251 12.8941 41.6003C13.1054 41.5257 13.2919 41.4262 13.4411 41.2894C13.6028 41.1278 13.7147 40.9537 13.752 40.7175C13.8639 40.0212 13.7644 39.213 13.7893 38.9022Z" fill="#1A0B03"/>
<path d="M14.3993 40.3679C14.3744 40.4549 14.3371 40.5544 14.2874 40.6414C14.2252 40.7409 14.163 40.8279 14.0884 40.9149C13.9392 41.0766 13.79 41.2133 13.79 41.2133C13.79 41.2133 13.8025 41.2133 13.8273 41.2133C13.8522 41.2133 13.8895 41.2009 13.9268 41.2009C13.9641 41.1885 14.0263 41.1885 14.076 41.176C14.1009 41.1636 14.1382 41.1636 14.163 41.1512C14.1879 41.1387 14.2252 41.1387 14.2625 41.1263C14.3868 41.089 14.536 41.0393 14.6728 40.9771C14.735 40.9522 14.8096 40.9149 14.8717 40.8776C14.9339 40.8403 14.9836 40.803 15.0334 40.7657C15.0831 40.7284 15.1328 40.6911 15.1826 40.6414C15.2199 40.6041 15.2696 40.5544 15.2945 40.5046C15.3691 40.4176 15.4188 40.3181 15.4561 40.2062L14.2501 38.4531C14.2501 38.5526 14.2625 38.6645 14.2749 38.7764C14.2998 38.9505 14.362 39.1867 14.3993 39.4478C14.4117 39.5846 14.4241 39.7213 14.4241 39.8705C14.449 40.0446 14.4366 40.2062 14.3993 40.3679Z" fill="#1A0B03"/>
<path d="M15.1913 37.9077C15.1913 37.6839 15.2659 37.5223 15.3529 37.4104C15.44 37.2985 15.5146 37.2363 15.5146 37.2363C15.5146 37.2363 15.4275 37.2363 15.2908 37.2861C15.2286 37.3109 15.1416 37.3482 15.0545 37.398C14.9675 37.4477 14.868 37.5099 14.7561 37.5969C14.4329 37.858 14.2712 38.1067 14.2588 38.4797L15.4648 40.2328C15.5146 40.0836 15.5394 39.9095 15.5146 39.723C15.4151 39.0143 15.2037 38.2434 15.1913 37.9077Z" fill="#1A0B03"/>
<path d="M16.5735 36.7256C16.5611 36.278 16.8843 36.0293 16.8843 36.0293C16.8843 36.0293 16.7973 36.0417 16.6605 36.0915C16.5238 36.1536 16.3248 36.2531 16.1259 36.4396C15.7032 36.8126 15.5664 37.1732 15.7156 37.7078C15.8151 38.0559 16.0513 38.603 16.0513 39.262C16.0513 39.4236 15.9767 39.6598 15.8897 39.8339C15.8524 39.9209 15.8026 40.008 15.7778 40.0701C15.7405 40.1323 15.728 40.1572 15.728 40.1572C15.728 40.1572 15.7778 40.1447 15.8399 40.1199C15.9145 40.095 16.0016 40.0453 16.1135 39.9955C16.3248 39.8961 16.5735 39.7344 16.7351 39.5728C17.0211 39.2744 17.1455 38.9263 17.0335 38.5035C16.8346 37.8321 16.5859 37.0613 16.5735 36.7256Z" fill="#1A0B03"/>
<path d="M17.4825 38.031C17.4949 38.1927 17.4328 38.4165 17.3706 38.603C17.3084 38.7895 17.2463 38.9262 17.2463 38.9262C17.2463 38.9262 17.4079 38.8516 17.5944 38.7397C17.7933 38.6278 18.0171 38.4662 18.1663 38.3046C18.3155 38.1305 18.415 37.944 18.4399 37.7451L17.0225 36.166C17.0349 36.2655 17.0473 36.3774 17.0846 36.4893C17.1965 36.8498 17.4452 37.3845 17.4825 38.031Z" fill="#1A0B03"/>
<path d="M18.4408 37.7577L17.0234 36.1787C17.0234 36.1165 17.0234 36.0544 17.0234 35.9922C17.0483 36.0046 17.0732 36.0046 17.0856 36.0046C17.1353 36.0171 17.1975 36.0295 17.2845 36.0046C17.297 36.0171 17.3094 36.0419 17.3218 36.0668C17.3591 36.1165 17.4213 36.2036 17.4835 36.303C17.6824 36.5766 17.8813 36.7755 18.0678 36.8998C18.1424 36.9496 18.2419 36.9993 18.3289 37.0366C18.3538 37.1112 18.3787 37.1858 18.3911 37.2604C18.4657 37.4345 18.4657 37.6085 18.4408 37.7577Z" fill="#1A0B03"/>
<path d="M18.8856 37.5569C18.8981 37.5569 18.8981 37.5569 18.8856 37.5569C18.7489 37.6439 18.6494 37.6936 18.6494 37.6936C18.6494 37.6936 18.7116 37.5569 18.7613 37.3828C18.7986 37.4325 18.8483 37.4823 18.8856 37.5569Z" fill="#1A0B03"/>
<path d="M19.9293 33.5547C19.9293 33.5547 19.9045 33.5671 19.8547 33.6044C19.8299 33.6169 19.8174 33.6293 19.7926 33.6542C19.7553 33.6293 19.718 33.6169 19.6807 33.6044C19.8423 33.5547 19.9293 33.5547 19.9293 33.5547Z" fill="#1A0B03"/>
<path d="M20.1163 33.8509C20.0915 33.826 20.0542 33.8012 20.0293 33.7887C20.0293 33.7639 20.0293 33.7514 20.0417 33.7266L20.1163 33.8509Z" fill="#1A0B03"/>
<path d="M22.5787 32.9852C22.5662 32.9852 22.5289 32.9728 22.4668 32.9603C22.3922 32.9479 22.2927 32.9355 22.1684 32.9479C22.1062 32.9479 22.044 32.9603 21.9819 32.9728C21.9197 32.9852 21.8575 33.0101 21.7954 33.0349C21.7332 33.0598 21.671 33.0971 21.6213 33.1344C21.5964 33.1468 21.5716 33.1717 21.5343 33.1966C21.5094 33.2214 21.4845 33.2463 21.4597 33.2712C21.3105 33.4204 21.1986 33.7188 21.1613 34.0545C21.1364 34.2285 21.1364 34.3902 21.1364 34.5767C21.1364 34.6761 21.1488 34.7756 21.1488 34.8751C21.0494 34.8253 20.9499 34.788 20.838 34.7632C20.8256 34.7134 20.8007 34.6637 20.7634 34.614C20.6515 34.3902 20.4774 34.1912 20.2661 33.9923C20.2163 33.955 20.1666 33.9053 20.1293 33.868L20.0547 33.7436C20.0671 33.6442 20.1044 33.5571 20.1542 33.4701C20.2039 33.3831 20.2661 33.296 20.3531 33.2214C20.3904 33.1841 20.4401 33.1468 20.4899 33.1095C20.5396 33.0722 20.6018 33.0349 20.6639 33.0101C20.7012 32.9976 20.7261 32.9728 20.7634 32.9603C20.8007 32.9479 20.8256 32.923 20.8753 32.9106C20.9499 32.8857 21.0369 32.8484 21.1364 32.8236L21.1737 32.8111C21.1861 32.8111 21.211 32.7987 21.2234 32.7987C21.2607 32.7987 21.2856 32.7863 21.3229 32.7863C21.3851 32.7738 21.4472 32.7738 21.497 32.7614C21.5591 32.749 21.6089 32.7614 21.6586 32.7614C21.7083 32.7614 21.7456 32.7614 21.7954 32.7614C21.9819 32.7738 22.1311 32.8111 22.243 32.8484C22.3673 32.8857 22.4543 32.923 22.5041 32.9603C22.5414 32.9603 22.5662 32.9852 22.5787 32.9852Z" fill="#1A0B03"/>
<path d="M24.654 35.0477C24.654 35.1099 24.6416 35.1347 24.6416 35.1347C24.6416 35.1347 24.6291 35.0974 24.6167 35.0353C24.5918 34.9731 24.567 34.8861 24.5048 34.7866C24.3929 34.6001 24.194 34.3763 23.9329 34.2893C23.7339 34.2271 23.4106 34.2271 23.0874 34.339C22.7641 34.4509 22.4533 34.6623 22.2668 34.9109C22.1424 35.0726 22.0554 35.1969 22.0057 35.2839C21.9684 35.3461 21.9311 35.3958 21.8938 35.4331C21.8067 35.3337 21.7197 35.2466 21.6202 35.1596C21.5954 35.1347 21.5581 35.1099 21.5332 35.085C21.5705 34.998 21.5954 34.9109 21.6078 34.8363C21.6202 34.799 21.6202 34.7617 21.6327 34.7244C21.6451 34.6871 21.6451 34.6623 21.6575 34.625C21.67 34.5504 21.6948 34.4882 21.7197 34.4136C21.7694 34.2768 21.8192 34.1401 21.8689 34.0157C21.9186 33.8914 21.9808 33.7795 22.043 33.6676C22.1051 33.5681 22.1673 33.4687 22.2295 33.394C22.4284 33.1578 22.7268 33.0459 23.0874 33.0832C23.2739 33.1081 23.4728 33.1702 23.6593 33.2822C23.8583 33.3941 24.0448 33.5557 24.2064 33.7671C24.368 33.966 24.4675 34.1649 24.5421 34.339C24.6043 34.5131 24.6416 34.6498 24.654 34.7742C24.6664 34.9109 24.6664 34.998 24.654 35.0477Z" fill="#1A0B03"/>
<path d="M22.5663 35.0961C22.529 35.1086 22.5042 35.121 22.4669 35.121C22.4296 35.1334 22.3923 35.1459 22.3674 35.1583C22.3301 35.1707 22.3052 35.1832 22.2804 35.1956C22.2555 35.208 22.2306 35.2205 22.2058 35.2329C22.156 35.2578 22.1312 35.2951 22.1063 35.3075C22.0814 35.3324 22.069 35.3448 22.069 35.3448C22.069 35.3448 22.069 35.3572 22.069 35.3821C22.069 35.407 22.069 35.4318 22.069 35.4567C22.069 35.4816 22.0566 35.5064 22.069 35.5313C22.069 35.5562 22.0814 35.5686 22.1063 35.5935C22.156 35.6308 22.2555 35.6681 22.4047 35.7178L24.4562 35.1956C24.3567 35.1334 24.2448 35.0837 24.1205 35.0464C23.934 34.9967 23.6853 34.9842 23.4118 34.9967C23.1383 34.9842 22.8399 35.0091 22.5663 35.0961Z" fill="#1A0B03"/>
<path d="M24.3963 36.7141C24.4709 36.8136 24.5082 36.9379 24.5206 37.0498C24.5206 37.0747 24.5331 37.112 24.5331 37.1369C24.5331 37.1617 24.5331 37.199 24.5331 37.2363C24.5206 37.2985 24.5206 37.3731 24.5082 37.4353C24.4958 37.4601 24.4958 37.4974 24.4833 37.5223C24.4709 37.5472 24.4709 37.572 24.4585 37.5969C24.446 37.6466 24.4212 37.6839 24.4087 37.7088C24.3839 37.771 24.359 37.8083 24.359 37.8083C24.359 37.8083 24.3839 37.7958 24.4212 37.7461C24.4585 37.6964 24.5206 37.6466 24.5952 37.5347C24.6325 37.485 24.6698 37.4104 24.7071 37.3358C24.732 37.2985 24.7444 37.2612 24.7693 37.2239C24.7817 37.1866 24.7942 37.1617 24.8066 37.1244C24.8563 36.9877 24.9061 36.8136 24.9309 36.6022C25.0055 35.9557 24.819 35.4459 24.446 35.1973L22.3945 35.7195C22.5064 35.7568 22.6432 35.7941 22.8173 35.8314C23.1405 35.8935 23.4887 36.0303 23.7746 36.2044C24.0606 36.3536 24.2968 36.5525 24.3963 36.7141Z" fill="#1A0B03"/>
<path d="M23.139 38.767C23.1266 38.8914 23.0893 39.0033 23.0395 39.1027C22.9898 39.2022 22.9276 39.2768 22.8655 39.339C22.8033 39.4011 22.7411 39.4509 22.6914 39.4757C22.6417 39.5006 22.6168 39.5255 22.6168 39.5255C22.6168 39.5255 22.6417 39.5255 22.6914 39.513C22.7411 39.5006 22.8157 39.5006 22.9028 39.4633C22.9898 39.4384 23.1017 39.3887 23.226 39.3265C23.2882 39.2892 23.3504 39.2519 23.425 39.2022C23.4871 39.1525 23.5617 39.1027 23.6363 39.0281C23.7109 38.966 23.7731 38.8914 23.8353 38.8292C23.8974 38.7546 23.9472 38.6924 23.9969 38.6178C24.0218 38.5805 24.0467 38.5432 24.0591 38.5184C24.084 38.4811 24.0964 38.4438 24.1088 38.4065C24.1461 38.3319 24.171 38.2573 24.1834 38.1951C24.2207 38.0459 24.2332 37.8967 24.2083 37.7599C24.1834 37.6107 24.1337 37.474 24.0467 37.3496C23.9969 37.275 23.9223 37.1756 23.8353 37.0885C23.7482 37.0015 23.6612 36.9145 23.5493 36.8274C23.3379 36.6534 23.1017 36.4669 22.8655 36.2928C22.7411 36.2057 22.6292 36.0565 22.5173 35.9695C22.4179 35.87 22.3433 35.8203 22.3433 35.8203C22.3433 35.8203 22.3308 35.8452 22.3184 35.8825C22.306 35.9198 22.2811 35.9695 22.2687 36.0317C22.2314 36.1436 22.1816 36.2803 22.1816 36.4047C22.1816 36.4296 22.1816 36.4668 22.1941 36.4917V36.5166C22.1941 36.5166 22.1941 36.5166 22.1941 36.529L22.2065 36.5415C22.2189 36.5539 22.2314 36.5663 22.2438 36.5788C22.2562 36.6036 22.2687 36.6161 22.2811 36.6409C22.2935 36.6658 22.3184 36.6907 22.3308 36.7155C22.3433 36.7404 22.3681 36.7777 22.3806 36.815C22.4179 36.8896 22.48 36.9642 22.5298 37.0512C22.6168 37.188 22.7163 37.3372 22.7909 37.4988C22.8655 37.6605 22.9276 37.8221 22.9898 37.9713C23.0395 38.1329 23.0768 38.2821 23.1017 38.4189C23.139 38.5557 23.1514 38.68 23.139 38.767Z" fill="#1A0B03"/>
<path d="M22.232 37.4594C22.2196 37.3848 22.2196 37.2978 22.2071 37.2108C22.2071 37.1237 22.2071 37.0367 22.2071 36.9745C22.2071 36.8999 22.1947 36.8377 22.1947 36.8004C22.1947 36.7756 22.1823 36.7631 22.1823 36.7507C22.1823 36.7383 22.1823 36.7383 22.1823 36.7383C22.1823 36.7383 22.1574 36.7507 22.1325 36.7631C22.1077 36.7756 22.0952 36.788 22.0704 36.8004C22.0455 36.8129 22.0206 36.8253 21.9958 36.8502C21.9336 36.8875 21.8714 36.9248 21.8093 36.9745C21.772 36.9994 21.7471 37.0242 21.7222 37.0491C21.6849 37.074 21.6601 37.0989 21.6352 37.1237C21.5855 37.1859 21.5357 37.2481 21.5109 37.3102C21.4736 37.3848 21.4487 37.4594 21.4238 37.5465L22.518 39.3617C22.5428 39.2498 22.5428 39.1379 22.5428 39.0136C22.5304 38.8271 22.4682 38.5909 22.4185 38.3173C22.3936 38.1806 22.3563 38.0438 22.3315 37.8946C22.2942 37.7578 22.2693 37.6086 22.232 37.4594Z" fill="#1A0B03"/>
<path d="M21.224 39.8222C21.1618 39.9341 21.0872 40.0211 21.0126 40.0833C20.9256 40.1579 20.8386 40.1952 20.7515 40.2325C20.6645 40.2698 20.5899 40.2947 20.5402 40.2947C20.4904 40.3071 20.4531 40.3071 20.4531 40.3071C20.4531 40.3071 20.478 40.3195 20.5277 40.332C20.5775 40.3444 20.6396 40.3568 20.7391 40.3693C20.9256 40.3817 21.2116 40.3693 21.5597 40.2574C22.1068 40.0709 22.43 39.76 22.5171 39.3622L21.4229 37.5469C21.3981 37.6836 21.3856 37.8328 21.3981 38.0069C21.4354 38.3426 21.4354 38.7156 21.4105 39.0513C21.3732 39.3622 21.2986 39.6606 21.224 39.8222Z" fill="#1A0B03"/>
<path d="M19.0596 40.0323C18.8855 40.1939 18.6742 40.2561 18.5125 40.2685C18.3509 40.281 18.2266 40.2561 18.2266 40.2561C18.2266 40.2561 18.239 40.2685 18.2763 40.2934C18.3136 40.3183 18.3758 40.3556 18.4504 40.3929C18.612 40.4675 18.8482 40.5421 19.1839 40.5669C19.3456 40.5794 19.5072 40.5669 19.644 40.5421C19.7932 40.5172 19.9424 40.4675 20.0543 40.4053C20.1786 40.3431 20.2781 40.2561 20.3527 40.1566C20.39 40.1069 20.4273 40.0572 20.4646 39.995C20.5019 39.9328 20.5267 39.8707 20.5392 39.7961C20.6013 39.6096 20.6386 39.3733 20.6884 39.1122C20.7132 38.9755 20.7381 38.8387 20.763 38.6895C20.7754 38.6149 20.7878 38.5403 20.8127 38.4781C20.8251 38.4035 20.85 38.3289 20.8624 38.2543C20.8749 38.1797 20.9122 38.0927 20.9495 38.0181C20.9868 37.9311 21.0241 37.8565 21.0614 37.7819C21.0987 37.7197 21.136 37.6451 21.1608 37.6078C21.1857 37.5705 21.1981 37.5332 21.1981 37.5332C21.1981 37.5332 21.1608 37.5332 21.1111 37.5456C21.0614 37.5581 20.9868 37.5705 20.9122 37.5705C20.8749 37.5705 20.8251 37.5829 20.7878 37.5954C20.7505 37.6078 20.7008 37.6078 20.6635 37.6202C20.6262 37.6327 20.5765 37.6451 20.5392 37.6575C20.5019 37.67 20.4646 37.6824 20.4273 37.6948C20.4024 37.7073 20.3651 37.7321 20.3402 37.7446C20.3154 37.7694 20.2905 37.7819 20.2532 37.8067C20.2035 37.844 20.1537 37.8938 20.104 37.9559C20.017 38.0678 19.9299 38.2295 19.8678 38.4284C19.818 38.59 19.7559 38.7517 19.6937 38.9133C19.6191 39.0749 19.5445 39.2366 19.4699 39.3858C19.358 39.6717 19.1964 39.9204 19.0596 40.0323Z" fill="#1A0B03"/>
<path d="M19.9539 37.9441C19.9539 37.9441 19.9539 37.9441 19.9415 37.9566C19.929 37.969 19.9166 37.9814 19.8917 37.9939C19.8544 38.0187 19.8047 38.0685 19.7425 38.1182C19.6928 38.1679 19.6058 38.2301 19.5312 38.2798C19.4566 38.342 19.3944 38.4042 19.3447 38.4663C18.9592 38.9637 18.7106 39.4983 18.4992 39.8091C18.4246 39.9086 18.35 39.9956 18.2754 40.0578L18.5116 38.5285C18.6857 38.3171 18.7852 38.0809 18.8349 37.8447C18.9219 37.8198 19.0214 37.7949 19.1084 37.7949C19.2949 37.7825 19.5187 37.8322 19.6804 37.8695C19.755 37.882 19.8171 37.9068 19.8669 37.9192C19.9166 37.9441 19.9539 37.9441 19.9539 37.9441Z" fill="#1A0B03"/>
<path d="M18.5165 38.5293L18.2803 40.0586C17.9819 40.3073 17.5716 40.357 17.0494 40.1954C16.9375 40.1581 16.838 40.1208 16.751 40.0835C16.8504 40.0089 16.9375 39.9343 17.0121 39.8597C17.124 39.7353 17.2234 39.611 17.2856 39.4742C17.3602 39.4121 17.4348 39.3375 17.5094 39.2629C17.584 39.2256 17.6835 39.1758 17.8078 39.1012C18.1062 38.9272 18.33 38.7531 18.4792 38.579C18.4917 38.5666 18.5041 38.5542 18.5165 38.5293Z" fill="#1A0B03"/>
<path d="M15.367 36.7644C15.3546 36.7893 15.3421 36.8266 15.3297 36.8515C15.28 36.8639 15.2302 36.8763 15.1681 36.9012C15.0686 36.9385 14.9691 36.9758 14.8696 37.038C14.7453 37.1001 14.621 37.1872 14.5215 37.2742C14.4096 37.3612 14.2977 37.4607 14.1858 37.585C14.0739 37.4731 13.9744 37.3364 13.8998 37.1623C13.8874 37.125 13.875 37.1001 13.8625 37.0628C13.8501 37.038 13.8377 37.0007 13.8252 36.9634C13.8004 36.9012 13.7879 36.8266 13.7755 36.752C13.7631 36.6774 13.7506 36.6028 13.7506 36.5282C13.7506 36.4536 13.7382 36.3666 13.7506 36.2795C13.7631 35.8444 13.8998 35.5335 13.9993 35.347C14.049 35.2476 14.0988 35.1854 14.1361 35.1481C14.1609 35.1108 14.1858 35.0859 14.1858 35.0859C14.1858 35.0984 14.1734 35.1232 14.1485 35.1854C14.1236 35.2476 14.1112 35.3346 14.0988 35.4341C14.0739 35.633 14.1112 35.9065 14.2604 36.1179C14.3723 36.2671 14.621 36.4536 14.9194 36.6028C15.081 36.6774 15.2178 36.7271 15.367 36.7644Z" fill="#1A0B03"/>
<path d="M16.2879 35.8309C16.1387 35.9179 15.9895 36.0174 15.8527 36.1417C15.7906 36.2039 15.7284 36.2536 15.6787 36.3158C15.4797 36.1914 15.3056 36.0671 15.1316 35.9428C15.0197 35.8682 14.9202 35.7811 14.8332 35.7065C14.7461 35.6319 14.6591 35.5573 14.5969 35.4827C14.398 35.2589 14.311 34.9978 14.3483 34.687C14.3856 34.3762 14.5596 34.028 14.8953 33.7047C15.2435 33.369 15.5916 33.2198 15.8403 33.1701C15.9646 33.1452 16.0517 33.1328 16.1263 33.1328C16.1884 33.1328 16.2257 33.1328 16.2257 33.1328C16.2257 33.1328 16.1884 33.1452 16.1138 33.1701C16.0517 33.195 15.9522 33.2447 15.8527 33.3069C15.6538 33.4437 15.4549 33.6675 15.4176 33.9286C15.3803 34.1275 15.43 34.4383 15.5543 34.7492C15.6787 35.06 15.89 35.3708 16.1138 35.6071C16.1636 35.6817 16.2257 35.7563 16.2879 35.8309C16.2879 35.8184 16.2879 35.8184 16.2879 35.8309Z" fill="#1A0B03"/>
<path d="M16.9234 35.3326C16.9234 35.4445 16.911 35.5066 16.8986 35.5688L16.5877 35.6931C16.5629 35.7056 16.538 35.7056 16.5131 35.718C16.5007 35.7304 16.4758 35.7304 16.4634 35.7429C16.451 35.718 16.451 35.6931 16.4385 35.6558C16.4012 35.5315 16.3764 35.3574 16.3266 35.2207C16.2396 34.9471 16.1774 34.6612 16.1401 34.3876C16.1028 34.1141 16.1028 33.8654 16.1277 33.6789C16.1525 33.5546 16.1898 33.4303 16.2645 33.3184L16.9234 35.3326Z" fill="#1A0B03"/>
<path d="M18.0178 33.4791C18.0799 33.4542 18.1421 33.4418 18.2167 33.4418C18.254 33.4418 18.2913 33.4418 18.3286 33.4418C18.3659 33.4418 18.4032 33.4542 18.4405 33.4666C18.5151 33.4791 18.5773 33.5039 18.6394 33.5288C18.6643 33.5412 18.7016 33.5537 18.7265 33.5661C18.7513 33.5785 18.7762 33.591 18.7886 33.591C18.8259 33.6158 18.8632 33.6283 18.9005 33.6531C18.9254 33.6656 18.9503 33.6904 18.9751 33.7029C19.0124 33.7277 19.0373 33.7526 19.0373 33.7526C19.0373 33.7526 19.0249 33.7277 19.0124 33.6904C18.9876 33.6531 18.9627 33.591 18.9005 33.5164C18.8881 33.4915 18.8632 33.4791 18.8508 33.4542C18.8384 33.4418 18.8384 33.4293 18.8259 33.4169C18.8135 33.4045 18.8011 33.392 18.7886 33.3796C18.7389 33.3299 18.6767 33.2677 18.5773 33.2055C18.5275 33.1807 18.4902 33.1434 18.4405 33.1185C18.4156 33.1061 18.3908 33.0936 18.3659 33.0812C18.341 33.0688 18.3162 33.0563 18.2913 33.0439C18.2416 33.019 18.1918 32.9942 18.1421 32.9693C18.0924 32.9444 18.0302 32.9196 17.968 32.9071C17.5826 32.7828 17.2096 32.7828 16.9112 32.8698C16.6128 32.9444 16.389 33.1061 16.2646 33.305L16.9236 35.3192C16.9236 35.2197 16.9361 35.083 16.9609 34.9089C16.9982 34.5981 17.135 34.2499 17.3464 33.9764C17.5577 33.7277 17.8188 33.5412 18.0178 33.4791Z" fill="#1A0B03"/>
<path d="M19.7312 34.7854C20.1788 34.7233 20.4648 35.0217 20.4648 35.0217C20.4648 35.0217 20.4523 34.9346 20.3777 34.8103C20.3031 34.6735 20.1912 34.4995 19.9674 34.313C19.5447 33.9275 19.1095 33.8032 18.5749 34.027C18.4878 34.0643 18.3884 34.114 18.2889 34.1762C18.1894 34.2384 18.0651 34.3005 17.9532 34.3751C17.891 34.4124 17.8413 34.4497 17.7791 34.4995C17.717 34.5492 17.6672 34.5865 17.6175 34.6362C17.5678 34.686 17.5056 34.7357 17.4559 34.7854C17.4061 34.8352 17.3564 34.8849 17.3067 34.9471C17.2072 35.0465 17.1077 35.1709 17.058 35.2703C17.0456 35.2952 17.0331 35.3201 17.0207 35.3325C17.0083 35.3574 17.0083 35.3698 16.9958 35.3822C16.9834 35.4071 16.9834 35.432 16.9834 35.432C16.9834 35.432 16.9958 35.4444 17.0083 35.4568C17.0207 35.4693 17.0456 35.4941 17.058 35.519C17.0704 35.5314 17.0704 35.5439 17.0829 35.5563C17.0953 35.5687 17.0953 35.5687 17.1077 35.5812L17.1202 35.5936C17.1202 35.5936 17.1326 35.606 17.145 35.606C17.1575 35.606 17.1575 35.606 17.1699 35.606C17.1823 35.606 17.1948 35.606 17.1948 35.606C17.2072 35.5936 17.2072 35.5687 17.2569 35.5687C17.3191 35.5812 17.3813 35.5812 17.4683 35.5812C17.5429 35.5812 17.6299 35.5687 17.7294 35.5563C17.8164 35.5314 17.9159 35.5066 18.0154 35.4568C18.6495 35.1584 19.3955 34.8352 19.7312 34.7854Z" fill="#1A0B03"/>
<path d="M18.538 35.842C18.3764 35.8669 18.1526 35.842 17.9661 35.8172C17.8791 35.8047 17.792 35.7799 17.7423 35.7674C17.6801 35.755 17.6553 35.7426 17.6553 35.7426C17.6553 35.7426 17.6801 35.7799 17.705 35.8296C17.7423 35.8793 17.792 35.9539 17.8542 36.041C17.9785 36.215 18.1526 36.414 18.3391 36.5383C18.5256 36.6626 18.7245 36.7372 18.9359 36.7497L20.3409 35.1582C20.2414 35.1831 20.142 35.2079 20.0301 35.2577C19.6695 35.4069 19.1721 35.7177 18.538 35.842Z" fill="#1A0B03"/>
<path d="M21.7823 36.0524C21.7698 36.0773 21.7698 36.1022 21.7574 36.127C21.7201 36.1022 21.6828 36.0773 21.6206 36.0524C21.4963 35.9903 21.3098 35.9405 21.0984 35.9903C20.7752 36.0524 20.0416 36.413 19.4075 36.6741C19.2334 36.7487 19.0718 36.7736 18.9102 36.7611L20.3151 35.1697C20.6881 35.0951 20.9865 35.2194 21.3222 35.5054C21.5336 35.6794 21.6579 35.8535 21.7325 35.9778C21.7574 36.0027 21.7698 36.0276 21.7823 36.0524Z" fill="#1A0B03"/>
<path d="M21.7337 36.4754C21.6964 36.5002 21.6466 36.5251 21.6218 36.55C21.6093 36.5624 21.5845 36.5748 21.572 36.5873L21.5596 36.5997C21.5099 36.637 21.4726 36.6619 21.4477 36.6867L21.4353 36.6992C21.3855 36.7365 21.3358 36.7862 21.2861 36.8359L21.2488 36.8732C21.199 36.9354 21.1493 37.01 21.0996 37.1095C21.0996 37.1095 21.0996 37.1095 21.0871 37.1095L21.025 37.1219C20.9877 37.1219 20.9379 37.1343 20.8882 37.1343H20.8758C20.826 37.1468 20.7639 37.1468 20.7141 37.1592C20.7017 37.1592 20.6893 37.1592 20.6768 37.1592C20.6395 37.1592 20.6147 37.1716 20.5774 37.1841C20.5276 37.1965 20.4654 37.2089 20.4157 37.2338C20.3535 37.2462 20.2914 37.2711 20.2416 37.3084C20.1919 37.3333 20.1422 37.3581 20.1049 37.383L20.0924 37.3954C20.0676 37.4079 20.0427 37.4327 20.0054 37.4576C19.993 37.47 19.9805 37.4825 19.9681 37.4825C19.9184 37.47 19.8562 37.4452 19.7816 37.4327C19.6324 37.3954 19.4583 37.3581 19.2843 37.3457C19.2594 37.3208 19.247 37.296 19.2345 37.2711C19.0978 37.097 19.0107 36.9478 19.0107 36.9478C19.0107 36.9478 19.1599 36.9976 19.3464 37.0349C19.5329 37.0722 19.7692 37.097 19.9308 37.0722C20.5774 36.9478 21.0623 36.6121 21.3855 36.4505C21.4974 36.3883 21.6093 36.351 21.7212 36.3262C21.7212 36.351 21.7212 36.3759 21.7212 36.4132V36.4505C21.7337 36.4629 21.7337 36.4629 21.7337 36.4754Z" fill="#1A0B03"/>
<path d="M24.7049 38.117C24.7049 38.117 24.6923 38.1044 24.6797 38.1044L24.6923 38.0918C24.7049 38.1044 24.7049 38.117 24.7049 38.117Z" fill="#1A0B03"/>
<path d="M26.2089 38.7395C26.1965 38.7395 26.1219 38.7022 25.9975 38.7022C25.9727 38.7022 25.9354 38.7022 25.8981 38.7022C25.8608 38.7022 25.8235 38.7147 25.7862 38.7147C25.7116 38.7395 25.6121 38.7644 25.5251 38.8266C25.3883 38.9136 25.1769 39.1001 24.9283 39.3115C24.6796 39.5228 24.3936 39.7715 24.1076 39.9704C23.7471 40.2316 23.3616 40.2316 22.9638 40.0699C22.8892 40.0326 22.8021 39.9953 22.7275 39.9456H22.74H22.7648C22.827 39.9332 22.914 39.9207 23.0384 39.8834C23.1627 39.8461 23.287 39.7839 23.4238 39.7218L23.4487 39.7094C23.5233 39.6721 23.5979 39.6223 23.6725 39.5601C23.7471 39.498 23.8465 39.4358 23.9336 39.3488C24.0206 39.2742 24.0952 39.1996 24.1574 39.125L24.1698 39.1125C24.232 39.0255 24.2941 38.9509 24.3563 38.8639C24.3812 38.8266 24.406 38.7893 24.4433 38.7271V38.7147C24.4682 38.6649 24.4931 38.6276 24.5055 38.5779C24.5428 38.4784 24.5801 38.3914 24.605 38.3044C24.6299 38.2919 24.6423 38.2795 24.6672 38.2671C24.7666 38.2173 24.8661 38.1925 24.9656 38.18C25.065 38.1676 25.1645 38.1676 25.2764 38.1925C25.3759 38.2173 25.4878 38.2422 25.5997 38.2919C25.7116 38.3417 25.811 38.379 25.8856 38.4287C25.9602 38.4784 26.0224 38.5282 26.0721 38.5655C26.1592 38.6649 26.1965 38.7271 26.2089 38.7395Z" fill="#1A0B03"/>
<path d="M24.7686 40.2313C24.694 40.2686 24.5946 40.3059 24.4951 40.3183C24.3956 40.3432 24.2837 40.3556 24.1718 40.3556C24.0724 40.3681 23.9729 40.3681 23.9107 40.3556C23.8486 40.3556 23.7988 40.3556 23.7988 40.3556C23.7988 40.3556 23.8361 40.3805 23.8859 40.4302C23.948 40.48 24.0226 40.5421 24.1345 40.6167C24.234 40.6913 24.3459 40.7659 24.4702 40.8281C24.5946 40.8903 24.7189 40.94 24.8432 40.9773C25.0919 41.0395 25.3406 41.0395 25.5519 40.9649L26.1487 38.9258C26.0741 38.9879 25.9995 39.0626 25.9249 39.1496C25.813 39.2864 25.6638 39.4853 25.4773 39.6718C25.2908 39.8707 25.067 40.0821 24.7686 40.2313Z" fill="#1A0B03"/>
<path d="M27.1664 39.288C27.3405 39.1388 27.5145 39.1015 27.6513 39.0891C27.7881 39.0767 27.8875 39.1015 27.8875 39.1015C27.8875 39.1015 27.8254 39.0394 27.701 38.9648C27.5767 38.8902 27.4026 38.8031 27.1415 38.7534C27.0421 38.7285 26.9426 38.7285 26.8556 38.7161C26.7685 38.7037 26.6815 38.7161 26.6069 38.7285C26.4453 38.7534 26.2961 38.828 26.1593 38.9399L25.5625 40.979C25.7117 40.9168 25.8609 40.8173 25.9852 40.6806C26.2215 40.4195 26.4577 40.1335 26.6566 39.8724C26.868 39.6113 27.0421 39.3875 27.1664 39.288Z" fill="#1A0B03"/>
<path d="M28.933 39.5581C29.0946 39.4089 29.2687 39.3467 29.4179 39.3218C29.5546 39.297 29.6541 39.3218 29.6541 39.3218C29.6541 39.3218 29.5919 39.2597 29.4552 39.1975C29.3184 39.1353 29.1319 39.0607 28.8583 39.0234C28.7216 39.011 28.5972 38.9986 28.4853 39.011C28.3734 39.0234 28.2615 39.0359 28.1621 39.0856C27.9631 39.1602 27.7891 39.3094 27.6399 39.5456C27.5901 39.6202 27.528 39.7073 27.4658 39.8067C27.4036 39.9062 27.3415 40.0057 27.2544 40.1176C27.1052 40.3414 26.9063 40.5776 26.6576 40.789C26.5955 40.8387 26.5084 40.8885 26.409 40.9382C26.3095 40.9755 26.21 41.0128 26.1106 41.0377C25.9116 41.0874 25.75 41.1123 25.75 41.1123C25.75 41.1123 25.9116 41.1993 26.123 41.3112C26.1727 41.3361 26.2349 41.3609 26.2971 41.3858C26.3592 41.4107 26.4214 41.4231 26.4836 41.448C26.6079 41.4853 26.7322 41.5101 26.8566 41.5226C26.956 41.535 27.0555 41.5226 27.155 41.5226C27.2544 41.5101 27.3415 41.4853 27.4285 41.448C27.6026 41.3734 27.7518 41.249 27.8761 41.075C28.2864 40.4906 28.6967 39.7819 28.933 39.5581Z" fill="#1A0B03"/>
<path d="M28.5457 41.113C28.4213 41.2249 28.2224 41.3368 28.0359 41.3989C27.8494 41.4735 27.7002 41.5108 27.7002 41.5108C27.7002 41.5108 27.8618 41.5854 28.0732 41.66C28.2846 41.7346 28.5581 41.7968 28.7943 41.7968C29.0306 41.7968 29.2295 41.7471 29.416 41.6352L29.6398 39.5215C29.5652 39.5961 29.503 39.6831 29.4409 39.7826C29.2419 40.1059 29.0181 40.6529 28.5457 41.113Z" fill="#1A0B03"/>
<path d="M30.7464 39.7453C31.0572 39.422 31.4551 39.4842 31.4551 39.4842C31.4551 39.4842 31.3929 39.4344 31.2562 39.3723C31.1194 39.3101 30.9205 39.2479 30.6469 39.2231C30.2118 39.1858 29.8885 39.2728 29.6398 39.5339L29.416 41.6476C29.5528 41.5606 29.6647 41.4487 29.7642 41.287C29.8512 41.1378 29.9507 40.9886 30.0377 40.8394C30.1247 40.6902 30.2242 40.5286 30.2988 40.3918C30.4729 40.0934 30.6345 39.8572 30.7464 39.7453Z" fill="#1A0B03"/>
<path d="M64.8356 28.3821V29.4805C63.6151 29.45 62.5777 29.4195 61.6929 29.4195C61.0216 29.4195 60.3809 29.45 59.7401 29.4805C59.5265 29.0534 59.1909 28.5652 58.7637 28.0465L56.3228 25.2394C54.4921 23.0731 53.4852 21.9136 53.3937 21.7916C53.0885 21.456 52.8444 21.2424 52.6614 21.1508C52.5393 21.0898 52.4478 21.0593 52.3563 21.0593C52.2952 21.0593 52.2342 21.0898 52.1732 21.1203C52.1427 21.1508 52.1122 21.1813 52.0817 21.2119C52.0817 21.2424 52.0511 21.3339 52.0511 21.4865V24.2935L52.0817 26.765C52.0817 27.4362 52.1427 27.8329 52.2342 27.9855C52.2952 28.077 52.4173 28.138 52.5698 28.199C52.7224 28.2601 53.2716 28.2906 54.2175 28.3516V29.45C52.8444 29.389 51.4104 29.389 49.8848 29.389C48.5423 29.389 47.3218 29.4195 46.2539 29.45V28.3516C47.1082 28.3211 47.688 28.2601 47.9321 28.1685C48.0236 28.138 48.1151 28.077 48.1761 28.016C48.2372 27.955 48.2982 27.8329 48.3287 27.6803C48.3592 27.5278 48.3897 27.1922 48.4202 26.6735C48.4813 25.453 48.5423 24.5376 48.5423 23.9884V19.4422L48.4508 15.5672C48.4202 14.6213 48.3897 13.9806 48.3287 13.6755C48.2982 13.4924 48.2372 13.3703 48.1761 13.3093C48.1151 13.2483 48.0236 13.2178 47.9321 13.1568C47.749 13.0957 47.1998 13.0652 46.2539 13.0042V11.9668C47.3218 12.0278 48.5118 12.0278 49.8848 12.0278C51.4104 12.0278 52.8444 11.9973 54.2175 11.9668V13.0652C53.2411 13.0957 52.6614 13.1568 52.4478 13.2788C52.3257 13.3398 52.2342 13.5229 52.1732 13.767C52.0817 14.3162 52.0206 15.3536 52.0206 16.8487V20.2965L52.2342 20.388C53.0275 19.7473 54.0954 18.7404 55.4685 17.3369L57.2381 15.5367C57.8179 14.957 58.2145 14.5298 58.4586 14.2552L59.557 12.9737C59.557 12.7906 59.557 12.4855 59.5265 11.9973C60.3809 12.0278 60.9301 12.0278 61.2352 12.0278L64.1643 11.9973V13.0042C63.4015 13.0347 62.8218 13.0957 62.4862 13.1873C62.1505 13.2788 61.6929 13.5534 61.1742 13.9501C60.6555 14.3467 59.5876 15.2926 58.0009 16.7266L55.621 19.1065C56.0177 19.5947 56.6279 20.327 57.4212 21.2424L60.1673 24.4461C61.4488 25.9412 62.3031 26.9176 62.7303 27.4057C63.1879 27.8939 63.5236 28.1685 63.7066 28.2601C63.9812 28.3516 64.3169 28.3821 64.8356 28.3821Z" fill="#1A0B03"/>
<path d="M74.416 11.9668V13.0652C73.5616 13.0957 73.0734 13.1262 72.9209 13.1568C72.7683 13.1873 72.6463 13.2483 72.5853 13.3093C72.5242 13.3703 72.4632 13.4314 72.4327 13.5229C72.3717 13.6755 72.3412 13.9501 72.3106 14.3467C72.2801 14.5603 72.2801 14.9875 72.2801 15.5672C72.2496 17.6115 72.2191 18.7404 72.2191 18.893V23.9274L72.2496 26.2158C72.2496 27.0701 72.2801 27.6193 72.3717 27.8939C72.4022 28.016 72.4632 28.1075 72.5547 28.1685C72.6463 28.2296 72.7683 28.2906 72.9209 28.3211C73.0734 28.3516 73.5921 28.3821 74.416 28.4126V29.511C73.0429 29.45 71.6089 29.45 70.0528 29.45C68.7103 29.45 67.5203 29.4805 66.4524 29.511V28.4126C67.3067 28.3821 67.8254 28.3516 67.9475 28.3211C68.1305 28.2906 68.2526 28.2296 68.3136 28.1685C68.3746 28.1075 68.4051 28.0465 68.4357 27.9549C68.4662 27.8634 68.4967 27.4668 68.5272 26.765C68.5882 25.7581 68.6187 24.8428 68.6187 23.9884V18.7709C68.6187 17.1233 68.6187 16.0554 68.5882 15.5672C68.5577 14.4993 68.4967 13.8585 68.4357 13.5839C68.4051 13.4619 68.3746 13.4008 68.3136 13.3398C68.2526 13.2788 68.161 13.2483 68.0085 13.1873C67.8559 13.1262 67.3372 13.1262 66.4219 13.0957V11.9668C67.4593 12.0278 68.6797 12.0278 70.0528 12.0278C71.6089 12.0278 73.0429 12.0278 74.416 11.9668Z" fill="#1A0B03"/>
<path d="M79.7251 29.4805V28.4431C80.732 28.4126 81.3117 28.3516 81.4948 28.2296C81.6778 28.1075 81.7999 27.955 81.8914 27.7414C81.983 27.3752 82.044 26.3073 82.044 24.5071V17.0012C82.044 14.9569 82.044 13.828 82.0135 13.5839H80.2133C79.2979 13.5839 78.5046 13.6144 77.8334 13.6755C77.5587 13.706 77.4062 13.7365 77.3452 13.767C77.2841 13.828 77.2231 13.9501 77.1926 14.1942C77.0706 14.7739 77.0095 15.4451 77.0095 16.1469H75.9721C75.9416 14.4383 75.9111 13.4619 75.9111 13.2483C75.8806 12.8822 75.8501 12.4855 75.7891 12.0583L75.9111 11.9668C76.3078 11.9973 76.7349 12.0278 77.1621 12.0583C77.8944 12.0888 79.2674 12.0888 81.3117 12.0888H86.3767C88.482 12.0888 89.8855 12.0888 90.5873 12.0583C90.9839 12.0278 91.3501 12.0278 91.7467 11.9668L91.8688 12.0888C91.8077 12.6075 91.7467 13.0347 91.7162 13.4314C91.7162 13.4924 91.6857 14.4077 91.6552 16.1774H90.6178C90.5873 15.5367 90.5568 14.8959 90.4652 14.3162C90.4042 14.0111 90.3737 13.828 90.3127 13.767C90.2516 13.7365 90.1296 13.706 89.916 13.6755C89.2448 13.6144 88.4209 13.5839 87.4446 13.5839H85.6444C85.6139 13.889 85.6139 15.018 85.6139 17.0012V24.5071C85.6139 26.3073 85.6444 27.4057 85.7664 27.7719C85.8274 27.9855 85.9495 28.138 86.1326 28.2601C86.3156 28.3516 86.9259 28.4431 87.9327 28.4737V29.511C86.3156 29.45 84.9426 29.389 83.8442 29.389C82.6237 29.3585 81.2812 29.389 79.7251 29.4805Z" fill="#1A0B03"/>
<path d="M93.332 13.0054V11.968C93.5151 11.968 94.1864 11.9985 95.3458 12.029C95.895 12.0596 96.6883 12.0595 97.7257 12.0595C98.6106 12.0595 99.3428 12.029 99.9836 11.9985C101.021 11.968 101.875 11.9375 102.547 11.9375C103.859 11.9375 104.835 12.029 105.476 12.2121C106.116 12.3952 106.696 12.7918 107.154 13.3716C107.612 13.9513 107.856 14.6836 107.856 15.5379C107.856 16.5448 107.551 17.4601 106.91 18.2839C106.269 19.1078 105.323 19.779 104.011 20.2367C104.225 20.6028 104.469 20.9995 104.713 21.3961C104.988 21.7928 105.14 22.0369 105.171 22.0979C105.232 22.1894 105.262 22.2505 105.323 22.342L107.276 25.2711C107.795 26.0339 108.069 26.4611 108.1 26.5221C108.74 27.3459 109.107 27.8341 109.259 27.9867C109.412 28.1392 109.534 28.2308 109.686 28.2918C109.808 28.3528 110.083 28.3833 110.48 28.3833V29.4207C109.198 29.3902 108.252 29.3597 107.703 29.3597C107.032 29.3597 106.361 29.3902 105.72 29.4207C105.689 29.2377 105.567 28.9936 105.415 28.719L102.73 24.2948C101.967 23.0133 101.326 22.0369 100.777 21.3046C100.502 20.9385 100.258 20.6639 100.014 20.4808L100.167 20.0536C101.174 20.0841 101.936 19.9926 102.425 19.7485C102.913 19.5044 103.37 19.0772 103.706 18.467C104.042 17.8568 104.225 17.155 104.225 16.4227C104.225 15.6599 104.042 15.0192 103.676 14.5005C103.309 13.9818 102.852 13.6462 102.302 13.4326C101.967 13.3105 101.326 13.2495 100.411 13.2495C100.014 13.2495 99.6175 13.28 99.2208 13.341C99.1903 13.6462 99.1598 14.3174 99.1598 15.3548C99.0988 17.7042 99.0988 19.2908 99.0988 20.0841C99.0988 21.3351 99.0988 22.6471 99.1293 24.0507C99.1598 25.7593 99.1903 26.7357 99.1903 26.9798C99.2208 27.4375 99.2513 27.7426 99.3428 27.8951C99.3734 27.9562 99.4344 28.0172 99.4954 28.0782C99.5564 28.1392 99.6785 28.1698 99.8615 28.2003C100.014 28.2308 100.502 28.2613 101.326 28.2613V29.3597C99.8921 29.2987 98.458 29.2987 96.9934 29.2987C95.6814 29.2987 94.4915 29.3292 93.3625 29.3597V28.2613C94.3084 28.2308 94.8881 28.1697 95.0407 28.1087C95.1322 28.0782 95.2238 28.0477 95.2543 27.9867C95.3153 27.9257 95.3458 27.8036 95.3458 27.651C95.4068 27.3154 95.4373 26.8272 95.4679 26.1865L95.5594 22.5251V17.8873L95.4984 15.2328C95.4679 14.1954 95.4373 13.5546 95.3458 13.341C95.3153 13.2495 95.2543 13.1885 95.1627 13.1275C95.0102 13.158 94.3694 13.0664 93.332 13.0054Z" fill="#1A0B03"/>
<path d="M120.001 11.9668V13.0652C119.147 13.0957 118.658 13.1262 118.506 13.1568C118.353 13.1873 118.231 13.2483 118.17 13.3093C118.109 13.3703 118.048 13.4314 118.018 13.5229C117.957 13.6755 117.926 13.9501 117.896 14.3467C117.865 14.5603 117.865 14.9875 117.865 15.5672C117.835 17.6115 117.804 18.7404 117.804 18.893V23.9274L117.835 26.2158C117.835 27.0701 117.865 27.6193 117.957 27.8939C117.987 28.016 118.048 28.1075 118.14 28.1685C118.231 28.2296 118.353 28.2906 118.506 28.3211C118.658 28.3516 119.177 28.3821 120.001 28.4126V29.511C118.628 29.45 117.194 29.45 115.638 29.45C114.295 29.45 113.105 29.4805 112.037 29.511V28.4126C112.892 28.3821 113.41 28.3516 113.532 28.3211C113.715 28.2906 113.838 28.2296 113.899 28.1685C113.96 28.1075 113.99 28.0465 114.021 27.9549C114.051 27.8634 114.082 27.4668 114.112 26.765C114.173 25.7581 114.204 24.8428 114.204 23.9884V18.7709C114.204 17.1233 114.204 16.0554 114.173 15.5672C114.143 14.4993 114.082 13.8585 114.021 13.5839C113.99 13.4619 113.96 13.4008 113.899 13.3398C113.838 13.2788 113.746 13.2483 113.593 13.1873C113.441 13.1262 112.922 13.1262 112.007 13.0957V11.9668C113.044 12.0278 114.265 12.0278 115.638 12.0278C117.194 12.0278 118.628 12.0278 120.001 11.9668Z" fill="#1A0B03"/>
<path d="M121.618 13.0054V11.968L125.31 12.0595L130.894 11.9375C131.992 11.9375 132.846 12.0595 133.487 12.2731C134.128 12.4867 134.677 12.9139 135.135 13.4936C135.593 14.0733 135.806 14.8666 135.806 15.782C135.806 16.7278 135.593 17.6127 135.135 18.406C134.708 19.2298 134.006 19.8706 133.091 20.3893C132.175 20.908 131.168 21.1826 130.1 21.1826C129.826 21.1826 129.582 21.1826 129.307 21.152C129.063 21.1215 128.788 21.091 128.544 21.03C128.453 20.7859 128.3 20.5113 128.087 20.1452L128.361 19.8706C128.544 19.9316 128.727 19.9621 128.88 19.9926C129.033 20.0231 129.185 20.0231 129.338 20.0231C130.161 20.0231 130.802 19.7485 131.351 19.1688C131.87 18.5891 132.145 17.7652 132.145 16.6668C132.145 15.5379 131.87 14.653 131.321 14.1038C130.772 13.5546 130.009 13.2495 129.033 13.2495C128.575 13.2495 128.056 13.3105 127.476 13.4021C127.446 13.9208 127.415 14.6836 127.415 15.6904L127.385 18.1314V22.8607C127.385 24.0202 127.415 25.2406 127.446 26.4916C127.476 27.2239 127.507 27.6816 127.598 27.8646C127.629 27.9562 127.69 28.0172 127.782 28.0782C127.873 28.1392 127.995 28.2003 128.209 28.2308L129.887 28.3528V29.4512C127.751 29.3902 126.134 29.3902 125.066 29.3902C123.876 29.3902 122.747 29.4207 121.679 29.4512V28.3528C122.595 28.3223 123.174 28.2613 123.418 28.1392C123.479 28.1087 123.54 28.0477 123.601 27.9562C123.662 27.8341 123.693 27.529 123.754 27.0408C123.846 25.6983 123.907 24.2337 123.907 22.5861V18.1619L123.846 15.8125C123.815 14.8056 123.815 14.1649 123.784 13.9208C123.754 13.6767 123.723 13.4936 123.662 13.3716C123.632 13.3105 123.571 13.2495 123.479 13.1885C123.388 13.1275 123.266 13.0969 123.052 13.0359L121.618 13.0054Z" fill="#1A0B03"/>
<path d="M136.354 25.8477C136.904 25.8477 137.361 26.0307 137.727 26.4274C138.094 26.7935 138.307 27.2817 138.307 27.8004C138.307 28.3496 138.124 28.8073 137.727 29.2039C137.331 29.6006 136.873 29.7837 136.354 29.7837C135.805 29.7837 135.347 29.6006 134.951 29.2039C134.554 28.8073 134.371 28.3496 134.371 27.8004C134.371 27.2512 134.554 26.7935 134.951 26.4274C135.317 26.0307 135.805 25.8477 136.354 25.8477Z" fill="#1A0B03"/>
<path d="M140.597 13.0054V11.968C140.78 11.968 141.451 11.9985 142.61 12.029C143.16 12.0596 143.953 12.0595 144.99 12.0595C145.875 12.0595 146.607 12.029 147.248 11.9985C148.286 11.968 149.14 11.9375 149.811 11.9375C151.123 11.9375 152.1 12.029 152.74 12.2121C153.381 12.3952 153.961 12.7918 154.419 13.3716C154.876 13.9513 155.12 14.6836 155.12 15.5379C155.12 16.5448 154.815 17.4601 154.174 18.2839C153.534 19.1078 152.588 19.779 151.276 20.2367C151.489 20.6028 151.733 20.9995 151.978 21.3961C152.252 21.7928 152.405 22.0369 152.435 22.0979C152.496 22.1894 152.527 22.2505 152.588 22.342L154.541 25.2711C155.059 26.0339 155.334 26.4611 155.364 26.5221C156.005 27.3459 156.371 27.8341 156.524 27.9867C156.676 28.1392 156.798 28.2308 156.951 28.2918C157.073 28.3528 157.348 28.3833 157.744 28.3833V29.4207C156.463 29.3902 155.517 29.3597 154.968 29.3597C154.296 29.3597 153.625 29.3902 152.984 29.4207C152.954 29.2377 152.832 28.9936 152.679 28.719L149.994 24.2948C149.232 23.0133 148.591 22.0369 148.042 21.3046C147.767 20.9385 147.523 20.6639 147.279 20.4808L147.431 20.0536C148.438 20.0841 149.201 19.9926 149.689 19.7485C150.177 19.5044 150.635 19.0772 150.971 18.467C151.306 17.8568 151.489 17.155 151.489 16.4227C151.489 15.6599 151.306 15.0192 150.94 14.5005C150.574 13.9818 150.116 13.6462 149.567 13.4326C149.232 13.3105 148.591 13.2495 147.675 13.2495C147.279 13.2495 146.882 13.28 146.485 13.341C146.455 13.6462 146.424 14.3174 146.424 15.3548C146.363 17.7042 146.363 19.2908 146.363 20.0841C146.363 21.3351 146.363 22.6471 146.394 24.0507C146.424 25.7593 146.455 26.7357 146.455 26.9798C146.485 27.4375 146.516 27.7426 146.608 27.8951C146.638 27.9562 146.699 28.0172 146.76 28.0782C146.821 28.1392 146.943 28.1698 147.126 28.2003C147.279 28.2308 147.767 28.2613 148.591 28.2613V29.3597C147.157 29.2987 145.723 29.2987 144.258 29.2987C142.946 29.2987 141.756 29.3292 140.627 29.3597V28.2613C141.573 28.2308 142.153 28.1697 142.305 28.1087C142.397 28.0782 142.488 28.0477 142.519 27.9867C142.58 27.9257 142.61 27.8036 142.61 27.651C142.671 27.3154 142.702 26.8272 142.733 26.1865L142.824 22.5251V17.8873L142.763 15.2328C142.733 14.1954 142.702 13.5546 142.61 13.341C142.58 13.2495 142.519 13.1885 142.427 13.1275C142.244 13.158 141.634 13.0664 140.597 13.0054Z" fill="#1A0B03"/>
<path d="M158.75 13.0042V11.9668L162.808 12.0278L164.486 11.9973L166.164 11.9668H166.622V13.0042C165.707 13.0042 165.157 13.0957 164.913 13.2483C164.791 13.3093 164.7 13.4619 164.669 13.6755C164.547 14.1942 164.486 15.3231 164.486 17.0928V19.9914V21.4559C164.486 22.9815 164.517 23.9274 164.547 24.2935C164.608 25.0868 164.822 25.6971 165.127 26.1853C165.432 26.6735 165.92 27.0396 166.592 27.3447C167.232 27.6498 168.087 27.8024 169.093 27.8024C170.253 27.8024 171.168 27.6193 171.87 27.2227C172.572 26.826 173.06 26.3073 173.335 25.6666C173.64 25.0258 173.762 23.8359 173.762 22.0357V19.4727C173.762 17.2758 173.762 15.9333 173.762 15.4451C173.731 14.4077 173.67 13.767 173.579 13.5534C173.518 13.4314 173.426 13.3093 173.304 13.2483C173.03 13.0957 172.419 13.0347 171.504 13.0042V11.9668C172.999 12.0278 173.914 12.0583 174.189 12.0583C174.25 12.0583 174.372 12.0583 174.525 12.0583L177.301 11.9973V13.0347C176.538 13.0347 176.05 13.0957 175.837 13.2178C175.745 13.2788 175.654 13.4008 175.593 13.6144C175.531 13.828 175.47 14.6518 175.409 16.1469C175.348 17.642 175.318 18.8319 175.318 19.6863V22.6154C175.318 23.3782 175.257 24.141 175.165 24.9343C175.074 25.7276 174.83 26.4294 174.494 26.9786C174.158 27.5583 173.701 28.0465 173.091 28.5042C172.48 28.9618 171.779 29.2975 170.955 29.5416C170.131 29.7857 169.185 29.8772 168.087 29.8772C166.805 29.8772 165.646 29.6941 164.547 29.3585C163.754 29.1144 163.083 28.7788 162.594 28.3516C162.076 27.9244 161.71 27.4668 161.435 26.9481C161.16 26.4294 161.008 25.9107 160.947 25.453C160.916 25.1479 160.886 24.3546 160.886 23.0121V20.6016V17.4589C160.886 16.2995 160.855 15.2316 160.825 14.3162C160.794 13.9501 160.764 13.6755 160.672 13.5229C160.642 13.4314 160.52 13.3093 160.367 13.1873L158.75 13.0042Z" fill="#1A0B03"/>
<path d="M8.14583 41.9204C8.14583 41.9204 7.48686 41.7837 7.00195 41.8085C7.61119 41.6593 8.15826 41.3734 8.39449 41.1993C7.63606 41.2739 7.37495 41.3361 7.08899 41.4853C7.93446 41.1371 8.48153 40.9506 8.68046 40.6895C8.8794 40.416 7.90959 40.6895 7.90959 40.6895C7.90959 40.6895 8.7675 40.4657 8.81723 40.2046C8.55613 40.1798 8.28259 40.3787 8.28259 40.3787C8.28259 40.3787 8.97886 40.0181 9.05346 39.7943C8.6556 39.8565 8.30746 39.7943 8.30746 39.7943C8.30746 39.7943 9.0659 39.7322 9.15293 39.4711C9.23997 39.21 8.7302 39.384 8.7302 39.384C8.7302 39.384 9.94867 39.011 10.6325 39.1602C11.3163 39.3094 9.27727 40.789 9.27727 40.789L8.71776 41.6469L8.14583 41.9204Z" fill="#1A0B03"/>
<path d="M30.8972 39.2617C30.8972 39.2617 31.5562 39.3985 32.0411 39.3736C31.4319 39.5228 30.8848 39.8088 30.6486 39.9829C31.407 39.9083 31.6681 39.8461 31.9541 39.6969C31.1086 40.045 30.5615 40.2315 30.3626 40.4926C30.1637 40.7662 31.1335 40.4926 31.1335 40.4926C31.1335 40.4926 30.2756 40.7164 30.2258 40.9775C30.4869 41.0024 30.7605 40.8035 30.7605 40.8035C30.7605 40.8035 30.0642 41.164 29.9896 41.3878C30.3875 41.3257 30.7356 41.3878 30.7356 41.3878C30.7356 41.3878 29.9772 41.45 29.8901 41.7111C29.8031 41.9722 30.3129 41.7981 30.3129 41.7981C30.3129 41.7981 29.6539 42.2084 28.51 41.7484C27.8635 41.4873 29.7658 40.3932 29.7658 40.3932L30.3253 39.5353L30.8972 39.2617Z" fill="#1A0B03"/>
<path d="M34.2661 0.195981C34.378 0.0343472 34.6266 0.133814 34.6018 0.320315C34.2412 3.27946 33.1844 6.52458 30.2998 8.55122C27.1293 10.7768 20.8629 11.9953 21.0618 16.7946C21.2234 20.4873 22.2305 23.6827 23.2128 26.1818C23.2625 26.3061 23.163 26.4553 23.0263 26.4304C22.2181 26.331 21.4845 25.9828 20.9996 25.4855C20.6515 25.1249 20.1915 24.926 19.6941 24.926C19.1968 24.926 18.7368 25.1249 18.3886 25.4855C17.7918 26.1072 16.8344 26.4677 15.8149 26.4677C15.6906 26.4677 15.6035 26.3434 15.6408 26.2315C16.4117 23.9065 17.7172 19.7288 17.7172 17.7146C17.7172 14.8176 18.0778 14.1089 15.3424 12.418C12.6071 10.7271 9.02626 9.32209 7.54669 7.53168C6.14171 5.85317 4.11507 3.57786 4.83621 0.146248C4.87351 -0.0402533 5.14704 -0.0526865 5.19677 0.133814C5.55734 1.45175 6.07955 2.29722 7.43479 2.67023C9.01383 3.10539 12.1968 2.39669 14.8948 4.1871C17.3318 5.80344 18.8611 7.81765 19.5822 9.64536C19.6444 9.80699 19.8806 9.79456 19.9304 9.62049C20.7012 6.74838 22.1684 5.3434 24.2945 4.0752C26.5574 2.71996 29.4792 3.4784 30.822 2.88159C31.9535 2.38426 33.4082 1.46419 34.2661 0.195981Z" fill="#1A0B03"/>
<path d="M24.7421 3.01953C24.7297 3.03196 24.7173 3.0444 24.7173 3.05683C24.5681 3.21847 24.4189 3.31793 24.2572 3.39253C24.1329 3.44227 23.9961 3.46713 23.8594 3.46713C23.8718 3.4547 23.8967 3.44227 23.9091 3.42983C24.1826 3.2682 24.4562 3.13143 24.7421 3.01953Z" fill="#1A0B03"/>
<path d="M28.6587 2.49648C28.6587 2.49648 28.6338 2.48404 28.5965 2.45918C28.5717 2.44674 28.5344 2.43431 28.4971 2.42188C28.5344 2.42188 28.5592 2.42188 28.5965 2.42188H28.609L28.6214 2.43431C28.6463 2.47161 28.6587 2.49648 28.6587 2.49648Z" fill="#1A0B03"/>
<path d="M20.5019 3.91282L20.4149 6.59844C20.1289 7.03361 19.8803 7.51851 19.6565 8.06558C19.5819 7.92881 19.5073 7.80448 19.4202 7.68014L19.2959 3.91282C19.4948 3.91282 19.6938 3.90039 19.8927 3.90039C20.0916 3.90039 20.303 3.91282 20.5019 3.91282Z" fill="#1A0B03"/>
<path d="M35.8215 22.2773C35.7718 22.613 35.7096 22.9487 35.6474 23.2844L22.8534 22.8741C22.841 22.812 22.8161 22.7498 22.8037 22.6876L35.8215 22.2773Z" fill="#1A0B03"/>
<path d="M15.9636 22.6491C15.9387 22.7361 15.9139 22.8107 15.889 22.8978L4.1643 23.2708C4.10213 22.9351 4.03997 22.6118 3.99023 22.2637L15.9636 22.6491Z" fill="#1A0B03"/>
<path d="M32.9242 10.5515L22.2812 20.5479C22.2687 20.4609 22.2439 20.3863 22.2314 20.2992L32.2279 9.65625C32.4641 9.94222 32.7004 10.2406 32.9242 10.5515Z" fill="#1A0B03"/>
<path d="M16.7491 19.4301C16.7242 19.542 16.7118 19.6539 16.6869 19.7658L6.87695 10.5651C7.10075 10.2543 7.33699 9.95589 7.58566 9.66992L16.7491 19.4301Z" fill="#1A0B03"/>
<path d="M16.9707 16.2715L15.7646 13.5859C16.8712 14.3941 16.9831 14.9039 16.9707 16.2715Z" fill="#1A0B03"/>
<path d="M35.6721 16.8557L22.5549 21.7793C22.5424 21.7171 22.53 21.655 22.5176 21.6052L35.4359 15.7988C35.5229 16.147 35.61 16.4951 35.6721 16.8557Z" fill="#1A0B03"/>
<path d="M15.4185 24.4648C15.3812 24.5892 15.3315 24.7259 15.2942 24.8503L13.4541 25.6833C13.3795 25.6211 13.3049 25.5465 13.2303 25.4844C13.1805 25.4346 13.1308 25.3849 13.0811 25.3476L15.4185 24.4648Z" fill="#1A0B03"/>
<path d="M24.5682 12.4922L21.9323 18.311C21.9074 18.0748 21.8826 17.8385 21.8701 17.6147L23.5238 13.2631C23.8346 12.9895 24.1952 12.7409 24.5682 12.4922Z" fill="#1A0B03"/>
<path d="M26.4095 25.2497C26.31 25.3119 26.223 25.3865 26.1484 25.4735C26.1235 25.5108 26.0862 25.5357 26.0489 25.5606L23.326 24.3297C23.2887 24.2302 23.2639 24.1307 23.2266 24.0312L26.4095 25.2497Z" fill="#1A0B03"/>
<path d="M16.3617 21.1697C16.3368 21.2443 16.3244 21.3314 16.2995 21.406L4.13965 16.7932C4.21425 16.4326 4.28885 16.0845 4.38832 15.7363L16.3617 21.1697Z" fill="#1A0B03"/>
<path d="M16.7733 4.64734C16.6366 4.53544 16.4998 4.41111 16.3506 4.29921C16.4625 4.27434 16.5868 4.24948 16.6987 4.22461L16.7733 4.64734Z" fill="#1A0B03"/>
<path d="M35.9849 19.989V20.0014L22.706 22.3016C22.6936 22.2394 22.6687 22.1897 22.6562 22.1275L35.96 18.957C35.9724 19.2927 35.9849 19.6409 35.9849 19.989Z" fill="#1A0B03"/>
<path d="M15.7144 23.5059C15.6895 23.6053 15.6522 23.7048 15.6273 23.8043L6.24012 26.0423C5.91685 25.8806 5.64332 25.6693 5.40708 25.4206L5.30762 25.3087L15.7144 23.5059Z" fill="#1A0B03"/>
<path d="M28.6605 10.3535L22.1081 19.6413C22.0832 19.5169 22.0708 19.3926 22.0459 19.2683L27.0441 11.1368C27.2058 11.0622 27.3674 10.9752 27.529 10.9006C27.9269 10.7265 28.2999 10.54 28.6605 10.3535Z" fill="#1A0B03"/>
<path d="M25.2779 26.0822C25.1411 26.1444 24.9919 26.2066 24.8427 26.2563L23.761 25.4854C23.6988 25.3362 23.6491 25.1746 23.5869 25.0254L25.2779 26.0822Z" fill="#1A0B03"/>
<path d="M16.5491 20.4133C16.5242 20.5003 16.5118 20.5873 16.4869 20.6744L5.11035 13.6868C5.25955 13.3387 5.40875 13.003 5.58282 12.6797L16.5491 20.4133Z" fill="#1A0B03"/>
<path d="M16.9478 18.087C16.9354 18.2486 16.9229 18.4227 16.8981 18.6092L11.502 11.1367C11.7009 11.2486 11.8998 11.3481 12.0988 11.46C12.4345 11.6341 12.7826 11.8206 13.1183 12.0071L16.9478 18.087Z" fill="#1A0B03"/>
<path d="M34.6138 13.513L22.4042 21.1968C22.3918 21.1346 22.3794 21.06 22.3545 20.9979L34.1165 12.5059C34.303 12.8291 34.4646 13.1648 34.6138 13.513Z" fill="#1A0B03"/>
<path d="M14.9204 25.9823C14.8831 26.1066 14.8707 26.2309 14.8831 26.3553C14.7215 26.318 14.5723 26.2807 14.4355 26.2185L14.9577 25.8828C14.9453 25.9325 14.9329 25.9574 14.9204 25.9823Z" fill="#1A0B03"/>
<path d="M34.9512 25.213L34.7025 25.4866C34.5533 25.6606 34.2798 25.8223 33.9316 25.9591L23.0524 23.4848C23.0275 23.4102 23.0027 23.3356 22.9902 23.2734L34.9512 25.213Z" fill="#1A0B03"/>
<path d="M16.165 21.9277C16.1401 22.0023 16.1277 22.0893 16.1028 22.1639L3.83105 20.187C3.83105 20.1248 3.83105 20.0502 3.83105 19.988C3.83105 19.7021 3.84349 19.4161 3.85592 19.1426L16.165 21.9277Z" fill="#1A0B03"/>
</svg>
