<svg width="18" height="18" viewBox="0 0 18 18" fill="none" xmlns="http://www.w3.org/2000/svg">
<path d="M10.9326 1.75293L11.5754 2.51897C11.8613 2.27906 11.9898 1.8999 11.9087 1.53559C11.8276 1.17129 11.5504 0.88247 11.1897 0.786532L10.9326 1.75293ZM13.8164 14.7461L14.4592 15.5121C14.7451 15.2723 14.8736 14.8931 14.7925 14.5288C14.7114 14.1646 14.4343 13.8757 14.0736 13.7797L13.8164 14.7461ZM9 1.5V2.5C9.57927 2.5 10.1405 2.577 10.6756 2.71933L10.9326 1.75293L11.1897 0.786532C10.4914 0.600789 9.75745 0.5 9 0.5V1.5ZM10.9326 1.75293L10.2898 0.986892C8.43378 2.54433 7.25 4.88386 7.25 7.5H8.25H9.25C9.25 5.50056 10.1523 3.71311 11.5754 2.51897L10.9326 1.75293ZM8.25 7.5H7.25C7.25 11.4383 9.92793 14.7459 13.5592 15.7125L13.8164 14.7461L14.0736 13.7797C11.2954 13.0403 9.25 10.5084 9.25 7.5H8.25ZM13.8164 14.7461L13.1736 13.98C12.043 14.9287 10.5896 15.5 9 15.5V16.5V17.5C11.079 17.5 12.9834 16.7505 14.4592 15.5121L13.8164 14.7461ZM9 16.5V15.5C5.41015 15.5 2.5 12.5899 2.5 9H1.5H0.5C0.5 13.6944 4.30558 17.5 9 17.5V16.5ZM1.5 9H2.5C2.5 5.41015 5.41015 2.5 9 2.5V1.5V0.5C4.30558 0.5 0.5 4.30558 0.5 9H1.5Z" fill="#101828"/>
</svg>
