<svg width="24" height="25" viewBox="0 0 24 25" fill="none" xmlns="http://www.w3.org/2000/svg">
<path fill-rule="evenodd" clip-rule="evenodd" d="M9.97938 11.4727C10.4694 11.3094 10.7999 10.8508 10.7999 10.3343V6.73428C10.7999 4.74605 9.18813 3.13428 7.1999 3.13428H3.5999C2.93716 3.13428 2.3999 3.67154 2.3999 4.33428C2.3999 13.7599 10.9742 22.3343 20.3999 22.3343C21.0626 22.3343 21.5999 21.797 21.5999 21.1343V17.5343C21.5999 15.5461 19.9881 13.9343 17.9999 13.9343H14.3999C13.8834 13.9343 13.4248 14.2648 13.2615 14.7548L12.3651 17.4441C10.4934 16.2292 8.84992 14.6326 7.57716 12.7969L7.29009 12.3691L9.97938 11.4727ZM15.2648 16.3343H17.9999C18.6626 16.3343 19.1999 16.8715 19.1999 17.5343V19.8798C17.7573 19.7491 16.3451 19.387 15.0035 18.8336L14.5038 18.6172L15.2648 16.3343ZM4.85441 5.53428H7.1999C7.86264 5.53428 8.3999 6.07154 8.3999 6.73428V9.46937L6.11699 10.2303C5.44135 8.74161 5.00146 7.15723 4.85441 5.53428Z" fill="#222222"/>
</svg>
