<svg width="32" height="32" viewBox="0 0 32 32" fill="none" xmlns="http://www.w3.org/2000/svg">
<path d="M16 0C24.8365 0 32 7.16346 32 16C32 24.8365 24.8365 32 16 32C7.16346 32 0 24.8365 0 16C4.10742e-07 7.16346 7.16346 4.10715e-07 16 0ZM23.6719 10.0459C23.808 8.44334 22.1833 9.08743 22.1602 9.09668C22.1602 9.09668 18.5876 10.6157 17.5332 11.0908C14.7845 12.2781 6.8584 15.6504 6.8584 15.6504C5.00345 16.4008 6.05282 17.1047 6.0791 17.1221C6.0791 17.1221 7.68319 17.6928 9.05762 18.1201C10.4318 18.5474 11.165 18.0723 11.165 18.0723C11.1929 18.0533 14.3856 15.8774 17.624 13.5605C19.9146 11.9459 19.3652 13.2758 18.8154 13.8457C17.6243 15.0805 15.6541 17.0275 14.0049 18.5947C13.2723 19.2594 13.6384 19.8293 13.959 20.1143C15.1501 21.1591 18.4036 23.296 18.5869 23.4385C18.8163 23.6287 20.0983 24.4837 20.877 24.2939C21.6467 24.1062 21.7449 23.0366 21.7471 23.0117C21.7471 23.0117 22.3428 19.1174 22.8926 15.5557C23.2591 13.0386 23.626 10.7108 23.6719 10.0459Z" fill="#1A0B03"/>
</svg>
