<svg width="32" height="32" viewBox="0 0 32 32" fill="none" xmlns="http://www.w3.org/2000/svg">
<path d="M0 31.5255L2.22783 23.2493C0.431141 20.0252 -0.139685 16.2631 0.620099 12.6531C1.37988 9.0432 3.41931 5.82763 6.36415 3.59649C9.30899 1.36536 12.9617 0.268309 16.652 0.506661C20.3423 0.745014 23.8227 2.30278 26.4545 4.8941C29.0862 7.48543 30.6929 10.9365 30.9796 14.614C31.2663 18.2915 30.2138 21.9489 28.0152 24.9148C25.8167 27.8808 22.6196 29.9565 19.0106 30.761C15.4016 31.5655 11.6227 31.0448 8.36752 29.2946L0 31.5255ZM8.77099 26.1976L9.28848 26.5038C11.6463 27.8977 14.4002 28.4746 17.121 28.1444C19.8418 27.8143 22.3767 26.5956 24.3307 24.6784C26.2847 22.7612 27.5479 20.2531 27.9236 17.545C28.2993 14.8369 27.7663 12.0809 26.4077 9.70646C25.0491 7.33204 22.9412 5.47259 20.4125 4.41787C17.8838 3.36315 15.0764 3.17241 12.4276 3.87538C9.77892 4.57834 7.43772 6.13553 5.76889 8.30426C4.10006 10.473 3.19734 13.1315 3.20141 15.8654C3.19919 18.1322 3.82771 20.3552 5.017 22.2869L5.34153 22.8206L4.09605 27.4399L8.77099 26.1976Z" fill="#1A0B03"/>
<path fill-rule="evenodd" clip-rule="evenodd" d="M21.3308 17.9896C21.0274 17.7455 20.6722 17.5737 20.2922 17.4873C19.9122 17.4009 19.5175 17.4021 19.138 17.4909C18.5679 17.7271 18.1995 18.6195 17.8312 19.0657C17.7535 19.1726 17.6393 19.2476 17.5101 19.2766C17.381 19.3056 17.2456 19.2866 17.1295 19.2231C15.0423 18.4077 13.2928 16.9124 12.1651 14.98C12.0689 14.8594 12.0234 14.7063 12.0381 14.5529C12.0528 14.3995 12.1267 14.2578 12.244 14.1576C12.6549 13.7519 12.9566 13.2494 13.1211 12.6966C13.1577 12.0868 13.0176 11.4795 12.7177 10.9469C12.4858 10.2002 12.0445 9.53539 11.4459 9.03092C11.1371 8.89242 10.7948 8.84598 10.4602 8.89721C10.1256 8.94844 9.813 9.09514 9.56012 9.31963C9.1211 9.69743 8.77264 10.1687 8.54039 10.6986C8.30815 11.2285 8.19803 11.8037 8.21816 12.3817C8.21951 12.7063 8.26075 13.0294 8.34095 13.344C8.54462 14.0998 8.85783 14.8219 9.27067 15.4874C9.56853 15.9973 9.89353 16.4908 10.2443 16.966C11.3841 18.5267 12.8169 19.8519 14.4631 20.8679C15.2892 21.3842 16.1721 21.804 17.0944 22.1189C18.0525 22.5521 19.1103 22.7184 20.1555 22.6001C20.751 22.5102 21.3152 22.2757 21.7985 21.9172C22.2818 21.5587 22.6694 21.0872 22.9271 20.5442C23.0785 20.2162 23.1245 19.8494 23.0587 19.4943C22.9008 18.7682 21.9272 18.3395 21.3308 17.9896Z" fill="#1A0B03"/>
</svg>
